ISO-10303-21;
HEADER;
FILE_DESCRIPTION(('ViewDefinition [CoordinationView]'),'2;1');
FILE_NAME('','2026-07-23T07:06:52',(''),(''),'IfcOpenShell 0.8.5-1c5b825','IfcOpenShell 0.8.5-1c5b825','');
FILE_SCHEMA(('IFC4'));
ENDSEC;
DATA;
#1=IFCPROJECT('2GAdA9BMz0pecxTcNjNEfN',$,'My BIM Project',$,$,$,$,(#16),#5);
#2=IFCSIUNIT(*,.LENGTHUNIT.,.MILLI.,.METRE.);
#3=IFCSIUNIT(*,.AREAUNIT.,$,.SQUARE_METRE.);
#4=IFCSIUNIT(*,.VOLUMEUNIT.,$,.CUBIC_METRE.);
#5=IFCUNITASSIGNMENT((#4,#2,#3));
#6=IFCSITE('3s5iQgV3jB5Q3x6w4EGlTN',$,'My Site',$,$,$,$,$,$,$,$,$,$,$);
#7=IFCBUILDING('18yoh6A2H4teHKObQfTUau',$,'My Building',$,$,$,$,$,$,$,$,$);
#8=IFCBUILDINGSTOREY('3LBVkr9InCgAElyNL2EI2M',$,'Ground Floor',$,$,$,$,$,$,$);
#9=IFCRELAGGREGATES('2PBZhCcfz4aws3n1nEyW3G',$,$,$,#1,(#6));
#10=IFCRELAGGREGATES('2GbCYyMnrBZPdLpelFpGq_',$,$,$,#6,(#7));
#11=IFCRELAGGREGATES('3lTCn8ATHB8RnSj2Ut$z$C',$,$,$,#7,(#8));
#12=IFCCARTESIANPOINT((0.,0.,0.));
#13=IFCDIRECTION((0.,0.,1.));
#14=IFCDIRECTION((1.,0.,0.));
#15=IFCAXIS2PLACEMENT3D(#12,#13,#14);
#16=IFCGEOMETRICREPRESENTATIONCONTEXT($,'Model',3,1.0000000000000001E-05,#15,$);
#17=IFCGEOMETRICREPRESENTATIONSUBCONTEXT('Body','Model',*,*,*,*,#16,$,.MODEL_VIEW.,$);
#18=IFCWALL('13BAW4fxf1sPdU3sd8eeVF',$,'Building Shell (Role13 Final Solid)',$,$,#162,#142,$,$);
#19=IFCCARTESIANPOINTLIST3D(((0.,-100.,3000.),(0.,0.,3000.),(0.,-100.,0.),(0.,0.,0.),(0.,4000.,3000.),(0.,4100.,3000.),(-100.,4000.,3000.),(-100.,0.,3000.),(0.,0.,3000.),(0.,-100.,3000.),(6000.,-100.,3000.),(6000.,0.,3000.),(6100.,0.,3000.),(6100.,4000.,3000.),(6000.,4000.,3000.),(6000.,4100.,3000.),(100.,100.,3000.),(5900.,100.,3000.),(100.,3900.,3000.),(5900.,3900.,3000.),(-100.,0.,0.),(0.,0.,0.),(-100.,0.,3000.),(0.,0.,3000.),(100.,100.,0.),(2500.,100.,0.),(100.,3900.,0.),(5900.,3900.,0.),(5900.,100.,0.),(3500.,100.,0.),(3500.,-100.,0.),(6000.,-100.,0.),(6000.,0.,0.),(6100.,0.,0.),(6100.,4000.,0.),(6000.,4000.,0.),(6000.,4100.,0.),(0.,4100.,0.),(0.,4000.,0.),(-100.,4000.,0.),(-100.,0.,0.),(0.,0.,0.),(0.,-100.,0.),(2500.,-100.,0.),(0.,-100.,0.),(2500.,-100.,0.),(0.,-100.,3000.),(6000.,-100.,3000.),(6000.,-100.,0.),(3500.,-100.,0.),(3500.,-100.,2100.),(2500.,-100.,2100.),(100.,100.,0.),(2500.,100.,0.),(100.,100.,3000.),(5900.,100.,3000.),(5900.,100.,0.),(3500.,100.,0.),(3500.,100.,2100.),(2500.,100.,2100.),(100.,100.,3000.),(100.,3900.,3000.),(100.,100.,0.),(100.,3900.,0.),(100.,3900.,0.),(5900.,3900.,0.),(100.,3900.,3000.),(5900.,3900.,3000.),(1400.,3900.,2400.),(2600.,3900.,2400.),(1400.,3900.,1200.),(2600.,3900.,1200.),(3900.,3900.,2400.),(5100.,3900.,2400.),(3900.,3900.,1200.),(5100.,3900.,1200.),(5900.,100.,3000.),(5900.,3900.,3000.),(5900.,100.,0.),(5900.,3900.,0.),(0.,4000.,3000.),(0.,4100.,3000.),(0.,4000.,0.),(0.,4100.,0.),(-100.,4000.,0.),(0.,4000.,0.),(-100.,4000.,3000.),(0.,4000.,3000.),(-100.,0.,0.),(-100.,0.,3000.),(-100.,4000.,0.),(-100.,4000.,3000.),(6000.,-100.,3000.),(6000.,0.,3000.),(6000.,-100.,0.),(6000.,0.,0.),(6000.,0.,0.),(6100.,0.,0.),(6000.,0.,3000.),(6100.,0.,3000.),(6100.,0.,0.),(6100.,0.,3000.),(6100.,4000.,0.),(6100.,4000.,3000.),(6000.,4000.,0.),(6100.,4000.,0.),(6000.,4000.,3000.),(6100.,4000.,3000.),(6000.,4000.,3000.),(6000.,4100.,3000.),(6000.,4000.,0.),(6000.,4100.,0.),(0.,4100.,0.),(6000.,4100.,0.),(0.,4100.,3000.),(6000.,4100.,3000.),(1400.,4100.,2400.),(2600.,4100.,2400.),(1400.,4100.,1200.),(2600.,4100.,1200.),(3900.,4100.,2400.),(5100.,4100.,2400.),(3900.,4100.,1200.),(5100.,4100.,1200.),(2500.,-100.,2100.),(2500.,100.,2100.),(2500.,-100.,0.),(2500.,100.,0.),(3500.,-100.,2100.),(3500.,100.,2100.),(3500.,-100.,0.),(3500.,100.,0.),(2500.,-100.,2100.),(2500.,100.,2100.),(3500.,-100.,2100.),(3500.,100.,2100.),(1400.,3900.,2400.),(1400.,4100.,2400.),(2600.,3900.,2400.),(2600.,4100.,2400.),(1400.,3900.,2400.),(1400.,4100.,2400.),(1400.,3900.,1200.),(1400.,4100.,1200.),(2600.,3900.,2400.),(2600.,4100.,2400.),(2600.,3900.,1200.),(2600.,4100.,1200.),(1400.,3900.,1200.),(1400.,4100.,1200.),(2600.,3900.,1200.),(2600.,4100.,1200.),(3900.,3900.,2400.),(3900.,4100.,2400.),(5100.,3900.,2400.),(5100.,4100.,2400.),(5100.,3900.,2400.),(5100.,4100.,2400.),(5100.,3900.,1200.),(5100.,4100.,1200.),(3900.,3900.,1200.),(3900.,4100.,1200.),(5100.,3900.,1200.),(5100.,4100.,1200.),(3900.,3900.,2400.),(3900.,4100.,2400.),(3900.,3900.,1200.),(3900.,4100.,1200.)));
#20=IFCINDEXEDPOLYGONALFACE((1,4,3));
#21=IFCINDEXEDPOLYGONALFACE((1,2,4));
#22=IFCINDEXEDPOLYGONALFACE((17,8,9));
#23=IFCINDEXEDPOLYGONALFACE((17,9,10));
#24=IFCINDEXEDPOLYGONALFACE((19,5,7));
#25=IFCINDEXEDPOLYGONALFACE((19,7,8));
#26=IFCINDEXEDPOLYGONALFACE((19,8,17));
#27=IFCINDEXEDPOLYGONALFACE((6,5,19));
#28=IFCINDEXEDPOLYGONALFACE((18,10,11));
#29=IFCINDEXEDPOLYGONALFACE((18,11,12));
#30=IFCINDEXEDPOLYGONALFACE((18,17,10));
#31=IFCINDEXEDPOLYGONALFACE((13,18,12));
#32=IFCINDEXEDPOLYGONALFACE((14,20,18));
#33=IFCINDEXEDPOLYGONALFACE((14,18,13));
#34=IFCINDEXEDPOLYGONALFACE((14,15,20));
#35=IFCINDEXEDPOLYGONALFACE((16,19,20));
#36=IFCINDEXEDPOLYGONALFACE((16,6,19));
#37=IFCINDEXEDPOLYGONALFACE((16,20,15));
#38=IFCINDEXEDPOLYGONALFACE((24,21,22));
#39=IFCINDEXEDPOLYGONALFACE((24,23,21));
#40=IFCINDEXEDPOLYGONALFACE((25,42,41));
#41=IFCINDEXEDPOLYGONALFACE((25,43,42));
#42=IFCINDEXEDPOLYGONALFACE((44,43,25));
#43=IFCINDEXEDPOLYGONALFACE((26,44,25));
#44=IFCINDEXEDPOLYGONALFACE((27,41,40));
#45=IFCINDEXEDPOLYGONALFACE((27,25,41));
#46=IFCINDEXEDPOLYGONALFACE((39,27,40));
#47=IFCINDEXEDPOLYGONALFACE((38,27,39));
#48=IFCINDEXEDPOLYGONALFACE((29,31,30));
#49=IFCINDEXEDPOLYGONALFACE((29,32,31));
#50=IFCINDEXEDPOLYGONALFACE((29,33,32));
#51=IFCINDEXEDPOLYGONALFACE((34,33,29));
#52=IFCINDEXEDPOLYGONALFACE((35,29,28));
#53=IFCINDEXEDPOLYGONALFACE((35,34,29));
#54=IFCINDEXEDPOLYGONALFACE((35,28,36));
#55=IFCINDEXEDPOLYGONALFACE((37,28,27));
#56=IFCINDEXEDPOLYGONALFACE((37,27,38));
#57=IFCINDEXEDPOLYGONALFACE((37,36,28));
#58=IFCINDEXEDPOLYGONALFACE((52,45,46));
#59=IFCINDEXEDPOLYGONALFACE((52,47,45));
#60=IFCINDEXEDPOLYGONALFACE((51,47,52));
#61=IFCINDEXEDPOLYGONALFACE((49,51,50));
#62=IFCINDEXEDPOLYGONALFACE((48,51,49));
#63=IFCINDEXEDPOLYGONALFACE((48,47,51));
#64=IFCINDEXEDPOLYGONALFACE((60,54,53));
#65=IFCINDEXEDPOLYGONALFACE((60,53,55));
#66=IFCINDEXEDPOLYGONALFACE((57,58,59));
#67=IFCINDEXEDPOLYGONALFACE((56,59,60));
#68=IFCINDEXEDPOLYGONALFACE((56,57,59));
#69=IFCINDEXEDPOLYGONALFACE((56,60,55));
#70=IFCINDEXEDPOLYGONALFACE((63,64,62));
#71=IFCINDEXEDPOLYGONALFACE((61,63,62));
#72=IFCINDEXEDPOLYGONALFACE((67,65,71));
#73=IFCINDEXEDPOLYGONALFACE((69,67,71));
#74=IFCINDEXEDPOLYGONALFACE((72,71,65));
#75=IFCINDEXEDPOLYGONALFACE((70,67,69));
#76=IFCINDEXEDPOLYGONALFACE((66,75,72));
#77=IFCINDEXEDPOLYGONALFACE((66,72,65));
#78=IFCINDEXEDPOLYGONALFACE((73,70,72));
#79=IFCINDEXEDPOLYGONALFACE((73,72,75));
#80=IFCINDEXEDPOLYGONALFACE((76,75,66));
#81=IFCINDEXEDPOLYGONALFACE((68,73,74));
#82=IFCINDEXEDPOLYGONALFACE((68,74,76));
#83=IFCINDEXEDPOLYGONALFACE((68,70,73));
#84=IFCINDEXEDPOLYGONALFACE((68,76,66));
#85=IFCINDEXEDPOLYGONALFACE((67,70,68));
#86=IFCINDEXEDPOLYGONALFACE((79,78,80));
#87=IFCINDEXEDPOLYGONALFACE((77,78,79));
#88=IFCINDEXEDPOLYGONALFACE((81,84,83));
#89=IFCINDEXEDPOLYGONALFACE((81,82,84));
#90=IFCINDEXEDPOLYGONALFACE((88,86,85));
#91=IFCINDEXEDPOLYGONALFACE((88,85,87));
#92=IFCINDEXEDPOLYGONALFACE((90,91,89));
#93=IFCINDEXEDPOLYGONALFACE((90,92,91));
#94=IFCINDEXEDPOLYGONALFACE((93,95,96));
#95=IFCINDEXEDPOLYGONALFACE((93,96,94));
#96=IFCINDEXEDPOLYGONALFACE((100,97,98));
#97=IFCINDEXEDPOLYGONALFACE((100,99,97));
#98=IFCINDEXEDPOLYGONALFACE((102,101,103));
#99=IFCINDEXEDPOLYGONALFACE((102,103,104));
#100=IFCINDEXEDPOLYGONALFACE((108,106,105));
#101=IFCINDEXEDPOLYGONALFACE((108,105,107));
#102=IFCINDEXEDPOLYGONALFACE((109,111,112));
#103=IFCINDEXEDPOLYGONALFACE((109,112,110));
#104=IFCINDEXEDPOLYGONALFACE((115,119,113));
#105=IFCINDEXEDPOLYGONALFACE((117,119,115));
#106=IFCINDEXEDPOLYGONALFACE((120,113,119));
#107=IFCINDEXEDPOLYGONALFACE((118,117,115));
#108=IFCINDEXEDPOLYGONALFACE((114,120,123));
#109=IFCINDEXEDPOLYGONALFACE((114,113,120));
#110=IFCINDEXEDPOLYGONALFACE((121,120,118));
#111=IFCINDEXEDPOLYGONALFACE((121,123,120));
#112=IFCINDEXEDPOLYGONALFACE((124,114,123));
#113=IFCINDEXEDPOLYGONALFACE((116,122,121));
#114=IFCINDEXEDPOLYGONALFACE((116,124,122));
#115=IFCINDEXEDPOLYGONALFACE((116,121,118));
#116=IFCINDEXEDPOLYGONALFACE((116,114,124));
#117=IFCINDEXEDPOLYGONALFACE((115,116,118));
#118=IFCINDEXEDPOLYGONALFACE((125,127,128));
#119=IFCINDEXEDPOLYGONALFACE((125,128,126));
#120=IFCINDEXEDPOLYGONALFACE((129,132,131));
#121=IFCINDEXEDPOLYGONALFACE((129,130,132));
#122=IFCINDEXEDPOLYGONALFACE((136,133,134));
#123=IFCINDEXEDPOLYGONALFACE((136,135,133));
#124=IFCINDEXEDPOLYGONALFACE((140,137,138));
#125=IFCINDEXEDPOLYGONALFACE((140,139,137));
#126=IFCINDEXEDPOLYGONALFACE((141,143,144));
#127=IFCINDEXEDPOLYGONALFACE((141,144,142));
#128=IFCINDEXEDPOLYGONALFACE((145,148,147));
#129=IFCINDEXEDPOLYGONALFACE((145,146,148));
#130=IFCINDEXEDPOLYGONALFACE((152,150,149));
#131=IFCINDEXEDPOLYGONALFACE((152,149,151));
#132=IFCINDEXEDPOLYGONALFACE((156,153,154));
#133=IFCINDEXEDPOLYGONALFACE((156,155,153));
#134=IFCINDEXEDPOLYGONALFACE((157,160,159));
#135=IFCINDEXEDPOLYGONALFACE((157,158,160));
#136=IFCINDEXEDPOLYGONALFACE((164,162,161));
#137=IFCINDEXEDPOLYGONALFACE((164,161,163));
#138=IFCINDEXEDPOLYGONALFACE((165,167,168));
#139=IFCINDEXEDPOLYGONALFACE((165,168,166));
#140=IFCPOLYGONALFACESET(#19,$,(#20,#21,#22,#23,#24,#25,#26,#27,#28,#29,#30,#31,#32,#33,#34,#35,#36,#37,#38,#39,#40,#41,#42,#43,#44,#45,#46,#47,#48,#49,#50,#51,#52,#53,#54,#55,#56,#57,#58,#59,#60,#61,#62,#63,#64,#65,#66,#67,#68,#69,#70,#71,#72,#73,#74,#75,#76,#77,#78,#79,#80,#81,#82,#83,#84,#85,#86,#87,#88,#89,#90,#91,#92,#93,#94,#95,#96,#97,#98,#99,#100,#101,#102,#103,#104,#105,#106,#107,#108,#109,#110,#111,#112,#113,#114,#115,#116,#117,#118,#119,#120,#121,#122,#123,#124,#125,#126,#127,#128,#129,#130,#131,#132,#133,#134,#135,#136,#137,#138,#139),$);
#141=IFCSHAPEREPRESENTATION(#17,'Body','Tessellation',(#140));
#142=IFCPRODUCTDEFINITIONSHAPE($,$,(#141));
#148=IFCPROPERTYSET('2K70_mCf57xe3yc964eoKK',$,'Pset_WallCommon',$,(#150,#151,#152));
#149=IFCRELDEFINESBYPROPERTIES('17LxLvXB9748g_gRgsMIWK',$,$,$,(#18),#148);
#150=IFCPROPERTYSINGLEVALUE('IsExternal',$,IFCBOOLEAN(.T.),$);
#151=IFCPROPERTYSINGLEVALUE('LoadBearing',$,IFCBOOLEAN(.T.),$);
#152=IFCPROPERTYSINGLEVALUE('FireRating',$,IFCLABEL('2HR'),$);
#153=IFCMATERIAL('Concrete',$,$);
#154=IFCRELASSOCIATESMATERIAL('2$9rknrlv2s9$i$y80RBD4',$,$,$,(#18),#153);
#155=IFCWALLTYPE('3Zz8144o53BxY2K$YZRUba',$,'Standard Wall Type',$,$,$,$,$,$,.NOTDEFINED.);
#156=IFCRELDEFINESBYTYPE('1uJwkKuxH3FPNh02IFgAHB',$,$,$,(#18),#155);
#157=IFCRELCONTAINEDINSPATIALSTRUCTURE('1DgHN9NnvCexmDyn7Hipsb',$,$,$,(#18),#8);
#158=IFCCARTESIANPOINT((0.,0.,0.));
#159=IFCDIRECTION((0.,0.,1.));
#160=IFCDIRECTION((1.,0.,0.));
#161=IFCAXIS2PLACEMENT3D(#158,#159,#160);
#162=IFCLOCALPLACEMENT($,#161);
ENDSEC;
END-ISO-10303-21;
