  0
SECTION
  2
HEADER
  9
$ACADVER
  1
AC1006
  9
$EXTMIN
 10
0.000000
 20
0.000000
 30
0.000000
  9
$EXTMAX
 10
237.000000
 20
213.000000
 30
0.000000
  0
ENDSEC
  0
SECTION
  2
ENTITIES
  0
POLYLINE
  8
0
 66
1
 70
1
  0
VERTEX
  8
0
 10
215.349414
 20
199.000000
 42
0.003751
  0
VERTEX
  8
0
 10
215.372277
 20
195.952816
 42
0.018707
  0
VERTEX
  8
0
 10
215.461859
 20
194.245312
 42
0.769970
  0
VERTEX
  8
0
 10
215.592873
 20
194.223005
 42
0.084525
  0
VERTEX
  8
0
 10
215.732205
 20
194.750000
 42
0.014123
  0
VERTEX
  8
0
 10
215.851512
 20
196.684912
 42
0.008335
  0
VERTEX
  8
0
 10
215.890106
 20
199.000000
 42
0.008335
  0
VERTEX
  8
0
 10
215.851512
 20
201.315088
 42
0.014123
  0
VERTEX
  8
0
 10
215.732205
 20
203.250000
 42
0.084525
  0
VERTEX
  8
0
 10
215.592873
 20
203.776995
 42
0.769970
  0
VERTEX
  8
0
 10
215.461859
 20
203.754688
 42
0.018707
  0
VERTEX
  8
0
 10
215.372277
 20
202.047184
 42
0.003751
  0
SEQEND
  0
POLYLINE
  8
0
 66
1
 70
1
  0
VERTEX
  8
0
 10
50.078947
 20
197.416667
 42
0.018894
  0
VERTEX
  8
0
 10
50.137993
 20
196.670344
 42
0.168741
  0
VERTEX
  8
0
 10
50.279315
 20
196.378580
 42
0.470617
  0
VERTEX
  8
0
 10
50.461564
 20
196.395823
 42
0.054073
  0
VERTEX
  8
0
 10
50.683114
 20
196.812500
 42
0.051402
  0
VERTEX
  8
0
 10
50.839148
 20
197.359369
 42
0.054150
  0
VERTEX
  8
0
 10
50.876576
 20
197.916927
 42
0.060344
  0
VERTEX
  8
0
 10
50.797407
 20
198.402231
 42
0.126455
  0
VERTEX
  8
0
 10
50.604167
 20
198.729167
 42
0.296942
  0
VERTEX
  8
0
 10
50.385309
 20
198.775380
 42
0.208169
  0
VERTEX
  8
0
 10
50.200665
 20
198.592839
 42
0.077125
  0
VERTEX
  8
0
 10
50.089945
 20
198.112848
 42
0.028489
  0
SEQEND
  0
POLYLINE
  8
0
 66
1
 70
1
  0
VERTEX
  8
0
 10
62.441130
 20
197.444834
 42
0.000942
  0
VERTEX
  8
0
 10
61.103064
 20
196.368677
 42
0.387311
  0
VERTEX
  8
0
 10
61.086321
 20
196.259764
 42
0.374075
  0
VERTEX
  8
0
 10
61.194807
 20
196.229929
 42
0.000927
  0
VERTEX
  8
0
 10
62.750000
 20
196.980018
 42
0.015626
  0
VERTEX
  8
0
 10
63.612012
 20
197.431534
 42
0.022763
  0
VERTEX
  8
0
 10
64.339062
 20
197.886617
 42
0.019609
  0
VERTEX
  8
0
 10
64.887367
 20
198.298271
 42
0.225611
  0
VERTEX
  8
0
 10
65.000000
 20
198.535184
 42
0.244706
  0
VERTEX
  8
0
 10
64.834265
 20
198.853546
 42
0.258978
  0
VERTEX
  8
0
 10
64.485663
 20
198.889937
 42
0.060108
  0
VERTEX
  8
0
 10
63.784922
 20
198.486037
 42
0.008126
  0
SEQEND
  0
POLYLINE
  8
0
 66
1
 70
1
  0
VERTEX
  8
0
 10
77.000000
 20
195.654988
 42
0.078397
  0
VERTEX
  8
0
 10
77.163258
 20
194.620156
 42
0.044165
  0
VERTEX
  8
0
 10
77.660938
 20
193.447027
 42
0.042752
  0
VERTEX
  8
0
 10
78.389005
 20
192.323410
 42
0.053740
  0
VERTEX
  8
0
 10
79.250000
 20
191.431521
 42
0.007227
  0
VERTEX
  8
0
 10
80.065725
 20
190.770270
 42
0.060007
  0
VERTEX
  8
0
 10
80.471875
 20
190.523006
 42
0.744315
  0
VERTEX
  8
0
 10
80.534750
 20
190.594972
 42
0.039767
  0
VERTEX
  8
0
 10
80.250000
 20
190.976534
 42
-0.080461
  0
VERTEX
  8
0
 10
79.079648
 20
192.843153
 42
-0.183043
  0
VERTEX
  8
0
 10
79.018414
 20
194.480710
 42
-0.210149
  0
VERTEX
  8
0
 10
80.034810
 20
195.596150
 42
-0.104769
  0
VERTEX
  8
0
 10
81.940983
 20
196.000000
 42
0.031397
  0
VERTEX
  8
0
 10
83.112115
 20
196.073612
 42
0.037109
  0
VERTEX
  8
0
 10
84.199600
 20
196.293750
 42
0.040338
  0
VERTEX
  8
0
 10
85.065839
 20
196.614422
 42
0.146547
  0
VERTEX
  8
0
 10
85.500000
 20
197.000000
 42
0.397171
  0
VERTEX
  8
0
 10
85.416353
 20
197.407294
 42
0.091154
  0
VERTEX
  8
0
 10
84.715335
 20
197.729054
 42
0.045191
  0
VERTEX
  8
0
 10
83.410761
 20
197.937148
 42
0.016966
  0
VERTEX
  8
0
 10
81.559017
 20
198.000000
 42
0.012668
  0
VERTEX
  8
0
 10
78.891759
 20
197.932413
 42
0.106502
  0
VERTEX
  8
0
 10
77.736033
 20
197.621408
 42
0.207100
  0
VERTEX
  8
0
 10
77.181089
 20
196.945303
 42
0.069830
  0
SEQEND
  0
POLYLINE
  8
0
 66
1
 70
1
  0
VERTEX
  8
0
 10
111.000000
 20
197.000000
 42
0.266998
  0
VERTEX
  8
0
 10
111.221325
 20
196.615078
 42
0.057274
  0
VERTEX
  8
0
 10
111.954688
 20
196.293956
 42
0.045524
  0
VERTEX
  8
0
 10
113.004814
 20
196.073075
 42
0.029145
  0
VERTEX
  8
0
 10
114.250000
 20
196.000702
 42
0.000000
  0
VERTEX
  8
0
 10
117.500000
 20
196.001403
 42
0.000000
  0
VERTEX
  8
0
 10
117.217606
 20
170.000702
 42
0.000000
  0
VERTEX
  8
0
 10
116.935213
 20
144.000000
 42
0.000000
  0
VERTEX
  8
0
 10
112.967606
 20
144.000000
 42
0.019628
  0
VERTEX
  8
0
 10
111.446826
 20
143.940277
 42
0.031747
  0
VERTEX
  8
0
 10
110.165484
 20
143.757125
 42
0.033530
  0
VERTEX
  8
0
 10
109.227679
 20
143.495071
 42
0.317925
  0
VERTEX
  8
0
 10
109.000000
 20
143.173193
 42
0.319542
  0
VERTEX
  8
0
 10
109.205462
 20
142.884525
 42
0.053377
  0
VERTEX
  8
0
 10
109.907287
 20
142.722422
 42
0.041727
  0
VERTEX
  8
0
 10
110.904640
 20
142.685568
 42
0.024819
  0
VERTEX
  8
0
 10
112.088636
 20
142.799701
 42
-0.020515
  0
VERTEX
  8
0
 10
113.936375
 20
142.993878
 42
-0.192517
  0
VERTEX
  8
0
 10
114.681105
 20
142.749808
 42
-0.212902
  0
VERTEX
  8
0
 10
115.010621
 20
142.074874
 42
-0.025553
  0
VERTEX
  8
0
 10
114.982674
 20
140.376508
 42
0.013643
  0
VERTEX
  8
0
 10
114.922162
 20
138.874433
 42
0.004081
  0
VERTEX
  8
0
 10
114.911120
 20
136.582474
 42
0.004088
  0
VERTEX
  8
0
 10
114.940778
 20
134.008105
 42
0.004416
  0
VERTEX
  8
0
 10
115.012352
 20
131.500000
 42
0.003202
  0
VERTEX
  8
0
 10
115.157690
 20
128.181330
 42
0.067068
  0
VERTEX
  8
0
 10
115.338937
 20
127.207998
 42
0.708033
  0
VERTEX
  8
0
 10
115.592791
 20
127.202778
 42
0.027506
  0
VERTEX
  8
0
 10
116.000000
 20
128.500000
 42
-0.005847
  0
VERTEX
  8
0
 10
116.478412
 20
130.292165
 42
-0.664233
  0
VERTEX
  8
0
 10
116.659030
 20
130.314972
 42
-0.124020
  0
VERTEX
  8
0
 10
116.790637
 20
129.852057
 42
-0.001832
  0
VERTEX
  8
0
 10
116.866372
 20
127.000000
 42
-0.009518
  0
VERTEX
  8
0
 10
116.874484
 20
124.893066
 42
-0.066587
  0
VERTEX
  8
0
 10
116.723027
 20
123.878326
 42
-0.406306
  0
VERTEX
  8
0
 10
116.412960
 20
123.701701
 42
-0.187915
  0
VERTEX
  8
0
 10
116.000000
 20
124.000000
 42
0.021149
  0
VERTEX
  8
0
 10
115.559769
 20
124.621859
 42
0.167501
  0
VERTEX
  8
0
 10
115.269141
 20
124.812500
 42
0.405416
  0
VERTEX
  8
0
 10
115.081977
 20
124.704915
 42
0.066727
  0
VERTEX
  8
0
 10
115.015313
 20
124.250000
 42
-0.311649
  0
VERTEX
  8
0
 10
114.380463
 20
123.354066
 42
-0.085325
  0
VERTEX
  8
0
 10
112.582988
 20
123.027219
 42
-0.078469
  0
VERTEX
  8
0
 10
110.672519
 20
123.310065
 42
-0.240864
  0
VERTEX
  8
0
 10
109.766854
 20
124.199438
 42
0.096544
  0
VERTEX
  8
0
 10
109.554640
 20
124.575078
 42
0.339111
  0
VERTEX
  8
0
 10
109.300063
 20
124.629388
 42
0.160643
  0
VERTEX
  8
0
 10
109.015238
 20
124.357444
 42
0.030900
  0
VERTEX
  8
0
 10
108.714905
 20
123.699438
 42
0.055048
  0
VERTEX
  8
0
 10
108.515212
 20
122.937820
 42
0.164252
  0
VERTEX
  8
0
 10
108.609974
 20
122.414561
 42
0.191052
  0
VERTEX
  8
0
 10
108.986748
 20
122.104552
 42
0.077890
  0
VERTEX
  8
0
 10
109.653830
 20
122.000000
 42
-0.038761
  0
VERTEX
  8
0
 10
110.476558
 20
121.936124
 42
-0.331907
  0
VERTEX
  8
0
 10
110.719557
 20
121.687968
 42
-0.185629
  0
VERTEX
  8
0
 10
110.614330
 20
121.244783
 42
-0.014687
  0
VERTEX
  8
0
 10
109.889678
 20
120.250000
 42
0.001609
  0
VERTEX
  8
0
 10
108.985605
 20
119.074767
 42
0.621148
  0
VERTEX
  8
0
 10
109.022569
 20
119.000000
 42
0.176901
  0
VERTEX
  8
0
 10
109.190949
 20
119.061498
 42
0.000873
  0
VERTEX
  8
0
 10
110.595974
 20
120.250000
 42
-0.048870
  0
VERTEX
  8
0
 10
111.562516
 20
120.920066
 42
-0.034132
  0
VERTEX
  8
0
 10
112.763158
 20
121.485730
 42
-0.034544
  0
VERTEX
  8
0
 10
114.001598
 20
121.872887
 42
-0.058623
  0
VERTEX
  8
0
 10
115.078741
 20
121.999294
 42
-0.052067
  0
VERTEX
  8
0
 10
116.278054
 20
121.873712
 42
-0.141968
  0
VERTEX
  8
0
 10
117.023481
 20
121.475706
 42
-0.137984
  0
VERTEX
  8
0
 10
117.453125
 20
120.732378
 42
-0.048090
  0
VERTEX
  8
0
 10
117.644213
 20
119.499294
 42
-0.044205
  0
VERTEX
  8
0
 10
117.603160
 20
118.163154
 42
-0.180434
  0
VERTEX
  8
0
 10
117.237185
 20
117.453430
 42
-0.155184
  0
VERTEX
  8
0
 10
116.455701
 20
117.095251
 42
-0.030472
  0
VERTEX
  8
0
 10
114.894213
 20
117.000000
 42
0.032810
  0
VERTEX
  8
0
 10
113.785559
 20
116.927172
 42
0.050414
  0
VERTEX
  8
0
 10
112.850175
 20
116.706250
 42
0.065163
  0
VERTEX
  8
0
 10
112.204271
 20
116.383968
 42
0.249448
  0
VERTEX
  8
0
 10
112.000000
 20
116.000000
 42
0.241565
  0
VERTEX
  8
0
 10
112.196766
 20
115.616492
 42
0.068665
  0
VERTEX
  8
0
 10
112.807812
 20
115.294024
 42
0.052691
  0
VERTEX
  8
0
 10
113.696691
 20
115.073496
 42
0.034574
  0
VERTEX
  8
0
 10
114.750000
 20
115.000933
 42
-0.045058
  0
VERTEX
  8
0
 10
116.370849
 20
114.855126
 42
-0.225815
  0
VERTEX
  8
0
 10
117.090677
 20
114.336930
 42
-0.123999
  0
VERTEX
  8
0
 10
117.379309
 20
113.233879
 42
-0.010550
  0
VERTEX
  8
0
 10
117.344158
 20
110.282319
 42
-0.016536
  0
VERTEX
  8
0
 10
117.223154
 20
108.453751
 42
-0.024578
  0
VERTEX
  8
0
 10
116.986123
 20
106.867076
 42
-0.021860
  0
VERTEX
  8
0
 10
116.682895
 20
105.634121
 42
-0.246398
  0
VERTEX
  8
0
 10
116.344158
 20
105.283410
 42
0.283836
  0
VERTEX
  8
0
 10
116.026374
 20
104.904651
 42
0.016171
  0
VERTEX
  8
0
 10
115.847500
 20
103.323016
 42
0.020791
  0
VERTEX
  8
0
 10
115.770039
 20
101.322531
 42
0.013380
  0
VERTEX
  8
0
 10
115.838821
 20
99.002024
 42
0.000000
  0
VERTEX
  8
0
 10
116.177642
 20
93.000000
 42
0.000000
  0
VERTEX
  8
0
 10
103.588821
 20
93.000000
 42
0.000000
  0
VERTEX
  8
0
 10
91.000000
 20
93.000000
 42
0.000000
  0
VERTEX
  8
0
 10
91.000000
 20
107.500000
 42
0.000000
  0
VERTEX
  8
0
 10
91.000000
 20
122.000000
 42
0.000000
  0
VERTEX
  8
0
 10
96.059017
 20
122.000000
 42
0.014226
  0
VERTEX
  8
0
 10
98.203688
 20
122.061034
 42
0.043664
  0
VERTEX
  8
0
 10
99.640575
 20
122.269643
 42
0.095169
  0
VERTEX
  8
0
 10
100.384723
 20
122.603041
 42
0.397499
  0
VERTEX
  8
0
 10
100.474860
 20
123.040677
 42
0.147938
  0
VERTEX
  8
0
 10
100.078116
 20
123.391097
 42
0.071205
  0
VERTEX
  8
0
 10
99.421166
 20
123.585397
 42
0.061084
  0
VERTEX
  8
0
 10
98.619286
 20
123.604145
 42
0.052220
  0
VERTEX
  8
0
 10
97.790997
 20
123.433665
 42
-0.057517
  0
VERTEX
  8
0
 10
96.909957
 20
123.262008
 42
-0.075361
  0
VERTEX
  8
0
 10
96.093129
 20
123.321679
 42
-0.086591
  0
VERTEX
  8
0
 10
95.419402
 20
123.603443
 42
-0.112562
  0
VERTEX
  8
0
 10
94.951370
 20
124.078686
 42
0.061589
  0
VERTEX
  8
0
 10
94.469106
 20
124.679227
 42
0.196906
  0
VERTEX
  8
0
 10
94.001740
 20
124.867168
 42
0.143853
  0
VERTEX
  8
0
 10
93.435417
 20
124.696786
 42
0.028692
  0
VERTEX
  8
0
 10
92.576215
 20
124.063253
 42
-0.173597
  0
VERTEX
  8
0
 10
91.770373
 20
123.770051
 42
-0.341471
  0
VERTEX
  8
0
 10
91.259258
 20
124.160968
 42
-0.060371
  0
VERTEX
  8
0
 10
91.039588
 20
125.729295
 42
-0.004641
  0
VERTEX
  8
0
 10
91.000000
 20
129.994187
 42
-0.005184
  0
VERTEX
  8
0
 10
91.046054
 20
134.435746
 42
-0.067326
  0
VERTEX
  8
0
 10
91.301043
 20
136.065654
 42
-0.250079
  0
VERTEX
  8
0
 10
91.913738
 20
136.685321
 42
-0.140088
  0
VERTEX
  8
0
 10
93.001380
 20
136.709890
 42
0.033809
  0
VERTEX
  8
0
 10
93.733252
 20
136.570513
 42
0.095442
  0
VERTEX
  8
0
 10
94.250238
 20
136.606613
 42
0.238295
  0
VERTEX
  8
0
 10
94.468510
 20
136.801120
 42
0.236417
  0
VERTEX
  8
0
 10
94.442363
 20
137.093259
 42
0.095554
  0
VERTEX
  8
0
 10
94.122626
 20
137.440555
 42
0.052741
  0
VERTEX
  8
0
 10
93.623294
 20
137.733645
 42
0.049897
  0
VERTEX
  8
0
 10
93.033747
 20
137.932740
 42
0.056553
  0
VERTEX
  8
0
 10
92.440983
 20
138.000000
 42
-0.154487
  0
VERTEX
  8
0
 10
91.850458
 20
138.186918
 42
-0.113414
  0
VERTEX
  8
0
 10
91.388519
 20
138.701201
 42
-0.082342
  0
VERTEX
  8
0
 10
91.095653
 20
139.524785
 42
-0.044365
  0
VERTEX
  8
0
 10
91.000000
 20
140.600694
 42
-0.047660
  0
VERTEX
  8
0
 10
91.144363
 20
142.111768
 42
-0.233599
  0
VERTEX
  8
0
 10
91.648173
 20
142.775236
 42
-0.125284
  0
VERTEX
  8
0
 10
92.709441
 20
143.004876
 42
-0.010799
  0
VERTEX
  8
0
 10
95.500000
 20
142.843488
 42
0.015733
  0
VERTEX
  8
0
 10
97.225294
 20
142.760779
 42
0.026241
  0
VERTEX
  8
0
 10
98.678125
 20
142.813151
 42
0.024645
  0
VERTEX
  8
0
 10
99.769415
 20
142.964471
 42
0.360427
  0
VERTEX
  8
0
 10
100.000000
 20
143.242794
 42
0.367658
  0
VERTEX
  8
0
 10
99.747646
 20
143.539594
 42
0.013357
  0
VERTEX
  8
0
 10
98.164062
 20
143.754380
 42
0.018813
  0
VERTEX
  8
0
 10
96.146274
 20
143.896822
 42
0.011372
  0
VERTEX
  8
0
 10
93.750000
 20
143.921053
 42
0.007776
  0
VERTEX
  8
0
 10
91.433531
 20
143.855752
 42
0.018104
  0
VERTEX
  8
0
 10
89.703125
 20
143.717133
 42
0.036991
  0
VERTEX
  8
0
 10
88.761862
 20
143.536022
 42
0.719217
  0
VERTEX
  8
0
 10
88.750000
 20
143.337719
 42
-0.224670
  0
VERTEX
  8
0
 10
89.314976
 20
142.725477
 42
-0.036926
  0
VERTEX
  8
0
 10
89.691225
 20
141.114578
 42
-0.028271
  0
VERTEX
  8
0
 10
89.928516
 20
138.728131
 42
-0.010645
  0
VERTEX
  8
0
 10
90.000000
 20
135.370977
 42
0.000000
  0
VERTEX
  8
0
 10
90.000000
 20
127.908620
 42
0.000000
  0
VERTEX
  8
0
 10
83.250000
 20
128.204310
 42
-0.007454
  0
VERTEX
  8
0
 10
79.156263
 20
128.444827
 42
-0.072927
  0
VERTEX
  8
0
 10
77.470294
 20
128.820406
 42
-0.175977
  0
VERTEX
  8
0
 10
76.614145
 20
129.561025
 42
-0.092483
  0
VERTEX
  8
0
 10
76.159206
 20
130.912109
 42
0.021104
  0
VERTEX
  8
0
 10
75.964886
 20
131.964685
 42
0.139750
  0
VERTEX
  8
0
 10
75.710034
 20
132.428472
 42
0.372844
  0
VERTEX
  8
0
 10
75.400590
 20
132.452308
 42
0.095372
  0
VERTEX
  8
0
 10
75.031774
 20
132.051411
 42
0.075452
  0
VERTEX
  8
0
 10
74.765761
 20
131.427383
 42
0.040040
  0
VERTEX
  8
0
 10
74.621342
 20
130.597508
 42
0.038716
  0
VERTEX
  8
0
 10
74.608087
 20
129.706153
 42
0.048351
  0
VERTEX
  8
0
 10
74.739199
 20
128.889302
 42
0.146540
  0
VERTEX
  8
0
 10
75.338944
 20
127.904002
 42
0.124047
  0
VERTEX
  8
0
 10
76.420921
 20
127.332202
 42
0.052233
  0
VERTEX
  8
0
 10
78.408461
 20
127.062313
 42
0.007648
  0
VERTEX
  8
0
 10
82.481794
 20
127.000000
 42
0.000000
  0
VERTEX
  8
0
 10
89.730325
 20
127.000000
 42
0.000000
  0
VERTEX
  8
0
 10
89.784040
 20
110.000000
 42
0.000000
  0
VERTEX
  8
0
 10
89.837755
 20
93.000000
 42
0.000000
  0
VERTEX
  8
0
 10
85.727748
 20
93.000000
 42
0.004987
  0
VERTEX
  8
0
 10
83.178251
 20
92.974572
 42
0.140083
  0
VERTEX
  8
0
 10
82.550755
 20
92.781632
 42
0.492325
  0
VERTEX
  8
0
 10
82.522363
 20
92.423729
 42
0.025908
  0
VERTEX
  8
0
 10
83.552536
 20
91.585243
 42
0.034832
  0
VERTEX
  8
0
 10
84.439225
 20
91.027186
 42
0.087449
  0
VERTEX
  8
0
 10
85.162386
 20
90.789426
 42
0.136881
  0
VERTEX
  8
0
 10
85.722316
 20
90.861991
 42
0.155299
  0
VERTEX
  8
0
 10
86.131863
 20
91.213358
 42
-0.106283
  0
VERTEX
  8
0
 10
86.463324
 20
91.558386
 42
-0.099372
  0
VERTEX
  8
0
 10
86.915197
 20
91.747088
 42
-0.096084
  0
VERTEX
  8
0
 10
87.417983
 20
91.750061
 42
-0.092237
  0
VERTEX
  8
0
 10
87.893448
 20
91.565853
 42
-0.254604
  0
VERTEX
  8
0
 10
88.929699
 20
89.750144
 42
-0.013672
  0
VERTEX
  8
0
 10
88.879300
 20
82.893621
 42
-0.012578
  0
VERTEX
  8
0
 10
88.469671
 20
76.057261
 42
-0.389531
  0
VERTEX
  8
0
 10
87.318493
 20
75.000000
 42
-0.078838
  0
VERTEX
  8
0
 10
86.814834
 20
75.079911
 42
-0.090746
  0
VERTEX
  8
0
 10
86.387307
 20
75.311086
 42
-0.100777
  0
VERTEX
  8
0
 10
86.101487
 20
75.655125
 42
-0.123713
  0
VERTEX
  8
0
 10
86.000000
 20
76.059017
 42
0.108972
  0
VERTEX
  8
0
 10
85.921712
 20
76.413961
 42
0.182303
  0
VERTEX
  8
0
 10
85.706250
 20
76.625400
 42
0.161196
  0
VERTEX
  8
0
 10
85.382100
 20
76.656512
 42
0.082592
  0
VERTEX
  8
0
 10
85.000000
 20
76.500000
 42
0.135722
  0
VERTEX
  8
0
 10
84.117398
 20
75.547690
 42
0.373032
  0
VERTEX
  8
0
 10
84.315659
 20
74.724913
 42
0.126994
  0
VERTEX
  8
0
 10
85.793502
 20
74.155765
 42
0.028752
  0
VERTEX
  8
0
 10
88.500000
 20
74.000000
 42
0.000000
  0
VERTEX
  8
0
 10
93.000000
 20
74.000000
 42
0.000000
  0
VERTEX
  8
0
 10
93.000000
 20
83.000000
 42
0.000000
  0
VERTEX
  8
0
 10
93.000000
 20
92.000000
 42
0.000000
  0
VERTEX
  8
0
 10
105.000000
 20
92.000000
 42
0.000000
  0
VERTEX
  8
0
 10
117.000000
 20
92.000000
 42
0.000000
  0
VERTEX
  8
0
 10
117.000000
 20
48.500000
 42
0.000000
  0
VERTEX
  8
0
 10
117.000000
 20
5.000000
 42
0.000000
  0
VERTEX
  8
0
 10
112.000000
 20
5.000000
 42
0.014467
  0
VERTEX
  8
0
 10
110.083166
 20
4.944526
 42
0.023727
  0
VERTEX
  8
0
 10
108.468750
 20
4.773882
 42
0.020377
  0
VERTEX
  8
0
 10
107.238932
 20
4.532893
 42
0.347153
  0
VERTEX
  8
0
 10
107.000000
 20
4.230236
 42
0.363154
  0
VERTEX
  8
0
 10
107.250102
 20
3.931302
 42
0.016066
  0
VERTEX
  8
0
 10
108.689063
 20
3.720755
 42
0.020781
  0
VERTEX
  8
0
 10
110.545469
 20
3.587605
 42
0.012568
  0
VERTEX
  8
0
 10
112.750000
 20
3.576780
 42
0.008530
  0
VERTEX
  8
0
 10
116.409444
 20
3.713286
 42
0.103271
  0
VERTEX
  8
0
 10
117.761688
 20
4.073239
 42
0.203951
  0
VERTEX
  8
0
 10
118.442683
 20
4.877748
 42
0.049814
  0
VERTEX
  8
0
 10
118.796274
 20
6.617482
 42
-0.047366
  0
VERTEX
  8
0
 10
119.146321
 20
8.383953
 42
-0.221574
  0
VERTEX
  8
0
 10
119.817183
 20
9.139056
 42
-0.104577
  0
VERTEX
  8
0
 10
121.154073
 20
9.409926
 42
-0.007134
  0
VERTEX
  8
0
 10
125.046274
 20
9.321329
 42
0.014976
  0
VERTEX
  8
0
 10
127.328823
 20
9.305176
 42
0.024749
  0
VERTEX
  8
0
 10
129.251093
 20
9.444516
 42
0.022067
  0
VERTEX
  8
0
 10
130.707076
 20
9.688416
 42
0.353932
  0
VERTEX
  8
0
 10
131.000000
 20
10.050392
 42
0.337353
  0
VERTEX
  8
0
 10
130.716787
 20
10.422378
 42
0.024684
  0
VERTEX
  8
0
 10
129.381043
 20
10.721053
 42
0.026461
  0
VERTEX
  8
0
 10
127.601408
 20
10.931517
 42
0.016203
  0
VERTEX
  8
0
 10
125.488656
 20
11.000000
 42
0.000000
  0
VERTEX
  8
0
 10
119.977311
 20
11.000000
 42
0.000000
  0
VERTEX
  8
0
 10
120.238656
 20
51.250000
 42
0.000000
  0
VERTEX
  8
0
 10
120.500000
 20
91.500000
 42
0.000000
  0
VERTEX
  8
0
 10
132.750000
 20
91.780779
 42
0.000000
  0
VERTEX
  8
0
 10
145.000000
 20
92.061558
 42
0.000000
  0
VERTEX
  8
0
 10
145.000000
 20
83.030779
 42
0.000000
  0
VERTEX
  8
0
 10
145.000000
 20
74.000000
 42
0.000000
  0
VERTEX
  8
0
 10
149.394213
 20
74.000000
 42
0.012650
  0
VERTEX
  8
0
 10
151.997202
 20
74.065864
 42
0.116571
  0
VERTEX
  8
0
 10
153.073753
 20
74.378568
 42
0.221301
  0
VERTEX
  8
0
 10
153.560097
 20
75.059191
 42
0.061267
  0
VERTEX
  8
0
 10
153.644213
 20
76.404041
 42
0.061666
  0
VERTEX
  8
0
 10
153.376952
 20
77.847404
 42
0.320896
  0
VERTEX
  8
0
 10
152.765577
 20
78.305930
 42
0.347281
  0
VERTEX
  8
0
 10
152.183753
 20
77.867252
 42
0.064152
  0
VERTEX
  8
0
 10
152.000000
 20
76.440983
 42
-0.103216
  0
VERTEX
  8
0
 10
151.885271
 20
75.891133
 42
-0.098834
  0
VERTEX
  8
0
 10
151.559375
 20
75.423289
 42
-0.096907
  0
VERTEX
  8
0
 10
151.072549
 20
75.109789
 42
-0.095012
  0
VERTEX
  8
0
 10
150.500000
 20
75.000000
 42
-0.085015
  0
VERTEX
  8
0
 10
149.946227
 20
75.094843
 42
-0.112004
  0
VERTEX
  8
0
 10
149.514063
 20
75.367188
 42
-0.124722
  0
VERTEX
  8
0
 10
149.271843
 20
75.773817
 42
-0.122220
  0
VERTEX
  8
0
 10
149.250000
 20
76.250000
 42
0.128584
  0
VERTEX
  8
0
 10
149.223342
 20
76.706194
 42
0.149582
  0
VERTEX
  8
0
 10
148.974902
 20
77.060828
 42
0.126385
  0
VERTEX
  8
0
 10
148.531039
 20
77.254430
 42
0.079645
  0
VERTEX
  8
0
 10
147.962432
 20
77.254946
 42
-0.117685
  0
VERTEX
  8
0
 10
147.334238
 20
77.302935
 42
-0.123862
  0
VERTEX
  8
0
 10
146.808943
 20
77.630081
 42
-0.105574
  0
VERTEX
  8
0
 10
146.443145
 20
78.217507
 42
-0.067954
  0
VERTEX
  8
0
 10
146.274581
 20
79.004946
 42
-0.078345
  0
VERTEX
  8
0
 10
146.381044
 20
80.313428
 42
-0.251800
  0
VERTEX
  8
0
 10
146.945373
 20
80.942880
 42
-0.299171
  0
VERTEX
  8
0
 10
147.688439
 20
80.765098
 42
-0.093026
  0
VERTEX
  8
0
 10
148.337719
 20
79.750000
 42
0.564275
  0
VERTEX
  8
0
 10
148.677183
 20
79.695289
 42
0.146251
  0
VERTEX
  8
0
 10
148.959099
 20
80.339209
 42
0.024002
  0
VERTEX
  8
0
 10
149.127457
 20
82.602982
 42
0.004491
  0
VERTEX
  8
0
 10
149.199262
 20
86.763461
 42
-0.034073
  0
VERTEX
  8
0
 10
149.419965
 20
89.646831
 42
-0.117784
  0
VERTEX
  8
0
 10
150.108167
 20
91.374873
 42
-0.330877
  0
VERTEX
  8
0
 10
151.059965
 20
91.688423
 42
-0.173032
  0
VERTEX
  8
0
 10
152.096491
 20
90.878115
 42
0.024191
  0
VERTEX
  8
0
 10
152.479381
 20
90.333747
 42
0.173309
  0
VERTEX
  8
0
 10
152.746507
 20
90.163943
 42
0.394045
  0
VERTEX
  8
0
 10
152.921476
 20
90.265921
 42
0.069953
  0
VERTEX
  8
0
 10
152.984687
 20
90.676676
 42
-0.131233
  0
VERTEX
  8
0
 10
153.120722
 20
91.160689
 42
-0.072387
  0
VERTEX
  8
0
 10
153.509564
 20
91.642042
 42
-0.064027
  0
VERTEX
  8
0
 10
154.079698
 20
92.048126
 42
-0.058922
  0
VERTEX
  8
0
 10
154.750000
 20
92.310674
 42
0.330021
  0
VERTEX
  8
0
 10
154.895265
 20
92.491176
 42
0.358861
  0
VERTEX
  8
0
 10
154.761330
 20
92.667734
 42
0.040501
  0
VERTEX
  8
0
 10
153.831491
 20
92.809948
 42
0.010749
  0
VERTEX
  8
0
 10
152.331122
 20
92.883999
 42
0.000000
  0
VERTEX
  8
0
 10
148.162245
 20
93.000000
 42
0.000000
  0
VERTEX
  8
0
 10
148.215960
 20
110.000000
 42
0.000000
  0
VERTEX
  8
0
 10
148.269675
 20
127.000000
 42
0.000000
  0
VERTEX
  8
0
 10
155.634838
 20
127.000000
 42
0.000000
  0
VERTEX
  8
0
 10
163.000000
 20
127.000000
 42
0.000000
  0
VERTEX
  8
0
 10
162.900320
 20
130.250000
 42
0.001929
  0
VERTEX
  8
0
 10
162.827757
 20
132.351329
 42
0.195960
  0
VERTEX
  8
0
 10
162.709260
 20
132.612878
 42
0.560572
  0
VERTEX
  8
0
 10
162.556824
 20
132.571762
 42
0.003865
  0
VERTEX
  8
0
 10
162.108669
 20
131.000000
 42
-0.082252
  0
VERTEX
  8
0
 10
161.460674
 20
129.602461
 42
-0.154024
  0
VERTEX
  8
0
 10
160.490976
 20
128.839171
 42
-0.071156
  0
VERTEX
  8
0
 10
158.737144
 20
128.448575
 42
-0.008253
  0
VERTEX
  8
0
 10
154.708349
 20
128.204310
 42
0.000000
  0
VERTEX
  8
0
 10
148.000000
 20
127.908620
 42
0.000000
  0
VERTEX
  8
0
 10
148.000000
 20
135.370977
 42
-0.010645
  0
VERTEX
  8
0
 10
148.071484
 20
138.728131
 42
-0.028271
  0
VERTEX
  8
0
 10
148.308775
 20
141.114578
 42
-0.036926
  0
VERTEX
  8
0
 10
148.685024
 20
142.725477
 42
-0.224670
  0
VERTEX
  8
0
 10
149.250000
 20
143.337719
 42
0.719217
  0
VERTEX
  8
0
 10
149.238138
 20
143.536022
 42
0.036991
  0
VERTEX
  8
0
 10
148.296875
 20
143.717133
 42
0.018104
  0
VERTEX
  8
0
 10
146.566469
 20
143.855752
 42
0.007776
  0
VERTEX
  8
0
 10
144.250000
 20
143.921053
 42
0.011263
  0
VERTEX
  8
0
 10
141.853713
 20
143.897342
 42
0.018636
  0
VERTEX
  8
0
 10
139.835907
 20
143.756497
 42
0.013123
  0
VERTEX
  8
0
 10
138.250479
 20
143.544056
 42
0.368208
  0
VERTEX
  8
0
 10
137.999898
 20
143.250000
 42
0.351298
  0
VERTEX
  8
0
 10
138.227846
 20
142.965522
 42
0.023859
  0
VERTEX
  8
0
 10
139.321731
 20
142.775606
 42
0.025859
  0
VERTEX
  8
0
 10
140.774669
 20
142.670100
 42
0.015648
  0
VERTEX
  8
0
 10
142.499898
 20
142.688234
 42
-0.011863
  0
VERTEX
  8
0
 10
145.201167
 20
142.737077
 42
-0.115001
  0
VERTEX
  8
0
 10
146.307890
 20
142.472520
 42
-0.220835
  0
VERTEX
  8
0
 10
146.836269
 20
141.808954
 42
-0.059513
  0
VERTEX
  8
0
 10
147.000000
 20
140.438234
 42
-0.050013
  0
VERTEX
  8
0
 10
146.900946
 20
139.450424
 42
-0.083666
  0
VERTEX
  8
0
 10
146.602251
 20
138.673016
 42
-0.110190
  0
VERTEX
  8
0
 10
146.138723
 20
138.178700
 42
-0.150633
  0
VERTEX
  8
0
 10
145.559017
 20
138.000000
 42
0.067829
  0
VERTEX
  8
0
 10
144.957074
 20
137.917964
 42
0.052389
  0
VERTEX
  8
0
 10
144.340325
 20
137.674779
 42
0.053437
  0
VERTEX
  8
0
 10
143.801877
 20
137.316564
 42
0.081030
  0
VERTEX
  8
0
 10
143.433788
 20
136.892866
 42
0.113869
  0
VERTEX
  8
0
 10
143.287857
 20
136.462349
 42
0.359143
  0
VERTEX
  8
0
 10
143.445308
 20
136.226959
 42
0.128686
  0
VERTEX
  8
0
 10
143.944965
 20
136.209117
 42
0.021768
  0
VERTEX
  8
0
 10
144.874771
 20
136.460254
 42
-0.113007
  0
VERTEX
  8
0
 10
146.062987
 20
136.558232
 42
-0.285580
  0
VERTEX
  8
0
 10
146.699557
 20
136.022994
 42
-0.074244
  0
VERTEX
  8
0
 10
146.957047
 20
134.496342
 42
-0.004719
  0
VERTEX
  8
0
 10
147.000000
 20
129.944943
 42
-0.004673
  0
VERTEX
  8
0
 10
146.960416
 20
125.709533
 42
-0.060861
  0
VERTEX
  8
0
 10
146.740679
 20
124.153210
 42
-0.342965
  0
VERTEX
  8
0
 10
146.230054
 20
123.766500
 42
-0.171685
  0
VERTEX
  8
0
 10
145.423785
 20
124.063253
 42
0.028692
  0
VERTEX
  8
0
 10
144.564583
 20
124.696786
 42
0.143853
  0
VERTEX
  8
0
 10
143.998260
 20
124.867168
 42
0.196906
  0
VERTEX
  8
0
 10
143.530894
 20
124.679227
 42
0.061589
  0
VERTEX
  8
0
 10
143.048630
 20
124.078686
 42
-0.112562
  0
VERTEX
  8
0
 10
142.580598
 20
123.603443
 42
-0.086591
  0
VERTEX
  8
0
 10
141.906871
 20
123.321679
 42
-0.075361
  0
VERTEX
  8
0
 10
141.090043
 20
123.262008
 42
-0.057517
  0
VERTEX
  8
0
 10
140.209003
 20
123.433665
 42
0.052220
  0
VERTEX
  8
0
 10
139.380714
 20
123.604145
 42
0.061084
  0
VERTEX
  8
0
 10
138.578834
 20
123.585397
 42
0.071205
  0
VERTEX
  8
0
 10
137.921884
 20
123.391097
 42
0.147938
  0
VERTEX
  8
0
 10
137.525140
 20
123.040677
 42
0.397499
  0
VERTEX
  8
0
 10
137.615277
 20
122.603041
 42
0.095169
  0
VERTEX
  8
0
 10
138.359425
 20
122.269643
 42
0.043664
  0
VERTEX
  8
0
 10
139.796312
 20
122.061034
 42
0.014226
  0
VERTEX
  8
0
 10
141.940983
 20
122.000000
 42
0.000000
  0
VERTEX
  8
0
 10
147.000000
 20
122.000000
 42
0.000000
  0
VERTEX
  8
0
 10
147.000000
 20
107.469221
 42
0.000000
  0
VERTEX
  8
0
 10
147.000000
 20
92.938442
 42
0.000000
  0
VERTEX
  8
0
 10
134.750000
 20
93.219221
 42
0.000000
  0
VERTEX
  8
0
 10
122.500000
 20
93.500000
 42
0.000000
  0
VERTEX
  8
0
 10
122.525183
 20
99.250000
 42
0.014476
  0
VERTEX
  8
0
 10
122.465505
 20
101.678309
 42
0.033938
  0
VERTEX
  8
0
 10
122.245827
 20
103.479381
 42
0.045355
  0
VERTEX
  8
0
 10
121.902998
 20
104.672190
 42
0.309412
  0
VERTEX
  8
0
 10
121.423982
 20
105.000000
 42
-0.296455
  0
VERTEX
  8
0
 10
120.956941
 20
105.303595
 42
-0.053931
  0
VERTEX
  8
0
 10
120.625993
 20
106.335917
 42
-0.038562
  0
VERTEX
  8
0
 10
120.428072
 20
107.906085
 42
-0.017143
  0
VERTEX
  8
0
 10
120.398799
 20
109.993836
 42
-0.010374
  0
VERTEX
  8
0
 10
120.525973
 20
113.093125
 42
-0.114621
  0
VERTEX
  8
0
 10
120.878598
 20
114.274775
 42
-0.215547
  0
VERTEX
  8
0
 10
121.640341
 20
114.827783
 42
-0.050320
  0
VERTEX
  8
0
 10
123.250000
 20
114.993836
 42
0.034571
  0
VERTEX
  8
0
 10
124.303303
 20
115.069123
 42
0.052618
  0
VERTEX
  8
0
 10
125.192188
 20
115.291939
 42
0.068485
  0
VERTEX
  8
0
 10
125.803344
 20
115.615968
 42
0.241151
  0
VERTEX
  8
0
 10
126.000000
 20
116.000000
 42
0.254951
  0
VERTEX
  8
0
 10
125.790443
 20
116.384262
 42
0.062710
  0
VERTEX
  8
0
 10
125.118750
 20
116.706250
 42
0.048861
  0
VERTEX
  8
0
 10
124.149251
 20
116.927234
 42
0.031626
  0
VERTEX
  8
0
 10
123.000000
 20
117.000000
 42
-0.030103
  0
VERTEX
  8
0
 10
121.386401
 20
117.097235
 42
-0.144586
  0
VERTEX
  8
0
 10
120.550000
 20
117.458333
 42
-0.173074
  0
VERTEX
  8
0
 10
120.126572
 20
118.175563
 42
-0.047675
  0
VERTEX
  8
0
 10
120.000000
 20
119.500000
 42
-0.063712
  0
VERTEX
  8
0
 10
120.181823
 20
120.921124
 42
-0.217674
  0
VERTEX
  8
0
 10
120.755902
 20
121.626458
 42
-0.105033
  0
VERTEX
  8
0
 10
121.976789
 20
121.937774
 42
-0.010093
  0
VERTEX
  8
0
 10
125.059017
 20
122.000000
 42
0.015665
  0
VERTEX
  8
0
 10
127.072946
 20
122.063113
 42
0.037731
  0
VERTEX
  8
0
 10
128.549167
 20
122.268257
 42
0.065240
  0
VERTEX
  8
0
 10
129.411590
 20
122.577023
 42
0.437688
  0
VERTEX
  8
0
 10
129.520244
 20
122.967245
 42
0.181872
  0
VERTEX
  8
0
 10
129.089494
 20
123.299768
 42
0.048422
  0
VERTEX
  8
0
 10
128.225019
 20
123.475755
 42
0.042531
  0
VERTEX
  8
0
 10
127.132043
 20
123.496582
 42
0.032871
  0
VERTEX
  8
0
 10
125.950419
 20
123.340084
 42
0.000000
  0
VERTEX
  8
0
 10
122.978386
 20
122.745677
 42
0.000000
  0
VERTEX
  8
0
 10
123.082686
 20
132.972616
 42
0.000000
  0
VERTEX
  8
0
 10
123.186987
 20
143.199555
 42
0.000000
  0
VERTEX
  8
0
 10
126.093494
 20
142.772970
 42
0.026408
  0
VERTEX
  8
0
 10
127.207603
 20
142.669144
 42
0.044268
  0
VERTEX
  8
0
 10
128.146214
 20
142.714570
 42
0.058115
  0
VERTEX
  8
0
 10
128.801792
 20
142.884019
 42
0.309818
  0
VERTEX
  8
0
 10
129.000000
 20
143.173193
 42
0.331201
  0
VERTEX
  8
0
 10
128.759536
 20
143.496390
 42
0.027448
  0
VERTEX
  8
0
 10
127.678125
 20
143.757125
 42
0.028150
  0
VERTEX
  8
0
 10
126.224994
 20
143.940344
 42
0.017286
  0
VERTEX
  8
0
 10
124.500000
 20
144.000000
 42
0.000000
  0
VERTEX
  8
0
 10
120.000000
 20
144.000000
 42
0.000000
  0
VERTEX
  8
0
 10
120.000000
 20
170.000000
 42
0.000000
  0
VERTEX
  8
0
 10
120.000000
 20
196.000000
 42
0.000000
  0
VERTEX
  8
0
 10
123.500000
 20
196.000000
 42
0.027026
  0
VERTEX
  8
0
 10
124.841111
 20
196.072542
 42
0.042582
  0
VERTEX
  8
0
 10
125.971875
 20
196.293750
 42
0.052312
  0
VERTEX
  8
0
 10
126.767902
 20
196.614308
 42
0.277684
  0
VERTEX
  8
0
 10
127.000000
 20
197.000000
 42
0.358912
  0
VERTEX
  8
0
 10
126.659026
 20
197.413821
 42
0.017020
  0
VERTEX
  8
0
 10
124.750000
 20
197.718750
 42
0.020476
  0
VERTEX
  8
0
 10
122.198174
 20
197.932089
 42
0.010616
  0
VERTEX
  8
0
 10
119.000000
 20
198.000000
 42
0.010616
  0
VERTEX
  8
0
 10
115.801826
 20
197.932089
 42
0.020476
  0
VERTEX
  8
0
 10
113.250000
 20
197.718750
 42
0.017020
  0
VERTEX
  8
0
 10
111.340974
 20
197.413821
 42
0.358912
  0
SEQEND
  0
POLYLINE
  8
0
 66
1
 70
1
  0
VERTEX
  8
0
 10
116.724731
 20
134.767909
 42
-0.069146
  0
VERTEX
  8
0
 10
116.574262
 20
134.205163
 42
-0.756877
  0
VERTEX
  8
0
 10
116.435944
 20
134.222448
 42
-0.031761
  0
VERTEX
  8
0
 10
116.337136
 20
135.352754
 42
-0.005499
  0
VERTEX
  8
0
 10
116.309869
 20
137.500000
 42
-0.005888
  0
VERTEX
  8
0
 10
116.331591
 20
139.655786
 42
-0.025342
  0
VERTEX
  8
0
 10
116.424528
 20
140.934948
 42
-0.556092
  0
VERTEX
  8
0
 10
116.565802
 20
141.000181
 42
-0.212532
  0
VERTEX
  8
0
 10
116.714526
 20
140.767909
 42
-0.024559
  0
VERTEX
  8
0
 10
116.845055
 20
139.487453
 42
-0.012695
  0
VERTEX
  8
0
 10
116.888655
 20
137.878422
 42
-0.012590
  0
VERTEX
  8
0
 10
116.849672
 20
136.218327
 42
-0.018638
  0
SEQEND
  0
POLYLINE
  8
0
 66
1
 70
1
  0
VERTEX
  8
0
 10
121.724731
 20
134.767909
 42
-0.069146
  0
VERTEX
  8
0
 10
121.574262
 20
134.205163
 42
-0.756877
  0
VERTEX
  8
0
 10
121.435944
 20
134.222448
 42
-0.031761
  0
VERTEX
  8
0
 10
121.337136
 20
135.352754
 42
-0.005499
  0
VERTEX
  8
0
 10
121.309869
 20
137.500000
 42
-0.005888
  0
VERTEX
  8
0
 10
121.331591
 20
139.655786
 42
-0.025342
  0
VERTEX
  8
0
 10
121.424528
 20
140.934948
 42
-0.556092
  0
VERTEX
  8
0
 10
121.565802
 20
141.000181
 42
-0.212532
  0
VERTEX
  8
0
 10
121.714526
 20
140.767909
 42
-0.024559
  0
VERTEX
  8
0
 10
121.845055
 20
139.487453
 42
-0.012695
  0
VERTEX
  8
0
 10
121.888655
 20
137.878422
 42
-0.012590
  0
VERTEX
  8
0
 10
121.849672
 20
136.218327
 42
-0.018638
  0
SEQEND
  0
POLYLINE
  8
0
 66
1
 70
1
  0
VERTEX
  8
0
 10
121.984687
 20
126.750000
 42
-0.014779
  0
VERTEX
  8
0
 10
121.929277
 20
125.079596
 42
-0.051833
  0
VERTEX
  8
0
 10
121.751311
 20
124.019260
 42
-0.212264
  0
VERTEX
  8
0
 10
121.477037
 20
123.685709
 42
-0.384870
  0
VERTEX
  8
0
 10
121.161294
 20
123.773261
 42
-0.134583
  0
VERTEX
  8
0
 10
120.745410
 20
125.127517
 42
-0.023226
  0
VERTEX
  8
0
 10
120.788884
 20
127.836004
 42
-0.018010
  0
VERTEX
  8
0
 10
121.053195
 20
130.510420
 42
-0.375339
  0
VERTEX
  8
0
 10
121.613499
 20
131.000000
 42
-0.379990
  0
VERTEX
  8
0
 10
121.767412
 20
130.863289
 42
-0.007782
  0
VERTEX
  8
0
 10
121.881967
 20
129.751563
 42
-0.014151
  0
VERTEX
  8
0
 10
121.962758
 20
128.379545
 42
-0.008530
  0
SEQEND
  0
POLYLINE
  8
0
 66
1
 70
1
  0
VERTEX
  8
0
 10
91.840217
 20
85.918904
 42
-0.019541
  0
VERTEX
  8
0
 10
91.507882
 20
82.539080
 42
-0.473367
  0
VERTEX
  8
0
 10
90.799393
 20
82.105213
 42
-0.300197
  0
VERTEX
  8
0
 10
90.124111
 20
82.988421
 42
-0.017374
  0
VERTEX
  8
0
 10
90.000000
 20
86.559017
 42
-0.016203
  0
VERTEX
  8
0
 10
90.061843
 20
88.466879
 42
-0.048432
  0
VERTEX
  8
0
 10
90.271694
 20
89.754185
 42
-0.107800
  0
VERTEX
  8
0
 10
90.605615
 20
90.406456
 42
-0.375390
  0
VERTEX
  8
0
 10
91.035725
 20
90.477921
 42
-0.177654
  0
VERTEX
  8
0
 10
91.422392
 20
89.985406
 42
-0.034834
  0
VERTEX
  8
0
 10
91.699281
 20
88.874663
 42
-0.033032
  0
VERTEX
  8
0
 10
91.852869
 20
87.466280
 42
-0.025385
  0
SEQEND
  0
POLYLINE
  8
0
 66
1
 70
1
  0
VERTEX
  8
0
 10
148.000000
 20
86.500000
 42
-0.016629
  0
VERTEX
  8
0
 10
147.942612
 20
84.774967
 42
-0.027127
  0
VERTEX
  8
0
 10
147.766289
 20
83.321875
 42
-0.025766
  0
VERTEX
  8
0
 10
147.515785
 20
82.234952
 42
-0.334933
  0
VERTEX
  8
0
 10
147.204387
 20
82.000000
 42
-0.368053
  0
VERTEX
  8
0
 10
146.553490
 20
82.554204
 42
-0.018960
  0
VERTEX
  8
0
 10
146.190478
 20
85.509664
 42
-0.024083
  0
VERTEX
  8
0
 10
146.081797
 20
88.515276
 42
-0.136224
  0
VERTEX
  8
0
 10
146.524970
 20
90.040403
 42
-0.100448
  0
VERTEX
  8
0
 10
147.209625
 20
90.769753
 42
-0.480840
  0
VERTEX
  8
0
 10
147.681898
 20
90.634136
 42
-0.089728
  0
VERTEX
  8
0
 10
147.946095
 20
89.428827
 42
-0.009202
  0
SEQEND
  0
POLYLINE
  8
0
 66
1
 70
1
  0
VERTEX
  8
0
 10
91.725047
 20
79.000000
 42
-0.037158
  0
VERTEX
  8
0
 10
91.609724
 20
78.234197
 42
-0.053734
  0
VERTEX
  8
0
 10
91.387408
 20
77.587500
 42
-0.068155
  0
VERTEX
  8
0
 10
91.099896
 20
77.143433
 42
-0.218405
  0
VERTEX
  8
0
 10
90.787196
 20
77.000000
 42
-0.229038
  0
VERTEX
  8
0
 10
90.485671
 20
77.145768
 42
-0.073935
  0
VERTEX
  8
0
 10
90.231239
 20
77.587500
 42
-0.056318
  0
VERTEX
  8
0
 10
90.057529
 20
78.234087
 42
-0.037503
  0
VERTEX
  8
0
 10
90.000000
 20
79.000000
 42
-0.044935
  0
VERTEX
  8
0
 10
90.068941
 20
79.765567
 42
-0.064806
  0
VERTEX
  8
0
 10
90.275494
 20
80.412500
 42
-0.084737
  0
VERTEX
  8
0
 10
90.579477
 20
80.849711
 42
-0.201195
  0
VERTEX
  8
0
 10
90.937851
 20
81.000000
 42
-0.210357
  0
VERTEX
  8
0
 10
91.284316
 20
80.847489
 42
-0.091879
  0
VERTEX
  8
0
 10
91.555953
 20
80.412500
 42
-0.067802
  0
VERTEX
  8
0
 10
91.713945
 20
79.765705
 42
-0.044872
  0
SEQEND
  0
POLYLINE
  8
0
 66
1
 70
1
  0
VERTEX
  8
0
 10
152.500000
 20
197.000000
 42
0.146547
  0
VERTEX
  8
0
 10
152.934161
 20
196.614422
 42
0.040338
  0
VERTEX
  8
0
 10
153.800400
 20
196.293750
 42
0.037109
  0
VERTEX
  8
0
 10
154.887885
 20
196.073612
 42
0.031397
  0
VERTEX
  8
0
 10
156.059017
 20
196.000000
 42
-0.107991
  0
VERTEX
  8
0
 10
158.154282
 20
195.542120
 42
-0.284999
  0
VERTEX
  8
0
 10
158.967599
 20
194.314770
 42
-0.155305
  0
VERTEX
  8
0
 10
158.399054
 20
192.324123
 42
-0.036572
  0
VERTEX
  8
0
 10
156.252096
 20
189.554719
 42
0.001129
  0
VERTEX
  8
0
 10
154.599585
 20
187.709331
 42
0.788989
  0
VERTEX
  8
0
 10
154.645970
 20
187.642671
 42
0.092270
  0
VERTEX
  8
0
 10
154.942243
 20
187.827237
 42
0.000582
  0
VERTEX
  8
0
 10
157.252096
 20
189.946167
 42
0.026686
  0
VERTEX
  8
0
 10
158.775220
 20
191.504547
 42
0.035753
  0
VERTEX
  8
0
 10
159.969337
 20
193.078195
 42
0.040851
  0
VERTEX
  8
0
 10
160.754880
 20
194.529933
 42
0.103955
  0
VERTEX
  8
0
 10
161.000000
 20
195.696167
 42
0.073059
  0
VERTEX
  8
0
 10
160.815003
 20
196.955491
 42
0.205619
  0
VERTEX
  8
0
 10
160.255279
 20
197.623666
 42
0.104598
  0
VERTEX
  8
0
 10
159.092507
 20
197.932328
 42
0.012759
  0
VERTEX
  8
0
 10
156.440983
 20
198.000000
 42
0.016966
  0
VERTEX
  8
0
 10
154.589239
 20
197.937148
 42
0.045191
  0
VERTEX
  8
0
 10
153.284665
 20
197.729054
 42
0.091154
  0
VERTEX
  8
0
 10
152.583647
 20
197.407294
 42
0.397171
  0
SEQEND
  0
POLYLINE
  8
0
 66
1
 70
1
  0
VERTEX
  8
0
 10
173.428702
 20
196.798558
 42
0.016746
  0
VERTEX
  8
0
 10
173.178590
 20
196.329530
 42
0.145908
  0
VERTEX
  8
0
 10
173.139852
 20
196.099215
 42
0.539115
  0
VERTEX
  8
0
 10
173.237981
 20
196.050748
 42
0.051532
  0
VERTEX
  8
0
 10
173.497665
 20
196.241324
 42
-0.120623
  0
VERTEX
  8
0
 10
173.893236
 20
196.455368
 42
-0.085994
  0
VERTEX
  8
0
 10
174.397212
 20
196.497971
 42
-0.078143
  0
VERTEX
  8
0
 10
174.930977
 20
196.365537
 42
-0.073520
  0
VERTEX
  8
0
 10
175.410826
 20
196.074008
 42
0.126141
  0
VERTEX
  8
0
 10
175.998531
 20
195.796057
 42
0.089481
  0
VERTEX
  8
0
 10
176.731099
 20
195.787027
 42
0.071667
  0
VERTEX
  8
0
 10
177.564543
 20
196.053313
 42
0.044788
  0
VERTEX
  8
0
 10
178.443964
 20
196.582684
 42
0.025876
  0
VERTEX
  8
0
 10
179.115201
 20
197.128951
 42
0.079863
  0
VERTEX
  8
0
 10
179.480327
 20
197.583663
 42
0.259322
  0
VERTEX
  8
0
 10
179.483023
 20
197.861508
 42
0.274884
  0
VERTEX
  8
0
 10
179.250147
 20
198.000000
 42
0.079883
  0
VERTEX
  8
0
 10
178.769107
 20
197.922653
 42
0.053415
  0
VERTEX
  8
0
 10
178.260229
 20
197.691986
 42
0.052536
  0
VERTEX
  8
0
 10
177.801767
 20
197.352571
 42
0.068848
  0
VERTEX
  8
0
 10
177.469989
 20
196.951442
 42
-0.099660
  0
VERTEX
  8
0
 10
177.097600
 20
196.553499
 42
-0.162543
  0
VERTEX
  8
0
 10
176.659782
 20
196.419205
 42
-0.122336
  0
VERTEX
  8
0
 10
176.135473
 20
196.563244
 42
-0.045320
  0
VERTEX
  8
0
 10
175.500000
 20
197.000000
 42
0.048145
  0
VERTEX
  8
0
 10
174.832284
 20
197.453395
 42
0.150430
  0
VERTEX
  8
0
 10
174.306204
 20
197.560953
 42
0.171929
  0
VERTEX
  8
0
 10
173.854893
 20
197.349873
 42
0.067453
  0
SEQEND
  0
POLYLINE
  8
0
 66
1
 70
1
  0
VERTEX
  8
0
 10
181.507079
 20
197.011454
 42
0.114400
  0
VERTEX
  8
0
 10
181.393111
 20
196.674071
 42
0.329480
  0
VERTEX
  8
0
 10
181.512472
 20
196.474315
 42
0.155351
  0
VERTEX
  8
0
 10
181.868281
 20
196.443138
 42
0.036408
  0
VERTEX
  8
0
 10
182.448062
 20
196.618443
 42
0.029964
  0
VERTEX
  8
0
 10
183.519970
 20
197.105273
 42
0.168622
  0
VERTEX
  8
0
 10
183.942608
 20
197.558518
 42
0.444011
  0
VERTEX
  8
0
 10
183.798253
 20
197.882327
 42
0.079093
  0
VERTEX
  8
0
 10
183.059017
 20
198.000000
 42
0.088797
  0
VERTEX
  8
0
 10
182.653950
 20
197.927491
 42
0.053277
  0
VERTEX
  8
0
 10
182.214980
 20
197.709615
 42
0.051183
  0
VERTEX
  8
0
 10
181.810572
 20
197.389589
 42
0.061454
  0
SEQEND
  0
POLYLINE
  8
0
 66
1
 70
1
  0
VERTEX
  8
0
 10
188.345077
 20
196.456872
 42
0.045168
  0
VERTEX
  8
0
 10
188.164704
 20
195.820352
 42
0.050128
  0
VERTEX
  8
0
 10
188.110032
 20
195.183873
 42
0.056457
  0
VERTEX
  8
0
 10
188.179658
 20
194.639794
 42
0.137182
  0
VERTEX
  8
0
 10
188.376461
 20
194.290205
 42
0.208648
  0
VERTEX
  8
0
 10
188.610988
 20
194.198159
 42
0.243994
  0
VERTEX
  8
0
 10
188.816836
 20
194.314935
 42
0.106677
  0
VERTEX
  8
0
 10
188.957153
 20
194.683705
 42
0.037777
  0
VERTEX
  8
0
 10
189.000000
 20
195.250000
 42
-0.072204
  0
VERTEX
  8
0
 10
189.093340
 20
195.892993
 42
-0.062877
  0
VERTEX
  8
0
 10
189.367188
 20
196.516393
 42
-0.065550
  0
VERTEX
  8
0
 10
189.772005
 20
197.026936
 42
-0.096788
  0
VERTEX
  8
0
 10
190.250000
 20
197.337719
 42
0.010270
  0
VERTEX
  8
0
 10
190.891230
 20
197.611907
 42
0.309320
  0
VERTEX
  8
0
 10
190.977820
 20
197.754345
 42
0.367180
  0
VERTEX
  8
0
 10
190.873211
 20
197.864951
 42
0.011982
  0
VERTEX
  8
0
 10
190.218615
 20
197.921053
 42
0.110280
  0
VERTEX
  8
0
 10
189.684501
 20
197.835877
 42
0.071509
  0
VERTEX
  8
0
 10
189.139692
 20
197.523515
 42
0.066477
  0
VERTEX
  8
0
 10
188.667271
 20
197.040853
 42
0.068987
  0
SEQEND
  0
POLYLINE
  8
0
 66
1
 70
1
  0
VERTEX
  8
0
 10
200.623940
 20
195.714286
 42
0.006197
  0
VERTEX
  8
0
 10
199.512349
 20
194.880134
 42
0.261955
  0
VERTEX
  8
0
 10
199.400148
 20
194.616404
 42
0.371588
  0
VERTEX
  8
0
 10
199.578160
 20
194.450871
 42
0.009385
  0
VERTEX
  8
0
 10
200.766144
 20
194.428571
 42
0.065856
  0
VERTEX
  8
0
 10
201.492678
 20
194.524681
 42
0.083125
  0
VERTEX
  8
0
 10
202.108388
 20
194.806250
 42
0.099193
  0
VERTEX
  8
0
 10
202.520210
 20
195.223982
 42
0.146162
  0
VERTEX
  8
0
 10
202.666667
 20
195.714286
 42
0.010379
  0
VERTEX
  8
0
 10
202.656433
 20
196.207238
 42
0.017162
  0
VERTEX
  8
0
 10
202.624894
 20
196.622321
 42
0.011234
  0
VERTEX
  8
0
 10
202.580960
 20
196.951650
 42
0.369485
  0
VERTEX
  8
0
 10
202.524463
 20
197.000000
 42
0.147703
  0
VERTEX
  8
0
 10
202.426780
 20
196.970500
 42
0.002053
  0
VERTEX
  8
0
 10
201.907525
 20
196.622321
 42
0.005548
  0
VERTEX
  8
0
 10
201.308131
 20
196.207060
 42
0.003599
  0
SEQEND
  0
POLYLINE
  8
0
 66
1
 70
1
  0
VERTEX
  8
0
 10
77.000000
 20
182.386501
 42
-0.035336
  0
VERTEX
  8
0
 10
76.896660
 20
180.926063
 42
-0.203387
  0
VERTEX
  8
0
 10
76.505147
 20
180.276730
 42
-0.171070
  0
VERTEX
  8
0
 10
75.719108
 20
180.043830
 42
-0.023735
  0
VERTEX
  8
0
 10
74.000000
 20
180.213308
 42
0.025568
  0
VERTEX
  8
0
 10
72.850015
 20
180.322426
 42
0.042928
  0
VERTEX
  8
0
 10
71.881250
 20
180.281400
 42
0.055623
  0
VERTEX
  8
0
 10
71.202007
 20
180.115710
 42
0.314934
  0
VERTEX
  8
0
 10
71.000000
 20
179.826807
 42
0.305011
  0
VERTEX
  8
0
 10
71.215749
 20
179.506035
 42
0.039541
  0
VERTEX
  8
0
 10
72.044220
 20
179.242875
 42
0.035216
  0
VERTEX
  8
0
 10
73.192369
 20
179.059796
 42
0.021934
  0
VERTEX
  8
0
 10
74.554791
 20
179.000000
 42
0.000000
  0
VERTEX
  8
0
 10
78.109582
 20
179.000000
 42
0.000000
  0
VERTEX
  8
0
 10
77.804791
 20
174.250000
 42
-0.013910
  0
VERTEX
  8
0
 10
77.545983
 20
171.441637
 42
-0.106113
  0
VERTEX
  8
0
 10
77.117114
 20
170.194236
 42
-0.175693
  0
VERTEX
  8
0
 10
76.305172
 20
169.537145
 42
-0.054549
  0
VERTEX
  8
0
 10
74.750000
 20
169.183578
 42
0.120294
  0
VERTEX
  8
0
 10
72.872817
 20
168.489840
 42
0.205639
  0
VERTEX
  8
0
 10
71.983685
 20
167.107969
 42
0.233410
  0
VERTEX
  8
0
 10
72.422407
 20
165.651056
 42
0.141920
  0
VERTEX
  8
0
 10
74.000000
 20
164.710251
 42
-0.083895
  0
VERTEX
  8
0
 10
74.889715
 20
164.309535
 42
-0.106161
  0
VERTEX
  8
0
 10
75.515278
 20
163.662715
 42
-0.091306
  0
VERTEX
  8
0
 10
75.880476
 20
162.735090
 42
-0.048274
  0
VERTEX
  8
0
 10
76.000000
 20
161.500000
 42
-0.048274
  0
VERTEX
  8
0
 10
75.880476
 20
160.264910
 42
-0.091306
  0
VERTEX
  8
0
 10
75.515278
 20
159.337285
 42
-0.106161
  0
VERTEX
  8
0
 10
74.889715
 20
158.690465
 42
-0.083895
  0
VERTEX
  8
0
 10
74.000000
 20
158.289749
 42
0.141920
  0
VERTEX
  8
0
 10
72.422407
 20
157.348944
 42
0.233410
  0
VERTEX
  8
0
 10
71.983685
 20
155.892031
 42
0.205639
  0
VERTEX
  8
0
 10
72.872817
 20
154.510160
 42
0.120294
  0
VERTEX
  8
0
 10
74.750000
 20
153.816422
 42
-0.048943
  0
VERTEX
  8
0
 10
76.317228
 20
153.478499
 42
-0.187385
  0
VERTEX
  8
0
 10
77.079271
 20
152.861446
 42
-0.116342
  0
VERTEX
  8
0
 10
77.424209
 20
151.697179
 42
-0.014098
  0
VERTEX
  8
0
 10
77.500000
 20
149.009821
 42
-0.015534
  0
VERTEX
  8
0
 10
77.416163
 20
146.312014
 42
-0.117255
  0
VERTEX
  8
0
 10
77.047252
 20
145.100468
 42
-0.168328
  0
VERTEX
  8
0
 10
76.228119
 20
144.398895
 42
-0.041037
  0
VERTEX
  8
0
 10
74.500000
 20
143.878135
 42
0.012685
  0
VERTEX
  8
0
 10
73.434864
 20
143.621956
 42
0.064230
  0
VERTEX
  8
0
 10
72.870833
 20
143.390317
 42
0.545446
  0
VERTEX
  8
0
 10
72.862090
 20
143.229000
 42
0.139748
  0
VERTEX
  8
0
 10
73.166667
 20
143.118315
 42
-0.065719
  0
VERTEX
  8
0
 10
73.841558
 20
142.980017
 42
-0.057312
  0
VERTEX
  8
0
 10
74.491913
 20
142.667567
 42
-0.060165
  0
VERTEX
  8
0
 10
75.021557
 20
142.237024
 42
-0.096430
  0
VERTEX
  8
0
 10
75.337719
 20
141.750000
 42
0.009076
  0
VERTEX
  8
0
 10
75.617987
 20
141.090194
 42
0.295955
  0
VERTEX
  8
0
 10
75.757018
 20
141.000000
 42
0.382689
  0
VERTEX
  8
0
 10
75.864758
 20
141.096611
 42
0.011437
  0
VERTEX
  8
0
 10
75.921053
 20
141.750000
 42
-0.194597
  0
VERTEX
  8
0
 10
76.153471
 20
142.234275
 42
-0.075084
  0
VERTEX
  8
0
 10
76.784622
 20
142.656003
 42
-0.059566
  0
VERTEX
  8
0
 10
77.691617
 20
142.956753
 42
-0.043149
  0
VERTEX
  8
0
 10
78.750000
 20
143.078947
 42
0.017437
  0
VERTEX
  8
0
 10
79.734045
 20
143.141588
 42
0.068218
  0
VERTEX
  8
0
 10
80.325000
 20
143.282867
 42
0.378789
  0
VERTEX
  8
0
 10
80.420113
 20
143.467484
 42
0.239112
  0
VERTEX
  8
0
 10
80.250000
 20
143.662281
 42
-0.277036
  0
VERTEX
  8
0
 10
79.601611
 20
144.520968
 42
-0.011640
  0
VERTEX
  8
0
 10
79.271482
 20
148.491332
 42
-0.012072
  0
VERTEX
  8
0
 10
79.057351
 20
154.514785
 42
-0.002848
  0
VERTEX
  8
0
 10
79.000000
 20
164.583333
 42
0.003527
  0
VERTEX
  8
0
 10
78.938696
 20
173.273804
 42
0.008708
  0
VERTEX
  8
0
 10
78.737755
 20
179.645833
 42
0.003865
  0
VERTEX
  8
0
 10
78.458391
 20
184.570218
 42
0.395475
  0
VERTEX
  8
0
 10
78.000000
 20
185.000000
 42
0.233510
  0
VERTEX
  8
0
 10
77.616780
 20
184.810707
 42
0.072064
  0
VERTEX
  8
0
 10
77.293750
 20
184.232285
 42
0.055003
  0
VERTEX
  8
0
 10
77.073022
 20
183.387420
 42
0.036429
  0
SEQEND
  0
POLYLINE
  8
0
 66
1
 70
1
  0
VERTEX
  8
0
 10
159.000000
 20
164.583333
 42
-0.002848
  0
VERTEX
  8
0
 10
158.942649
 20
154.514785
 42
-0.012072
  0
VERTEX
  8
0
 10
158.728518
 20
148.491332
 42
-0.011640
  0
VERTEX
  8
0
 10
158.398389
 20
144.520968
 42
-0.277036
  0
VERTEX
  8
0
 10
157.750000
 20
143.662281
 42
0.219293
  0
VERTEX
  8
0
 10
157.566336
 20
143.467298
 42
0.394769
  0
VERTEX
  8
0
 10
157.650521
 20
143.282867
 42
0.072443
  0
VERTEX
  8
0
 10
158.213971
 20
143.141409
 42
0.017938
  0
VERTEX
  8
0
 10
159.166667
 20
143.078947
 42
-0.042957
  0
VERTEX
  8
0
 10
160.224243
 20
142.956296
 42
-0.048922
  0
VERTEX
  8
0
 10
161.198163
 20
142.656003
 42
-0.055367
  0
VERTEX
  8
0
 10
161.954699
 20
142.235334
 42
-0.143262
  0
VERTEX
  8
0
 10
162.337719
 20
141.750000
 42
0.009076
  0
VERTEX
  8
0
 10
162.617987
 20
141.090194
 42
0.295955
  0
VERTEX
  8
0
 10
162.757018
 20
141.000000
 42
0.382689
  0
VERTEX
  8
0
 10
162.864758
 20
141.096611
 42
0.011437
  0
VERTEX
  8
0
 10
162.921053
 20
141.750000
 42
-0.130933
  0
VERTEX
  8
0
 10
163.084057
 20
142.236243
 42
-0.086374
  0
VERTEX
  8
0
 10
163.490872
 20
142.667567
 42
-0.076144
  0
VERTEX
  8
0
 10
164.075195
 20
142.979477
 42
-0.067808
  0
VERTEX
  8
0
 10
164.750000
 20
143.118315
 42
0.115038
  0
VERTEX
  8
0
 10
165.103002
 20
143.226188
 42
0.569172
  0
VERTEX
  8
0
 10
165.104688
 20
143.390317
 42
0.071080
  0
VERTEX
  8
0
 10
164.563635
 20
143.621790
 42
0.012919
  0
VERTEX
  8
0
 10
163.500000
 20
143.878135
 42
-0.041037
  0
VERTEX
  8
0
 10
161.771881
 20
144.398895
 42
-0.168328
  0
VERTEX
  8
0
 10
160.952748
 20
145.100468
 42
-0.117255
  0
VERTEX
  8
0
 10
160.583837
 20
146.312014
 42
-0.015534
  0
VERTEX
  8
0
 10
160.500000
 20
149.009821
 42
-0.014098
  0
VERTEX
  8
0
 10
160.575791
 20
151.697179
 42
-0.116342
  0
VERTEX
  8
0
 10
160.920729
 20
152.861446
 42
-0.187385
  0
VERTEX
  8
0
 10
161.682772
 20
153.478499
 42
-0.048943
  0
VERTEX
  8
0
 10
163.250000
 20
153.816422
 42
0.128134
  0
VERTEX
  8
0
 10
165.168048
 20
154.559125
 42
0.194677
  0
VERTEX
  8
0
 10
166.108391
 20
156.052573
 42
0.269203
  0
VERTEX
  8
0
 10
165.613527
 20
157.414388
 42
0.175857
  0
VERTEX
  8
0
 10
164.000000
 20
158.000000
 42
-0.087745
  0
VERTEX
  8
0
 10
162.997538
 20
158.177287
 42
-0.177212
  0
VERTEX
  8
0
 10
162.392857
 20
158.687500
 42
-0.107690
  0
VERTEX
  8
0
 10
162.082184
 20
159.675720
 42
-0.022514
  0
VERTEX
  8
0
 10
162.000000
 20
161.500000
 42
-0.022514
  0
VERTEX
  8
0
 10
162.082184
 20
163.324280
 42
-0.107690
  0
VERTEX
  8
0
 10
162.392857
 20
164.312500
 42
-0.177212
  0
VERTEX
  8
0
 10
162.997538
 20
164.822713
 42
-0.087745
  0
VERTEX
  8
0
 10
164.000000
 20
165.000000
 42
0.175857
  0
VERTEX
  8
0
 10
165.613527
 20
165.585612
 42
0.269203
  0
VERTEX
  8
0
 10
166.108391
 20
166.947427
 42
0.194677
  0
VERTEX
  8
0
 10
165.168048
 20
168.440875
 42
0.128134
  0
VERTEX
  8
0
 10
163.250000
 20
169.183578
 42
-0.054549
  0
VERTEX
  8
0
 10
161.694828
 20
169.537145
 42
-0.175693
  0
VERTEX
  8
0
 10
160.882886
 20
170.194236
 42
-0.106113
  0
VERTEX
  8
0
 10
160.454017
 20
171.441637
 42
-0.013910
  0
VERTEX
  8
0
 10
160.195209
 20
174.250000
 42
0.000000
  0
VERTEX
  8
0
 10
159.890418
 20
179.000000
 42
0.000000
  0
VERTEX
  8
0
 10
163.445209
 20
179.000000
 42
0.021934
  0
VERTEX
  8
0
 10
164.807631
 20
179.059796
 42
0.035216
  0
VERTEX
  8
0
 10
165.955780
 20
179.242875
 42
0.039541
  0
VERTEX
  8
0
 10
166.784251
 20
179.506035
 42
0.305011
  0
VERTEX
  8
0
 10
167.000000
 20
179.826807
 42
0.314934
  0
VERTEX
  8
0
 10
166.797993
 20
180.115710
 42
0.055623
  0
VERTEX
  8
0
 10
166.118750
 20
180.281400
 42
0.042928
  0
VERTEX
  8
0
 10
165.149985
 20
180.322426
 42
0.025568
  0
VERTEX
  8
0
 10
164.000000
 20
180.213308
 42
-0.023735
  0
VERTEX
  8
0
 10
162.280892
 20
180.043830
 42
-0.171070
  0
VERTEX
  8
0
 10
161.494853
 20
180.276730
 42
-0.203387
  0
VERTEX
  8
0
 10
161.103340
 20
180.926063
 42
-0.035336
  0
VERTEX
  8
0
 10
161.000000
 20
182.386501
 42
0.036429
  0
VERTEX
  8
0
 10
160.926978
 20
183.387420
 42
0.055003
  0
VERTEX
  8
0
 10
160.706250
 20
184.232285
 42
0.072064
  0
VERTEX
  8
0
 10
160.383220
 20
184.810707
 42
0.233510
  0
VERTEX
  8
0
 10
160.000000
 20
185.000000
 42
0.395475
  0
VERTEX
  8
0
 10
159.541609
 20
184.570218
 42
0.003865
  0
VERTEX
  8
0
 10
159.262245
 20
179.645833
 42
0.008708
  0
VERTEX
  8
0
 10
159.061304
 20
173.273804
 42
0.003527
  0
SEQEND
  0
POLYLINE
  8
0
 66
1
 70
1
  0
VERTEX
  8
0
 10
32.500000
 20
180.000000
 42
0.082592
  0
VERTEX
  8
0
 10
32.343488
 20
179.617900
 42
0.161196
  0
VERTEX
  8
0
 10
32.374600
 20
179.293750
 42
0.182303
  0
VERTEX
  8
0
 10
32.586039
 20
179.078288
 42
0.108972
  0
VERTEX
  8
0
 10
32.940983
 20
179.000000
 42
0.093332
  0
VERTEX
  8
0
 10
33.345238
 20
179.076123
 42
0.096420
  0
VERTEX
  8
0
 10
33.688914
 20
179.293750
 42
0.099167
  0
VERTEX
  8
0
 10
33.918938
 20
179.618444
 42
0.105053
  0
VERTEX
  8
0
 10
34.000000
 20
180.000000
 42
0.042167
  0
VERTEX
  8
0
 10
33.967655
 20
180.382849
 42
0.061769
  0
VERTEX
  8
0
 10
33.870461
 20
180.706250
 42
0.081139
  0
VERTEX
  8
0
 10
33.727648
 20
180.925540
 42
0.210953
  0
VERTEX
  8
0
 10
33.559017
 20
181.000000
 42
0.151918
  0
VERTEX
  8
0
 10
33.348290
 20
180.934461
 42
0.038439
  0
VERTEX
  8
0
 10
33.066025
 20
180.706250
 42
0.035638
  0
VERTEX
  8
0
 10
32.768994
 20
180.382774
 42
0.029505
  0
SEQEND
  0
POLYLINE
  8
0
 66
1
 70
1
  0
VERTEX
  8
0
 10
50.500000
 20
180.000000
 42
0.146489
  0
VERTEX
  8
0
 10
50.397987
 20
179.620597
 42
0.191582
  0
VERTEX
  8
0
 10
50.538811
 20
179.293750
 42
0.134005
  0
VERTEX
  8
0
 10
50.925364
 20
179.072951
 42
0.063222
  0
VERTEX
  8
0
 10
51.500000
 20
179.000000
 42
0.063222
  0
VERTEX
  8
0
 10
52.074636
 20
179.072951
 42
0.134005
  0
VERTEX
  8
0
 10
52.461189
 20
179.293750
 42
0.191582
  0
VERTEX
  8
0
 10
52.602013
 20
179.620597
 42
0.146489
  0
VERTEX
  8
0
 10
52.500000
 20
180.000000
 42
0.025622
  0
VERTEX
  8
0
 10
52.235369
 20
180.382847
 42
0.032351
  0
VERTEX
  8
0
 10
51.951311
 20
180.706250
 42
0.033983
  0
VERTEX
  8
0
 10
51.686704
 20
180.937141
 42
0.163822
  0
VERTEX
  8
0
 10
51.500000
 20
181.000000
 42
0.163822
  0
VERTEX
  8
0
 10
51.313296
 20
180.937141
 42
0.033983
  0
VERTEX
  8
0
 10
51.048689
 20
180.706250
 42
0.032351
  0
VERTEX
  8
0
 10
50.764631
 20
180.382847
 42
0.025622
  0
SEQEND
  0
POLYLINE
  8
0
 66
1
 70
1
  0
VERTEX
  8
0
 10
60.763644
 20
180.316531
 42
0.285261
  0
VERTEX
  8
0
 10
60.795551
 20
179.824156
 42
0.021573
  0
VERTEX
  8
0
 10
61.655683
 20
178.724117
 42
0.024591
  0
VERTEX
  8
0
 10
62.879032
 20
177.426438
 42
0.015861
  0
VERTEX
  8
0
 10
64.413508
 20
176.042164
 42
0.000000
  0
VERTEX
  8
0
 10
68.500000
 20
172.584328
 42
0.000000
  0
VERTEX
  8
0
 10
65.000000
 20
176.531133
 42
-0.001861
  0
VERTEX
  8
0
 10
63.647829
 20
178.067399
 42
-0.002819
  0
VERTEX
  8
0
 10
62.484102
 20
179.414785
 42
-0.001069
  0
VERTEX
  8
0
 10
61.493062
 20
180.580431
 42
-0.068455
  0
VERTEX
  8
0
 10
61.350136
 20
180.805500
 42
0.328806
  0
VERTEX
  8
0
 10
61.255558
 20
180.857953
 42
0.142450
  0
VERTEX
  8
0
 10
61.116034
 20
180.796985
 42
0.066782
  0
VERTEX
  8
0
 10
60.941883
 20
180.607198
 42
0.029521
  0
SEQEND
  0
POLYLINE
  8
0
 66
1
 70
1
  0
VERTEX
  8
0
 10
175.039496
 20
178.685317
 42
0.002395
  0
VERTEX
  8
0
 10
174.144030
 20
177.231823
 42
0.309533
  0
VERTEX
  8
0
 10
174.154662
 20
177.031388
 42
0.411206
  0
VERTEX
  8
0
 10
174.324869
 20
177.007890
 42
0.002934
  0
VERTEX
  8
0
 10
175.589345
 20
177.967032
 42
-0.001834
  0
VERTEX
  8
0
 10
176.344261
 20
178.542281
 42
-0.002474
  0
VERTEX
  8
0
 10
177.031726
 20
179.056831
 42
-0.001679
  0
VERTEX
  8
0
 10
177.611961
 20
179.483649
 42
-0.026773
  0
VERTEX
  8
0
 10
177.816531
 20
179.616897
 42
0.327052
  0
VERTEX
  8
0
 10
177.866267
 20
179.729835
 42
0.109435
  0
VERTEX
  8
0
 10
177.785582
 20
179.903311
 42
0.060835
  0
VERTEX
  8
0
 10
177.576641
 20
180.116699
 42
0.030217
  0
VERTEX
  8
0
 10
177.266683
 20
180.335181
 42
0.227730
  0
VERTEX
  8
0
 10
176.835618
 20
180.380937
 42
0.074011
  0
VERTEX
  8
0
 10
176.255065
 20
180.071407
 42
0.056450
  0
VERTEX
  8
0
 10
175.623948
 20
179.483041
 42
0.037696
  0
SEQEND
  0
POLYLINE
  8
0
 66
1
 70
1
  0
VERTEX
  8
0
 10
185.500000
 20
180.000000
 42
0.082592
  0
VERTEX
  8
0
 10
185.343488
 20
179.617900
 42
0.161196
  0
VERTEX
  8
0
 10
185.374600
 20
179.293750
 42
0.182303
  0
VERTEX
  8
0
 10
185.586039
 20
179.078288
 42
0.108972
  0
VERTEX
  8
0
 10
185.940983
 20
179.000000
 42
0.093332
  0
VERTEX
  8
0
 10
186.345238
 20
179.076123
 42
0.096420
  0
VERTEX
  8
0
 10
186.688914
 20
179.293750
 42
0.099167
  0
VERTEX
  8
0
 10
186.918938
 20
179.618444
 42
0.105053
  0
VERTEX
  8
0
 10
187.000000
 20
180.000000
 42
0.042167
  0
VERTEX
  8
0
 10
186.967655
 20
180.382849
 42
0.061769
  0
VERTEX
  8
0
 10
186.870461
 20
180.706250
 42
0.081139
  0
VERTEX
  8
0
 10
186.727648
 20
180.925540
 42
0.210953
  0
VERTEX
  8
0
 10
186.559017
 20
181.000000
 42
0.151918
  0
VERTEX
  8
0
 10
186.348290
 20
180.934461
 42
0.038439
  0
VERTEX
  8
0
 10
186.066025
 20
180.706250
 42
0.035638
  0
VERTEX
  8
0
 10
185.768994
 20
180.382774
 42
0.029505
  0
SEQEND
  0
POLYLINE
  8
0
 66
1
 70
1
  0
VERTEX
  8
0
 10
203.500000
 20
180.000000
 42
0.146489
  0
VERTEX
  8
0
 10
203.397987
 20
179.620597
 42
0.191582
  0
VERTEX
  8
0
 10
203.538811
 20
179.293750
 42
0.134005
  0
VERTEX
  8
0
 10
203.925364
 20
179.072951
 42
0.063222
  0
VERTEX
  8
0
 10
204.500000
 20
179.000000
 42
0.063222
  0
VERTEX
  8
0
 10
205.074636
 20
179.072951
 42
0.134005
  0
VERTEX
  8
0
 10
205.461189
 20
179.293750
 42
0.191582
  0
VERTEX
  8
0
 10
205.602013
 20
179.620597
 42
0.146489
  0
VERTEX
  8
0
 10
205.500000
 20
180.000000
 42
0.025622
  0
VERTEX
  8
0
 10
205.235369
 20
180.382847
 42
0.032351
  0
VERTEX
  8
0
 10
204.951311
 20
180.706250
 42
0.033983
  0
VERTEX
  8
0
 10
204.686704
 20
180.937141
 42
0.163822
  0
VERTEX
  8
0
 10
204.500000
 20
181.000000
 42
0.163822
  0
VERTEX
  8
0
 10
204.313296
 20
180.937141
 42
0.033983
  0
VERTEX
  8
0
 10
204.048689
 20
180.706250
 42
0.032351
  0
VERTEX
  8
0
 10
203.764631
 20
180.382847
 42
0.025622
  0
SEQEND
  0
POLYLINE
  8
0
 66
1
 70
1
  0
VERTEX
  8
0
 10
213.510081
 20
180.016312
 42
0.080893
  0
VERTEX
  8
0
 10
213.349448
 20
179.627895
 42
0.159256
  0
VERTEX
  8
0
 10
213.377561
 20
179.298542
 42
0.183522
  0
VERTEX
  8
0
 10
213.587109
 20
179.079835
 42
0.111402
  0
VERTEX
  8
0
 10
213.940983
 20
179.000000
 42
-0.269420
  0
VERTEX
  8
0
 10
214.348842
 20
178.763029
 42
-0.056132
  0
VERTEX
  8
0
 10
214.688914
 20
177.971875
 42
-0.044842
  0
VERTEX
  8
0
 10
214.923096
 20
176.841003
 42
-0.028651
  0
VERTEX
  8
0
 10
215.000000
 20
175.500000
 42
0.020908
  0
VERTEX
  8
0
 10
215.056121
 20
174.158520
 42
0.033683
  0
VERTEX
  8
0
 10
215.228075
 20
173.028125
 42
0.036873
  0
VERTEX
  8
0
 10
215.474759
 20
172.207506
 42
0.310726
  0
VERTEX
  8
0
 10
215.776426
 20
172.000000
 42
0.422526
  0
VERTEX
  8
0
 10
216.364135
 20
172.604580
 42
0.016702
  0
VERTEX
  8
0
 10
216.153646
 20
176.011758
 42
0.018501
  0
VERTEX
  8
0
 10
215.699315
 20
179.431044
 42
0.215267
  0
VERTEX
  8
0
 10
214.963465
 20
180.522580
 42
0.122376
  0
VERTEX
  8
0
 10
214.600380
 20
180.638899
 42
0.100760
  0
VERTEX
  8
0
 10
214.196110
 20
180.584257
 42
0.091183
  0
VERTEX
  8
0
 10
213.812318
 20
180.366010
 42
0.079744
  0
SEQEND
  0
POLYLINE
  8
0
 66
1
 70
1
  0
VERTEX
  8
0
 10
22.160037
 20
175.750000
 42
0.000576
  0
VERTEX
  8
0
 10
22.273088
 20
172.836989
 42
0.154680
  0
VERTEX
  8
0
 10
22.357333
 20
172.603935
 42
0.670856
  0
VERTEX
  8
0
 10
22.451445
 20
172.629454
 42
0.001028
  0
VERTEX
  8
0
 10
22.741390
 20
174.991262
 42
-0.027921
  0
VERTEX
  8
0
 10
22.988653
 20
176.382251
 42
-0.031867
  0
VERTEX
  8
0
 10
23.382234
 20
177.675346
 42
-0.033608
  0
VERTEX
  8
0
 10
23.852623
 20
178.710924
 42
-0.128366
  0
VERTEX
  8
0
 10
24.331352
 20
179.225949
 42
0.052457
  0
VERTEX
  8
0
 10
24.742249
 20
179.552414
 42
0.378798
  0
VERTEX
  8
0
 10
24.758609
 20
179.784420
 42
0.205273
  0
VERTEX
  8
0
 10
24.477406
 20
179.942483
 42
0.024608
  0
VERTEX
  8
0
 10
23.750000
 20
179.984687
 42
0.130140
  0
VERTEX
  8
0
 10
22.890892
 20
179.765253
 42
0.177510
  0
VERTEX
  8
0
 10
22.374083
 20
179.164634
 42
0.083994
  0
VERTEX
  8
0
 10
22.144800
 20
177.982523
 42
0.015408
  0
SEQEND
  0
POLYLINE
  8
0
 66
1
 70
1
  0
VERTEX
  8
0
 10
96.000000
 20
171.000000
 42
0.011213
  0
VERTEX
  8
0
 10
95.169589
 20
170.436556
 42
0.309569
  0
VERTEX
  8
0
 10
95.083458
 20
170.201904
 42
0.327416
  0
VERTEX
  8
0
 10
95.271084
 20
170.047261
 42
0.011938
  0
VERTEX
  8
0
 10
96.250000
 20
170.015313
 42
0.055234
  0
VERTEX
  8
0
 10
96.919445
 20
170.083567
 42
0.075283
  0
VERTEX
  8
0
 10
97.485938
 20
170.298248
 42
0.095191
  0
VERTEX
  8
0
 10
97.865757
 20
170.619685
 42
0.171310
  0
VERTEX
  8
0
 10
98.000000
 20
171.000000
 42
0.042895
  0
VERTEX
  8
0
 10
97.938046
 20
171.720828
 42
0.364836
  0
VERTEX
  8
0
 10
97.707705
 20
171.914708
 42
0.137048
  0
VERTEX
  8
0
 10
97.262820
 20
171.790433
 42
0.007234
  0
SEQEND
  0
POLYLINE
  8
0
 66
1
 70
1
  0
VERTEX
  8
0
 10
99.000000
 20
171.106989
 42
0.148172
  0
VERTEX
  8
0
 10
99.117443
 20
170.719384
 42
0.058677
  0
VERTEX
  8
0
 10
99.482174
 20
170.291272
 42
0.051260
  0
VERTEX
  8
0
 10
100.013435
 20
169.891147
 42
0.044200
  0
VERTEX
  8
0
 10
100.641444
 20
169.584097
 42
0.012731
  0
VERTEX
  8
0
 10
101.541716
 20
169.264678
 42
0.389672
  0
VERTEX
  8
0
 10
101.741192
 20
169.355597
 42
0.270710
  0
VERTEX
  8
0
 10
101.707299
 20
169.617386
 42
0.008807
  0
VERTEX
  8
0
 10
101.018999
 20
170.477108
 42
0.017238
  0
VERTEX
  8
0
 10
100.053128
 20
171.562498
 42
0.127361
  0
VERTEX
  8
0
 10
99.469452
 20
171.925000
 42
0.389178
  0
VERTEX
  8
0
 10
99.129499
 20
171.765008
 42
0.097466
  0
SEQEND
  0
POLYLINE
  8
0
 66
1
 70
1
  0
VERTEX
  8
0
 10
137.000000
 20
170.968615
 42
0.152681
  0
VERTEX
  8
0
 10
137.115494
 20
170.599211
 42
0.098158
  0
VERTEX
  8
0
 10
137.440625
 20
170.284531
 42
0.080880
  0
VERTEX
  8
0
 10
137.926468
 20
170.072230
 42
0.062722
  0
VERTEX
  8
0
 10
138.500000
 20
170.000000
 42
0.024748
  0
VERTEX
  8
0
 10
139.074824
 20
170.028469
 42
0.039339
  0
VERTEX
  8
0
 10
139.559375
 20
170.115447
 42
0.046727
  0
VERTEX
  8
0
 10
139.903916
 20
170.241071
 42
0.289661
  0
VERTEX
  8
0
 10
140.000000
 20
170.393011
 42
0.222225
  0
VERTEX
  8
0
 10
139.912889
 20
170.579329
 42
0.030693
  0
VERTEX
  8
0
 10
139.559375
 20
170.839659
 42
0.030395
  0
VERTEX
  8
0
 10
139.074558
 20
171.112506
 42
0.021360
  0
VERTEX
  8
0
 10
138.500000
 20
171.361626
 42
0.055937
  0
VERTEX
  8
0
 10
137.925634
 20
171.511135
 42
0.100118
  0
VERTEX
  8
0
 10
137.440625
 20
171.483616
 42
0.147206
  0
VERTEX
  8
0
 10
137.122486
 20
171.289193
 42
0.184534
  0
SEQEND
  0
POLYLINE
  8
0
 66
1
 70
1
  0
VERTEX
  8
0
 10
141.000000
 20
170.666667
 42
0.110531
  0
VERTEX
  8
0
 10
141.113835
 20
170.158010
 42
0.099964
  0
VERTEX
  8
0
 10
141.435961
 20
169.725000
 42
0.094873
  0
VERTEX
  8
0
 10
141.917474
 20
169.434565
 42
0.088623
  0
VERTEX
  8
0
 10
142.484124
 20
169.333333
 42
0.046192
  0
VERTEX
  8
0
 10
143.161164
 20
169.396015
 42
0.284908
  0
VERTEX
  8
0
 10
143.408272
 20
169.621532
 42
0.216160
  0
VERTEX
  8
0
 10
143.350913
 20
170.001500
 42
0.029290
  0
VERTEX
  8
0
 10
142.861679
 20
170.666667
 42
0.015561
  0
VERTEX
  8
0
 10
142.410313
 20
171.177323
 42
0.020979
  0
VERTEX
  8
0
 10
141.969258
 20
171.608333
 42
0.018608
  0
VERTEX
  8
0
 10
141.583580
 20
171.929718
 42
0.165873
  0
VERTEX
  8
0
 10
141.377555
 20
172.000000
 42
0.278952
  0
VERTEX
  8
0
 10
141.231901
 20
171.911882
 42
0.051723
  0
VERTEX
  8
0
 10
141.110907
 20
171.608333
 42
0.042237
  0
VERTEX
  8
0
 10
141.027384
 20
171.177572
 42
0.026780
  0
SEQEND
  0
POLYLINE
  8
0
 66
1
 70
1
  0
VERTEX
  8
0
 10
132.000000
 20
164.000000
 42
0.105053
  0
VERTEX
  8
0
 10
132.081062
 20
163.618444
 42
0.099167
  0
VERTEX
  8
0
 10
132.311086
 20
163.293750
 42
0.096420
  0
VERTEX
  8
0
 10
132.654762
 20
163.076123
 42
0.093332
  0
VERTEX
  8
0
 10
133.059017
 20
163.000000
 42
0.108972
  0
VERTEX
  8
0
 10
133.413961
 20
163.078288
 42
0.182303
  0
VERTEX
  8
0
 10
133.625400
 20
163.293750
 42
0.161196
  0
VERTEX
  8
0
 10
133.656512
 20
163.617900
 42
0.082592
  0
VERTEX
  8
0
 10
133.500000
 20
164.000000
 42
0.029505
  0
VERTEX
  8
0
 10
133.231006
 20
164.382774
 42
0.035638
  0
VERTEX
  8
0
 10
132.933975
 20
164.706250
 42
0.038439
  0
VERTEX
  8
0
 10
132.651710
 20
164.934461
 42
0.151918
  0
VERTEX
  8
0
 10
132.440983
 20
165.000000
 42
0.210953
  0
VERTEX
  8
0
 10
132.272352
 20
164.925540
 42
0.081139
  0
VERTEX
  8
0
 10
132.129539
 20
164.706250
 42
0.061769
  0
VERTEX
  8
0
 10
132.032345
 20
164.382849
 42
0.042167
  0
SEQEND
  0
POLYLINE
  8
0
 66
1
 70
1
  0
VERTEX
  8
0
 10
184.503720
 20
164.080061
 42
-0.031252
  0
VERTEX
  8
0
 10
184.840997
 20
163.405299
 42
-0.315478
  0
VERTEX
  8
0
 10
184.778946
 20
163.114391
 42
-0.260391
  0
VERTEX
  8
0
 10
184.460656
 20
163.036504
 42
-0.024236
  0
VERTEX
  8
0
 10
183.664045
 20
163.298676
 42
0.043410
  0
VERTEX
  8
0
 10
183.026257
 20
163.481828
 42
0.080282
  0
VERTEX
  8
0
 10
182.488813
 20
163.499385
 42
0.129328
  0
VERTEX
  8
0
 10
182.135849
 20
163.356442
 42
0.236459
  0
VERTEX
  8
0
 10
182.000000
 20
163.085247
 42
0.179373
  0
VERTEX
  8
0
 10
182.134233
 20
162.723114
 42
0.060702
  0
VERTEX
  8
0
 10
182.556273
 20
162.338064
 42
0.051093
  0
VERTEX
  8
0
 10
183.168927
 20
161.990329
 42
0.039614
  0
VERTEX
  8
0
 10
183.893696
 20
161.738050
 42
0.151005
  0
VERTEX
  8
0
 10
184.992573
 20
161.786397
 42
0.259401
  0
VERTEX
  8
0
 10
185.580127
 20
162.457023
 42
0.176443
  0
VERTEX
  8
0
 10
185.425828
 20
163.572638
 42
0.086648
  0
VERTEX
  8
0
 10
184.535286
 20
164.721056
 42
0.058450
  0
VERTEX
  8
0
 10
184.271217
 20
164.910204
 42
0.554901
  0
VERTEX
  8
0
 10
184.172210
 20
164.855032
 42
0.128503
  0
VERTEX
  8
0
 10
184.226818
 20
164.594226
 42
0.016002
  0
SEQEND
  0
POLYLINE
  8
0
 66
1
 70
1
  0
VERTEX
  8
0
 10
193.503720
 20
164.080061
 42
-0.031252
  0
VERTEX
  8
0
 10
193.840997
 20
163.405299
 42
-0.315478
  0
VERTEX
  8
0
 10
193.778946
 20
163.114391
 42
-0.260391
  0
VERTEX
  8
0
 10
193.460656
 20
163.036504
 42
-0.024236
  0
VERTEX
  8
0
 10
192.664045
 20
163.298676
 42
0.055803
  0
VERTEX
  8
0
 10
191.982508
 20
163.476275
 42
0.125109
  0
VERTEX
  8
0
 10
191.454390
 20
163.420353
 42
0.174033
  0
VERTEX
  8
0
 10
191.124070
 20
163.142671
 42
0.132555
  0
VERTEX
  8
0
 10
191.000000
 20
162.682901
 42
0.148090
  0
VERTEX
  8
0
 10
191.144852
 20
162.204558
 42
0.098910
  0
VERTEX
  8
0
 10
191.552269
 20
161.797031
 42
0.082461
  0
VERTEX
  8
0
 10
192.161311
 20
161.522267
 42
0.064904
  0
VERTEX
  8
0
 10
192.880066
 20
161.428571
 42
0.138856
  0
VERTEX
  8
0
 10
193.962630
 20
161.735123
 42
0.208563
  0
VERTEX
  8
0
 10
194.514980
 20
162.529350
 42
0.167291
  0
VERTEX
  8
0
 10
194.365732
 20
163.627570
 42
0.091724
  0
VERTEX
  8
0
 10
193.535286
 20
164.721056
 42
0.058450
  0
VERTEX
  8
0
 10
193.271217
 20
164.910204
 42
0.554901
  0
VERTEX
  8
0
 10
193.172210
 20
164.855032
 42
0.128503
  0
VERTEX
  8
0
 10
193.226818
 20
164.594226
 42
0.016002
  0
SEQEND
  0
POLYLINE
  8
0
 66
1
 70
1
  0
VERTEX
  8
0
 10
49.000000
 20
162.785714
 42
0.177669
  0
VERTEX
  8
0
 10
49.110023
 20
162.485859
 42
0.092326
  0
VERTEX
  8
0
 10
49.423289
 20
162.230804
 42
0.072414
  0
VERTEX
  8
0
 10
49.889664
 20
162.058116
 42
0.052560
  0
VERTEX
  8
0
 10
50.440983
 20
162.000000
 42
0.049465
  0
VERTEX
  8
0
 10
51.028204
 20
162.058236
 42
0.047420
  0
VERTEX
  8
0
 10
51.601322
 20
162.230804
 42
0.051141
  0
VERTEX
  8
0
 10
52.077588
 20
162.484489
 42
0.106803
  0
VERTEX
  8
0
 10
52.367564
 20
162.785714
 42
0.251349
  0
VERTEX
  8
0
 10
52.385718
 20
163.082567
 42
0.161426
  0
VERTEX
  8
0
 10
52.144585
 20
163.340625
 42
0.085489
  0
VERTEX
  8
0
 10
51.631456
 20
163.515602
 42
0.039538
  0
VERTEX
  8
0
 10
50.926581
 20
163.571429
 42
0.038900
  0
VERTEX
  8
0
 10
50.188845
 20
163.513946
 42
0.057994
  0
VERTEX
  8
0
 10
49.565933
 20
163.340625
 42
0.076248
  0
VERTEX
  8
0
 10
49.141450
 20
163.086501
 42
0.223398
  0
SEQEND
  0
POLYLINE
  8
0
 66
1
 70
1
  0
VERTEX
  8
0
 10
54.812500
 20
163.316886
 42
0.051402
  0
VERTEX
  8
0
 10
55.359369
 20
163.160852
 42
0.054150
  0
VERTEX
  8
0
 10
55.916927
 20
163.123424
 42
0.060344
  0
VERTEX
  8
0
 10
56.402231
 20
163.202593
 42
0.126455
  0
VERTEX
  8
0
 10
56.729167
 20
163.395833
 42
0.296942
  0
VERTEX
  8
0
 10
56.775380
 20
163.614691
 42
0.208169
  0
VERTEX
  8
0
 10
56.592839
 20
163.799335
 42
0.077125
  0
VERTEX
  8
0
 10
56.112848
 20
163.910055
 42
0.028489
  0
VERTEX
  8
0
 10
55.416667
 20
163.921053
 42
0.018894
  0
VERTEX
  8
0
 10
54.670344
 20
163.862007
 42
0.168741
  0
VERTEX
  8
0
 10
54.378580
 20
163.720685
 42
0.470617
  0
VERTEX
  8
0
 10
54.395823
 20
163.538436
 42
0.054073
  0
SEQEND
  0
POLYLINE
  8
0
 66
1
 70
1
  0
VERTEX
  8
0
 10
196.812500
 20
163.316886
 42
0.051402
  0
VERTEX
  8
0
 10
197.359369
 20
163.160852
 42
0.054150
  0
VERTEX
  8
0
 10
197.916927
 20
163.123424
 42
0.060344
  0
VERTEX
  8
0
 10
198.402231
 20
163.202593
 42
0.126455
  0
VERTEX
  8
0
 10
198.729167
 20
163.395833
 42
0.296942
  0
VERTEX
  8
0
 10
198.775380
 20
163.614691
 42
0.208169
  0
VERTEX
  8
0
 10
198.592839
 20
163.799335
 42
0.077125
  0
VERTEX
  8
0
 10
198.112848
 20
163.910055
 42
0.028489
  0
VERTEX
  8
0
 10
197.416667
 20
163.921053
 42
0.018894
  0
VERTEX
  8
0
 10
196.670344
 20
163.862007
 42
0.168741
  0
VERTEX
  8
0
 10
196.378580
 20
163.720685
 42
0.470617
  0
VERTEX
  8
0
 10
196.395823
 20
163.538436
 42
0.054073
  0
SEQEND
  0
POLYLINE
  8
0
 66
1
 70
1
  0
VERTEX
  8
0
 10
40.000000
 20
162.606989
 42
0.222225
  0
VERTEX
  8
0
 10
40.087111
 20
162.420671
 42
0.030693
  0
VERTEX
  8
0
 10
40.440625
 20
162.160341
 42
0.030395
  0
VERTEX
  8
0
 10
40.925442
 20
161.887494
 42
0.021360
  0
VERTEX
  8
0
 10
41.500000
 20
161.638374
 42
0.055937
  0
VERTEX
  8
0
 10
42.074366
 20
161.488865
 42
0.100118
  0
VERTEX
  8
0
 10
42.559375
 20
161.516384
 42
0.147206
  0
VERTEX
  8
0
 10
42.877514
 20
161.710807
 42
0.184534
  0
VERTEX
  8
0
 10
43.000000
 20
162.031385
 42
0.152681
  0
VERTEX
  8
0
 10
42.884506
 20
162.400789
 42
0.098158
  0
VERTEX
  8
0
 10
42.559375
 20
162.715469
 42
0.080880
  0
VERTEX
  8
0
 10
42.073532
 20
162.927770
 42
0.062722
  0
VERTEX
  8
0
 10
41.500000
 20
163.000000
 42
0.024748
  0
VERTEX
  8
0
 10
40.925176
 20
162.971531
 42
0.039339
  0
VERTEX
  8
0
 10
40.440625
 20
162.884553
 42
0.046727
  0
VERTEX
  8
0
 10
40.096084
 20
162.758929
 42
0.289661
  0
SEQEND
  0
POLYLINE
  8
0
 66
1
 70
1
  0
VERTEX
  8
0
 10
177.000000
 20
157.000000
 42
0.105053
  0
VERTEX
  8
0
 10
177.081062
 20
156.618444
 42
0.099167
  0
VERTEX
  8
0
 10
177.311086
 20
156.293750
 42
0.096420
  0
VERTEX
  8
0
 10
177.654762
 20
156.076123
 42
0.093332
  0
VERTEX
  8
0
 10
178.059017
 20
156.000000
 42
0.108972
  0
VERTEX
  8
0
 10
178.413961
 20
156.078288
 42
0.182303
  0
VERTEX
  8
0
 10
178.625400
 20
156.293750
 42
0.161196
  0
VERTEX
  8
0
 10
178.656512
 20
156.617900
 42
0.082592
  0
VERTEX
  8
0
 10
178.500000
 20
157.000000
 42
0.029505
  0
VERTEX
  8
0
 10
178.231006
 20
157.382774
 42
0.035638
  0
VERTEX
  8
0
 10
177.933975
 20
157.706250
 42
0.038439
  0
VERTEX
  8
0
 10
177.651710
 20
157.934461
 42
0.151918
  0
VERTEX
  8
0
 10
177.440983
 20
158.000000
 42
0.210953
  0
VERTEX
  8
0
 10
177.272352
 20
157.925540
 42
0.081139
  0
VERTEX
  8
0
 10
177.129539
 20
157.706250
 42
0.061769
  0
VERTEX
  8
0
 10
177.032345
 20
157.382849
 42
0.042167
  0
SEQEND
  0
POLYLINE
  8
0
 66
1
 70
1
  0
VERTEX
  8
0
 10
22.000000
 20
142.573324
 42
-0.030212
  0
VERTEX
  8
0
 10
21.903021
 20
140.969811
 42
-0.075773
  0
VERTEX
  8
0
 10
21.588960
 20
139.844089
 42
-0.108169
  0
VERTEX
  8
0
 10
21.042107
 20
139.107806
 42
-0.115727
  0
VERTEX
  8
0
 10
20.250000
 20
138.689326
 42
0.011590
  0
VERTEX
  8
0
 10
19.411700
 20
138.449367
 42
0.541772
  0
VERTEX
  8
0
 10
19.371220
 20
138.306344
 42
0.197309
  0
VERTEX
  8
0
 10
19.607705
 20
138.187999
 42
0.005718
  0
VERTEX
  8
0
 10
20.750000
 20
138.116001
 42
0.068838
  0
VERTEX
  8
0
 10
21.963546
 20
138.220562
 42
0.208528
  0
VERTEX
  8
0
 10
22.616625
 20
138.701321
 42
0.116033
  0
VERTEX
  8
0
 10
22.928522
 20
139.731355
 42
0.015749
  0
VERTEX
  8
0
 10
23.000000
 20
142.000000
 42
0.011735
  0
VERTEX
  8
0
 10
22.964002
 20
143.533580
 42
0.019357
  0
VERTEX
  8
0
 10
22.853125
 20
144.825000
 42
0.014069
  0
VERTEX
  8
0
 10
22.697910
 20
145.834959
 42
0.362246
  0
VERTEX
  8
0
 10
22.500000
 20
146.000000
 42
0.351400
  0
VERTEX
  8
0
 10
22.303064
 20
145.842095
 42
0.018557
  0
VERTEX
  8
0
 10
22.146875
 20
144.993414
 42
0.022520
  0
VERTEX
  8
0
 10
22.036023
 20
143.887027
 42
0.013708
  0
SEQEND
  0
POLYLINE
  8
0
 66
1
 70
1
  0
VERTEX
  8
0
 10
215.168103
 20
142.250000
 42
0.013028
  0
VERTEX
  8
0
 10
215.134696
 20
139.771653
 42
0.113977
  0
VERTEX
  8
0
 10
215.393762
 20
138.710956
 42
0.224136
  0
VERTEX
  8
0
 10
216.020470
 20
138.221255
 42
0.068561
  0
VERTEX
  8
0
 10
217.250000
 20
138.116001
 42
0.007221
  0
VERTEX
  8
0
 10
218.318183
 20
138.186552
 42
0.179430
  0
VERTEX
  8
0
 10
218.581317
 20
138.308979
 42
0.555181
  0
VERTEX
  8
0
 10
218.546099
 20
138.457130
 42
0.016508
  0
VERTEX
  8
0
 10
217.806644
 20
138.678417
 42
-0.133275
  0
VERTEX
  8
0
 10
217.055312
 20
139.111350
 42
-0.079298
  0
VERTEX
  8
0
 10
216.447281
 20
139.954471
 42
-0.059360
  0
VERTEX
  8
0
 10
215.997975
 20
141.193245
 42
-0.031107
  0
VERTEX
  8
0
 10
215.724747
 20
142.812415
 42
0.000000
  0
VERTEX
  8
0
 10
215.336206
 20
146.500000
 42
0.000000
  0
SEQEND
  0
POLYLINE
  8
0
 66
1
 70
1
  0
VERTEX
  8
0
 10
4.000000
 20
137.500000
 42
0.036265
  0
VERTEX
  8
0
 10
4.041722
 20
136.925524
 42
0.054800
  0
VERTEX
  8
0
 10
4.167857
 20
136.440625
 42
0.071771
  0
VERTEX
  8
0
 10
4.352429
 20
136.108534
 42
0.234203
  0
VERTEX
  8
0
 10
4.571429
 20
136.000000
 42
0.136573
  0
VERTEX
  8
0
 10
4.879742
 20
136.085815
 42
0.020956
  0
VERTEX
  8
0
 10
5.415625
 20
136.440625
 42
0.022100
  0
VERTEX
  8
0
 10
6.026667
 20
136.925657
 42
0.017569
  0
VERTEX
  8
0
 10
6.642857
 20
137.500000
 42
0.014708
  0
VERTEX
  8
0
 10
7.481543
 20
138.389535
 42
0.279599
  0
VERTEX
  8
0
 10
7.547619
 20
138.750000
 42
0.293958
  0
VERTEX
  8
0
 10
7.259279
 20
138.962452
 42
0.015801
  0
VERTEX
  8
0
 10
6.071429
 20
139.000000
 42
0.067581
  0
VERTEX
  8
0
 10
5.263218
 20
138.890260
 42
0.089445
  0
VERTEX
  8
0
 10
4.595238
 20
138.568966
 42
0.105152
  0
VERTEX
  8
0
 10
4.156766
 20
138.083441
 42
0.132005
  0
SEQEND
  0
POLYLINE
  8
0
 66
1
 70
1
  0
VERTEX
  8
0
 10
230.250000
 20
138.310674
 42
-0.046657
  0
VERTEX
  8
0
 10
230.919531
 20
138.067143
 42
-0.056820
  0
VERTEX
  8
0
 10
231.485938
 20
137.715479
 42
-0.067019
  0
VERTEX
  8
0
 10
231.872626
 20
137.314950
 42
-0.159836
  0
VERTEX
  8
0
 10
232.000000
 20
136.926676
 42
0.107094
  0
VERTEX
  8
0
 10
232.076606
 20
136.573120
 42
0.099498
  0
VERTEX
  8
0
 10
232.293750
 20
136.272211
 42
0.095859
  0
VERTEX
  8
0
 10
232.618243
 20
136.070473
 42
0.091527
  0
VERTEX
  8
0
 10
233.000000
 20
136.000000
 42
0.148195
  0
VERTEX
  8
0
 10
233.381354
 20
136.115568
 42
0.098894
  0
VERTEX
  8
0
 10
233.706250
 20
136.440625
 42
0.082425
  0
VERTEX
  8
0
 10
233.925306
 20
136.926543
 42
0.064853
  0
VERTEX
  8
0
 10
234.000000
 20
137.500000
 42
0.142417
  0
VERTEX
  8
0
 10
233.813955
 20
138.139920
 42
0.135487
  0
VERTEX
  8
0
 10
233.311000
 20
138.595118
 42
0.090377
  0
VERTEX
  8
0
 10
232.459395
 20
138.845541
 42
0.036990
  0
VERTEX
  8
0
 10
231.250000
 20
138.883999
 42
0.010989
  0
VERTEX
  8
0
 10
230.150445
 20
138.813383
 42
0.109045
  0
VERTEX
  8
0
 10
229.711790
 20
138.676084
 42
0.602595
  0
VERTEX
  8
0
 10
229.717606
 20
138.507227
 42
0.049066
  0
SEQEND
  0
POLYLINE
  8
0
 66
1
 70
1
  0
VERTEX
  8
0
 10
143.500000
 20
132.000000
 42
0.082592
  0
VERTEX
  8
0
 10
143.343488
 20
131.617900
 42
0.161196
  0
VERTEX
  8
0
 10
143.374600
 20
131.293750
 42
0.182303
  0
VERTEX
  8
0
 10
143.586039
 20
131.078288
 42
0.108972
  0
VERTEX
  8
0
 10
143.940983
 20
131.000000
 42
0.093332
  0
VERTEX
  8
0
 10
144.345238
 20
131.076123
 42
0.096420
  0
VERTEX
  8
0
 10
144.688914
 20
131.293750
 42
0.099167
  0
VERTEX
  8
0
 10
144.918938
 20
131.618444
 42
0.105053
  0
VERTEX
  8
0
 10
145.000000
 20
132.000000
 42
0.042167
  0
VERTEX
  8
0
 10
144.967655
 20
132.382849
 42
0.061769
  0
VERTEX
  8
0
 10
144.870461
 20
132.706250
 42
0.081139
  0
VERTEX
  8
0
 10
144.727648
 20
132.925540
 42
0.210953
  0
VERTEX
  8
0
 10
144.559017
 20
133.000000
 42
0.151918
  0
VERTEX
  8
0
 10
144.348290
 20
132.934461
 42
0.038439
  0
VERTEX
  8
0
 10
144.066025
 20
132.706250
 42
0.035638
  0
VERTEX
  8
0
 10
143.768994
 20
132.382774
 42
0.029505
  0
SEQEND
  0
POLYLINE
  8
0
 66
1
 70
1
  0
VERTEX
  8
0
 10
143.638374
 20
128.500000
 42
0.055937
  0
VERTEX
  8
0
 10
143.488865
 20
127.925634
 42
0.100118
  0
VERTEX
  8
0
 10
143.516384
 20
127.440625
 42
0.147206
  0
VERTEX
  8
0
 10
143.710807
 20
127.122486
 42
0.184534
  0
VERTEX
  8
0
 10
144.031385
 20
127.000000
 42
0.152681
  0
VERTEX
  8
0
 10
144.400789
 20
127.115494
 42
0.098158
  0
VERTEX
  8
0
 10
144.715469
 20
127.440625
 42
0.080880
  0
VERTEX
  8
0
 10
144.927770
 20
127.926468
 42
0.062722
  0
VERTEX
  8
0
 10
145.000000
 20
128.500000
 42
0.024748
  0
VERTEX
  8
0
 10
144.971531
 20
129.074824
 42
0.039339
  0
VERTEX
  8
0
 10
144.884553
 20
129.559375
 42
0.046727
  0
VERTEX
  8
0
 10
144.758929
 20
129.903916
 42
0.289661
  0
VERTEX
  8
0
 10
144.606989
 20
130.000000
 42
0.222225
  0
VERTEX
  8
0
 10
144.420671
 20
129.912889
 42
0.030693
  0
VERTEX
  8
0
 10
144.160341
 20
129.559375
 42
0.030395
  0
VERTEX
  8
0
 10
143.887494
 20
129.074558
 42
0.021360
  0
SEQEND
  0
POLYLINE
  8
0
 66
1
 70
1
  0
VERTEX
  8
0
 10
93.000000
 20
128.000000
 42
0.105053
  0
VERTEX
  8
0
 10
93.081062
 20
127.618444
 42
0.099167
  0
VERTEX
  8
0
 10
93.311086
 20
127.293750
 42
0.096420
  0
VERTEX
  8
0
 10
93.654762
 20
127.076123
 42
0.093332
  0
VERTEX
  8
0
 10
94.059017
 20
127.000000
 42
0.108972
  0
VERTEX
  8
0
 10
94.413961
 20
127.078288
 42
0.182303
  0
VERTEX
  8
0
 10
94.625400
 20
127.293750
 42
0.161196
  0
VERTEX
  8
0
 10
94.656512
 20
127.617900
 42
0.082592
  0
VERTEX
  8
0
 10
94.500000
 20
128.000000
 42
0.029505
  0
VERTEX
  8
0
 10
94.231006
 20
128.382774
 42
0.035638
  0
VERTEX
  8
0
 10
93.933975
 20
128.706250
 42
0.038439
  0
VERTEX
  8
0
 10
93.651710
 20
128.934461
 42
0.151918
  0
VERTEX
  8
0
 10
93.440983
 20
129.000000
 42
0.210953
  0
VERTEX
  8
0
 10
93.272352
 20
128.925540
 42
0.081139
  0
VERTEX
  8
0
 10
93.129539
 20
128.706250
 42
0.061769
  0
VERTEX
  8
0
 10
93.032345
 20
128.382849
 42
0.042167
  0
SEQEND
  0
POLYLINE
  8
0
 66
1
 70
1
  0
VERTEX
  8
0
 10
23.000000
 20
126.106989
 42
0.148172
  0
VERTEX
  8
0
 10
23.117443
 20
125.719384
 42
0.058677
  0
VERTEX
  8
0
 10
23.482174
 20
125.291272
 42
0.051260
  0
VERTEX
  8
0
 10
24.013435
 20
124.891147
 42
0.044200
  0
VERTEX
  8
0
 10
24.641444
 20
124.584097
 42
0.012731
  0
VERTEX
  8
0
 10
25.541716
 20
124.264678
 42
0.389672
  0
VERTEX
  8
0
 10
25.741192
 20
124.355597
 42
0.270710
  0
VERTEX
  8
0
 10
25.707299
 20
124.617386
 42
0.008807
  0
VERTEX
  8
0
 10
25.018999
 20
125.477108
 42
0.017238
  0
VERTEX
  8
0
 10
24.053128
 20
126.562498
 42
0.127361
  0
VERTEX
  8
0
 10
23.469452
 20
126.925000
 42
0.389178
  0
VERTEX
  8
0
 10
23.129499
 20
126.765008
 42
0.097466
  0
SEQEND
  0
POLYLINE
  8
0
 66
1
 70
1
  0
VERTEX
  8
0
 10
219.078947
 20
125.416667
 42
0.018894
  0
VERTEX
  8
0
 10
219.137993
 20
124.670344
 42
0.168741
  0
VERTEX
  8
0
 10
219.279315
 20
124.378580
 42
0.470617
  0
VERTEX
  8
0
 10
219.461564
 20
124.395823
 42
0.054073
  0
VERTEX
  8
0
 10
219.683114
 20
124.812500
 42
0.051402
  0
VERTEX
  8
0
 10
219.839148
 20
125.359369
 42
0.054150
  0
VERTEX
  8
0
 10
219.876576
 20
125.916927
 42
0.060344
  0
VERTEX
  8
0
 10
219.797407
 20
126.402231
 42
0.126455
  0
VERTEX
  8
0
 10
219.604167
 20
126.729167
 42
0.296942
  0
VERTEX
  8
0
 10
219.385309
 20
126.775380
 42
0.208169
  0
VERTEX
  8
0
 10
219.200665
 20
126.592839
 42
0.077125
  0
VERTEX
  8
0
 10
219.089945
 20
126.112848
 42
0.028489
  0
SEQEND
  0
POLYLINE
  8
0
 66
1
 70
1
  0
VERTEX
  8
0
 10
4.000000
 20
105.559017
 42
0.001496
  0
VERTEX
  8
0
 10
4.039427
 20
92.378731
 42
0.022752
  0
VERTEX
  8
0
 10
4.274320
 20
87.819877
 42
0.086400
  0
VERTEX
  8
0
 10
4.852081
 20
85.726965
 42
0.290013
  0
VERTEX
  8
0
 10
6.000000
 20
85.000000
 42
0.048028
  0
VERTEX
  8
0
 10
6.765418
 20
85.073693
 42
0.068025
  0
VERTEX
  8
0
 10
7.412500
 20
85.293750
 42
0.088204
  0
VERTEX
  8
0
 10
7.848523
 20
85.618118
 42
0.191087
  0
VERTEX
  8
0
 10
8.000000
 20
86.000000
 42
0.099038
  0
VERTEX
  8
0
 10
7.923658
 20
86.381638
 42
0.097945
  0
VERTEX
  8
0
 10
7.706250
 20
86.706250
 42
0.097945
  0
VERTEX
  8
0
 10
7.381638
 20
86.923658
 42
0.099038
  0
VERTEX
  8
0
 10
7.000000
 20
87.000000
 42
-0.352903
  0
VERTEX
  8
0
 10
6.592295
 20
87.328697
 42
-0.019385
  0
VERTEX
  8
0
 10
6.286022
 20
89.060959
 42
-0.022262
  0
VERTEX
  8
0
 10
6.072668
 20
91.380723
 42
-0.012013
  0
VERTEX
  8
0
 10
6.006164
 20
94.250000
 42
0.000000
  0
VERTEX
  8
0
 10
6.012328
 20
101.500000
 42
0.000000
  0
VERTEX
  8
0
 10
11.256164
 20
101.621913
 42
-0.020177
  0
VERTEX
  8
0
 10
13.324612
 20
101.586531
 42
-0.026463
  0
VERTEX
  8
0
 10
15.202299
 20
101.378453
 42
-0.025868
  0
VERTEX
  8
0
 10
16.700382
 20
101.051303
 42
-0.168918
  0
VERTEX
  8
0
 10
17.326131
 20
100.621913
 42
0.046994
  0
VERTEX
  8
0
 10
17.742893
 20
100.154931
 42
0.214192
  0
VERTEX
  8
0
 10
18.079513
 20
100.041044
 42
0.224660
  0
VERTEX
  8
0
 10
18.377194
 20
100.218575
 42
0.051444
  0
VERTEX
  8
0
 10
18.659464
 20
100.750000
 42
-0.110668
  0
VERTEX
  8
0
 10
18.990814
 20
101.228251
 42
-0.064583
  0
VERTEX
  8
0
 10
19.562965
 20
101.632812
 42
-0.059706
  0
VERTEX
  8
0
 10
20.275370
 20
101.906843
 42
-0.062064
  0
VERTEX
  8
0
 10
21.022968
 20
102.000000
 42
-0.117494
  0
VERTEX
  8
0
 10
21.926932
 20
101.784606
 42
-0.141643
  0
VERTEX
  8
0
 10
22.563871
 20
101.192135
 42
-0.085532
  0
VERTEX
  8
0
 10
22.990462
 20
100.090618
 42
-0.023659
  0
VERTEX
  8
0
 10
23.271532
 20
98.250000
 42
0.000000
  0
VERTEX
  8
0
 10
23.663794
 20
94.500000
 42
0.000000
  0
VERTEX
  8
0
 10
23.831897
 20
98.750000
 42
0.000000
  0
VERTEX
  8
0
 10
24.000000
 20
103.000000
 42
0.000000
  0
VERTEX
  8
0
 10
15.000000
 20
103.000000
 42
0.000000
  0
VERTEX
  8
0
 10
6.000000
 20
103.000000
 42
0.000000
  0
VERTEX
  8
0
 10
6.000000
 20
113.940983
 42
0.008108
  0
VERTEX
  8
0
 10
5.929741
 20
118.273320
 42
0.013467
  0
VERTEX
  8
0
 10
5.713028
 20
121.919570
 42
0.008383
  0
VERTEX
  8
0
 10
5.408900
 20
124.859985
 42
0.228189
  0
VERTEX
  8
0
 10
5.000000
 20
125.500000
 42
0.563262
  0
VERTEX
  8
0
 10
4.533060
 20
125.261421
 42
0.005598
  0
VERTEX
  8
0
 10
4.254645
 20
120.725409
 42
0.009274
  0
VERTEX
  8
0
 10
4.058190
 20
114.502535
 42
0.003253
  0
SEQEND
  0
POLYLINE
  8
0
 66
1
 70
1
  0
VERTEX
  8
0
 10
232.750000
 20
125.419488
 42
0.176425
  0
VERTEX
  8
0
 10
232.450291
 20
124.773276
 42
0.005092
  0
VERTEX
  8
0
 10
232.220313
 20
121.705516
 42
0.009701
  0
VERTEX
  8
0
 10
232.054340
 20
118.039322
 42
0.006460
  0
VERTEX
  8
0
 10
232.000000
 20
113.833333
 42
0.000000
  0
VERTEX
  8
0
 10
232.000000
 20
103.000000
 42
0.000000
  0
VERTEX
  8
0
 10
223.000000
 20
103.000000
 42
0.000000
  0
VERTEX
  8
0
 10
214.000000
 20
103.000000
 42
0.000000
  0
VERTEX
  8
0
 10
214.168103
 20
98.750000
 42
0.000000
  0
VERTEX
  8
0
 10
214.336206
 20
94.500000
 42
0.000000
  0
VERTEX
  8
0
 10
214.728468
 20
98.250000
 42
-0.058128
  0
VERTEX
  8
0
 10
215.237785
 20
100.523866
 42
-0.153283
  0
VERTEX
  8
0
 10
216.224288
 20
101.846977
 42
-0.269276
  0
VERTEX
  8
0
 10
217.395850
 20
101.964347
 42
-0.148834
  0
VERTEX
  8
0
 10
218.510081
 20
100.983688
 42
0.117879
  0
VERTEX
  8
0
 10
218.840553
 20
100.655096
 42
0.102998
  0
VERTEX
  8
0
 10
219.300578
 20
100.491022
 42
0.094869
  0
VERTEX
  8
0
 10
219.820562
 20
100.518005
 42
0.083845
  0
VERTEX
  8
0
 10
220.319098
 20
100.733688
 42
-0.099666
  0
VERTEX
  8
0
 10
221.073739
 20
101.032427
 42
-0.014916
  0
VERTEX
  8
0
 10
222.695240
 20
101.274896
 42
-0.016265
  0
VERTEX
  8
0
 10
224.653235
 20
101.443852
 42
-0.013388
  0
VERTEX
  8
0
 10
226.749805
 20
101.500000
 42
0.000000
  0
VERTEX
  8
0
 10
231.999611
 20
101.500000
 42
0.000000
  0
VERTEX
  8
0
 10
231.999805
 20
94.250000
 42
-0.012033
  0
VERTEX
  8
0
 10
231.930870
 20
91.382694
 42
-0.022238
  0
VERTEX
  8
0
 10
231.715469
 20
89.062451
 42
-0.019318
  0
VERTEX
  8
0
 10
231.407693
 20
87.328506
 42
-0.352751
  0
VERTEX
  8
0
 10
231.000000
 20
87.000000
 42
0.077041
  0
VERTEX
  8
0
 10
230.617967
 20
86.940784
 42
0.089844
  0
VERTEX
  8
0
 10
230.293750
 20
86.769196
 42
0.100770
  0
VERTEX
  8
0
 10
230.077008
 20
86.513933
 42
0.126444
  0
VERTEX
  8
0
 10
230.000000
 20
86.214286
 42
0.222684
  0
VERTEX
  8
0
 10
230.140941
 20
85.913520
 42
0.076537
  0
VERTEX
  8
0
 10
230.563398
 20
85.659375
 42
0.058208
  0
VERTEX
  8
0
 10
231.183528
 20
85.486062
 42
0.039080
  0
VERTEX
  8
0
 10
231.917951
 20
85.428571
 42
0.093040
  0
VERTEX
  8
0
 10
232.782747
 20
85.590898
 42
0.119042
  0
VERTEX
  8
0
 10
233.445758
 20
86.052377
 42
0.099326
  0
VERTEX
  8
0
 10
233.904624
 20
86.839566
 42
0.049930
  0
VERTEX
  8
0
 10
234.167951
 20
87.964286
 42
0.039094
  0
VERTEX
  8
0
 10
234.458767
 20
93.545500
 42
0.002937
  0
VERTEX
  8
0
 10
233.973251
 20
108.729608
 42
0.000800
  0
VERTEX
  8
0
 10
233.323499
 20
125.196229
 42
0.654109
  0
SEQEND
  0
POLYLINE
  8
0
 66
1
 70
1
  0
VERTEX
  8
0
 10
63.868879
 20
122.657991
 42
-0.059816
  0
VERTEX
  8
0
 10
64.239506
 20
122.083858
 42
-0.070874
  0
VERTEX
  8
0
 10
64.437715
 20
121.469816
 42
-0.083091
  0
VERTEX
  8
0
 10
64.440463
 20
120.911524
 42
-0.144798
  0
VERTEX
  8
0
 10
64.241324
 20
120.497665
 42
0.051532
  0
VERTEX
  8
0
 10
64.050748
 20
120.237981
 42
0.539115
  0
VERTEX
  8
0
 10
64.099215
 20
120.139852
 42
0.145908
  0
VERTEX
  8
0
 10
64.329530
 20
120.178590
 42
0.016746
  0
VERTEX
  8
0
 10
64.798558
 20
120.428702
 42
0.064660
  0
VERTEX
  8
0
 10
65.372512
 20
120.867315
 42
0.184594
  0
VERTEX
  8
0
 10
65.575840
 20
121.317710
 42
0.150137
  0
VERTEX
  8
0
 10
65.445068
 20
121.854248
 42
0.038920
  0
VERTEX
  8
0
 10
64.926114
 20
122.589028
 42
0.019407
  0
VERTEX
  8
0
 10
64.441126
 20
123.129294
 42
0.024812
  0
VERTEX
  8
0
 10
63.952218
 20
123.585527
 42
0.024047
  0
VERTEX
  8
0
 10
63.517621
 20
123.918068
 42
0.152428
  0
VERTEX
  8
0
 10
63.255111
 20
124.000000
 42
0.437369
  0
VERTEX
  8
0
 10
63.155018
 20
123.891735
 42
0.087861
  0
VERTEX
  8
0
 10
63.229155
 20
123.605785
 42
0.045120
  0
VERTEX
  8
0
 10
63.476182
 20
123.173471
 42
0.020857
  0
SEQEND
  0
POLYLINE
  8
0
 66
1
 70
1
  0
VERTEX
  8
0
 10
172.954748
 20
122.445475
 42
0.070030
  0
VERTEX
  8
0
 10
172.394354
 20
121.537354
 42
0.175788
  0
VERTEX
  8
0
 10
172.344520
 20
120.772229
 42
0.114281
  0
VERTEX
  8
0
 10
172.812573
 20
119.936549
 42
0.021928
  0
VERTEX
  8
0
 10
174.045185
 20
118.695475
 42
0.000000
  0
VERTEX
  8
0
 10
176.425764
 20
116.500000
 42
0.000000
  0
VERTEX
  8
0
 10
174.574870
 20
118.731242
 42
-0.026587
  0
VERTEX
  8
0
 10
173.660713
 20
119.960768
 42
-0.107916
  0
VERTEX
  8
0
 10
173.324347
 20
120.825003
 42
-0.147448
  0
VERTEX
  8
0
 10
173.430962
 20
121.600526
 42
-0.065925
  0
VERTEX
  8
0
 10
173.984433
 20
122.481242
 42
0.018403
  0
VERTEX
  8
0
 10
174.433315
 20
123.064516
 42
0.038745
  0
VERTEX
  8
0
 10
174.727755
 20
123.553865
 42
0.068540
  0
VERTEX
  8
0
 10
174.840091
 20
123.884687
 42
0.471172
  0
VERTEX
  8
0
 10
174.744889
 20
124.000000
 42
0.158442
  0
VERTEX
  8
0
 10
174.477900
 20
123.913216
 42
0.021635
  0
VERTEX
  8
0
 10
174.012785
 20
123.543358
 42
0.023113
  0
VERTEX
  8
0
 10
173.485356
 20
123.040769
 42
0.017644
  0
SEQEND
  0
POLYLINE
  8
0
 66
1
 70
1
  0
VERTEX
  8
0
 10
59.564761
 20
122.104785
 42
0.155001
  0
VERTEX
  8
0
 10
59.468225
 20
121.720344
 42
0.122934
  0
VERTEX
  8
0
 10
59.597989
 20
121.309843
 42
0.097234
  0
VERTEX
  8
0
 10
59.944192
 20
120.934228
 42
0.066562
  0
VERTEX
  8
0
 10
60.454816
 20
120.655712
 42
0.052218
  0
VERTEX
  8
0
 10
61.063039
 20
120.492566
 42
0.241428
  0
VERTEX
  8
0
 10
61.398585
 20
120.602299
 42
0.239714
  0
VERTEX
  8
0
 10
61.506823
 20
120.939743
 42
0.051608
  0
VERTEX
  8
0
 10
61.342084
 20
121.550928
 42
0.024065
  0
VERTEX
  8
0
 10
60.881688
 20
122.597219
 42
0.204288
  0
VERTEX
  8
0
 10
60.499105
 20
122.922826
 42
0.293393
  0
VERTEX
  8
0
 10
60.093353
 20
122.811106
 42
0.044472
  0
SEQEND
  0
POLYLINE
  8
0
 66
1
 70
1
  0
VERTEX
  8
0
 10
176.564293
 20
121.293128
 42
0.008399
  0
VERTEX
  8
0
 10
176.218210
 20
120.336218
 42
0.286372
  0
VERTEX
  8
0
 10
176.270328
 20
120.111181
 42
0.400052
  0
VERTEX
  8
0
 10
176.463552
 20
120.106486
 42
0.011214
  0
VERTEX
  8
0
 10
177.124088
 20
120.733333
 42
0.043285
  0
VERTEX
  8
0
 10
177.558688
 20
121.246577
 42
0.063152
  0
VERTEX
  8
0
 10
177.837219
 20
121.768815
 42
0.082976
  0
VERTEX
  8
0
 10
177.927901
 20
122.220211
 42
0.207420
  0
VERTEX
  8
0
 10
177.806872
 20
122.526461
 42
0.278911
  0
VERTEX
  8
0
 10
177.538684
 20
122.592490
 42
0.120343
  0
VERTEX
  8
0
 10
177.210949
 20
122.395085
 42
0.070189
  0
VERTEX
  8
0
 10
176.866277
 20
121.940734
 42
0.036269
  0
SEQEND
  0
POLYLINE
  8
0
 66
1
 70
1
  0
VERTEX
  8
0
 10
10.733333
 20
118.875912
 42
0.043285
  0
VERTEX
  8
0
 10
11.246577
 20
118.441312
 42
0.063152
  0
VERTEX
  8
0
 10
11.768815
 20
118.162781
 42
0.082976
  0
VERTEX
  8
0
 10
12.220211
 20
118.072099
 42
0.207420
  0
VERTEX
  8
0
 10
12.526461
 20
118.193128
 42
0.278911
  0
VERTEX
  8
0
 10
12.592490
 20
118.461316
 42
0.120343
  0
VERTEX
  8
0
 10
12.395085
 20
118.789051
 42
0.070189
  0
VERTEX
  8
0
 10
11.940734
 20
119.133723
 42
0.036269
  0
VERTEX
  8
0
 10
11.293128
 20
119.435707
 42
0.008399
  0
VERTEX
  8
0
 10
10.336218
 20
119.781790
 42
0.286372
  0
VERTEX
  8
0
 10
10.111181
 20
119.729672
 42
0.400052
  0
VERTEX
  8
0
 10
10.106486
 20
119.536448
 42
0.011214
  0
SEQEND
  0
POLYLINE
  8
0
 66
1
 70
1
  0
VERTEX
  8
0
 10
67.000000
 20
113.940983
 42
0.108972
  0
VERTEX
  8
0
 10
67.078288
 20
113.586039
 42
0.182303
  0
VERTEX
  8
0
 10
67.293750
 20
113.374600
 42
0.161196
  0
VERTEX
  8
0
 10
67.617900
 20
113.343488
 42
0.082592
  0
VERTEX
  8
0
 10
68.000000
 20
113.500000
 42
0.029505
  0
VERTEX
  8
0
 10
68.382774
 20
113.768994
 42
0.035638
  0
VERTEX
  8
0
 10
68.706250
 20
114.066025
 42
0.038439
  0
VERTEX
  8
0
 10
68.934461
 20
114.348290
 42
0.151918
  0
VERTEX
  8
0
 10
69.000000
 20
114.559017
 42
0.210953
  0
VERTEX
  8
0
 10
68.925540
 20
114.727648
 42
0.081139
  0
VERTEX
  8
0
 10
68.706250
 20
114.870461
 42
0.061769
  0
VERTEX
  8
0
 10
68.382849
 20
114.967655
 42
0.042167
  0
VERTEX
  8
0
 10
68.000000
 20
115.000000
 42
0.105053
  0
VERTEX
  8
0
 10
67.618444
 20
114.918938
 42
0.099167
  0
VERTEX
  8
0
 10
67.293750
 20
114.688914
 42
0.096420
  0
VERTEX
  8
0
 10
67.076123
 20
114.345238
 42
0.093332
  0
SEQEND
  0
POLYLINE
  8
0
 66
1
 70
1
  0
VERTEX
  8
0
 10
83.272364
 20
111.000000
 42
0.008087
  0
VERTEX
  8
0
 10
83.298431
 20
109.388510
 42
0.039503
  0
VERTEX
  8
0
 10
83.399666
 20
108.482813
 42
0.611425
  0
VERTEX
  8
0
 10
83.546986
 20
108.439977
 42
0.142433
  0
VERTEX
  8
0
 10
83.705733
 20
108.750000
 42
0.029693
  0
VERTEX
  8
0
 10
83.840649
 20
109.774707
 42
0.017887
  0
VERTEX
  8
0
 10
83.884498
 20
111.000000
 42
0.017887
  0
VERTEX
  8
0
 10
83.840649
 20
112.225293
 42
0.029693
  0
VERTEX
  8
0
 10
83.705733
 20
113.250000
 42
0.142433
  0
VERTEX
  8
0
 10
83.546986
 20
113.560023
 42
0.611425
  0
VERTEX
  8
0
 10
83.399666
 20
113.517187
 42
0.039503
  0
VERTEX
  8
0
 10
83.298431
 20
112.611490
 42
0.008087
  0
SEQEND
  0
POLYLINE
  8
0
 66
1
 70
1
  0
VERTEX
  8
0
 10
154.252183
 20
111.500000
 42
0.008901
  0
VERTEX
  8
0
 10
154.284834
 20
110.071102
 42
0.053901
  0
VERTEX
  8
0
 10
154.394187
 20
109.339362
 42
0.671610
  0
VERTEX
  8
0
 10
154.543410
 20
109.319562
 42
0.082665
  0
VERTEX
  8
0
 10
154.707261
 20
109.761659
 42
0.028254
  0
VERTEX
  8
0
 10
154.840609
 20
110.754739
 42
0.020511
  0
VERTEX
  8
0
 10
154.880728
 20
111.869594
 42
0.020826
  0
VERTEX
  8
0
 10
154.830983
 20
112.934218
 42
0.041951
  0
VERTEX
  8
0
 10
154.687080
 20
113.761659
 42
0.285845
  0
VERTEX
  8
0
 10
154.523779
 20
113.916221
 42
0.417468
  0
VERTEX
  8
0
 10
154.371610
 20
113.814362
 42
0.038992
  0
VERTEX
  8
0
 10
154.273069
 20
112.938425
 42
0.009782
  0
SEQEND
  0
POLYLINE
  8
0
 66
1
 70
1
  0
VERTEX
  8
0
 10
161.000000
 20
113.940983
 42
0.108972
  0
VERTEX
  8
0
 10
161.078288
 20
113.586039
 42
0.182303
  0
VERTEX
  8
0
 10
161.293750
 20
113.374600
 42
0.161196
  0
VERTEX
  8
0
 10
161.617900
 20
113.343488
 42
0.082592
  0
VERTEX
  8
0
 10
162.000000
 20
113.500000
 42
0.029505
  0
VERTEX
  8
0
 10
162.382774
 20
113.768994
 42
0.035638
  0
VERTEX
  8
0
 10
162.706250
 20
114.066025
 42
0.038439
  0
VERTEX
  8
0
 10
162.934461
 20
114.348290
 42
0.151918
  0
VERTEX
  8
0
 10
163.000000
 20
114.559017
 42
0.210953
  0
VERTEX
  8
0
 10
162.925540
 20
114.727648
 42
0.081139
  0
VERTEX
  8
0
 10
162.706250
 20
114.870461
 42
0.061769
  0
VERTEX
  8
0
 10
162.382849
 20
114.967655
 42
0.042167
  0
VERTEX
  8
0
 10
162.000000
 20
115.000000
 42
0.105053
  0
VERTEX
  8
0
 10
161.618444
 20
114.918938
 42
0.099167
  0
VERTEX
  8
0
 10
161.293750
 20
114.688914
 42
0.096420
  0
VERTEX
  8
0
 10
161.076123
 20
114.345238
 42
0.093332
  0
SEQEND
  0
POLYLINE
  8
0
 66
1
 70
1
  0
VERTEX
  8
0
 10
154.252183
 20
97.500000
 42
0.008901
  0
VERTEX
  8
0
 10
154.284834
 20
96.071102
 42
0.053901
  0
VERTEX
  8
0
 10
154.394187
 20
95.339362
 42
0.671610
  0
VERTEX
  8
0
 10
154.543410
 20
95.319562
 42
0.082665
  0
VERTEX
  8
0
 10
154.707261
 20
95.761659
 42
0.028254
  0
VERTEX
  8
0
 10
154.840609
 20
96.754739
 42
0.020511
  0
VERTEX
  8
0
 10
154.880728
 20
97.869594
 42
0.020826
  0
VERTEX
  8
0
 10
154.830983
 20
98.934218
 42
0.041951
  0
VERTEX
  8
0
 10
154.687080
 20
99.761659
 42
0.285845
  0
VERTEX
  8
0
 10
154.523779
 20
99.916221
 42
0.417468
  0
VERTEX
  8
0
 10
154.371610
 20
99.814362
 42
0.038992
  0
VERTEX
  8
0
 10
154.273069
 20
98.938425
 42
0.009782
  0
SEQEND
  0
POLYLINE
  8
0
 66
1
 70
1
  0
VERTEX
  8
0
 10
60.780779
 20
87.750000
 42
0.000000
  0
VERTEX
  8
0
 10
60.500000
 20
75.500000
 42
0.000000
  0
VERTEX
  8
0
 10
50.053324
 20
75.409973
 42
0.008538
  0
VERTEX
  8
0
 10
45.987448
 20
75.305486
 42
0.013985
  0
VERTEX
  8
0
 10
42.551003
 20
75.062000
 42
0.008058
  0
VERTEX
  8
0
 10
39.762275
 20
74.740381
 42
0.287042
  0
VERTEX
  8
0
 10
39.281080
 20
74.343241
 42
0.379755
  0
VERTEX
  8
0
 10
39.440814
 20
73.969727
 42
0.053603
  0
VERTEX
  8
0
 10
40.300368
 20
73.671740
 42
0.039274
  0
VERTEX
  8
0
 10
41.605255
 20
73.477063
 42
0.021305
  0
VERTEX
  8
0
 10
43.227756
 20
73.433268
 42
0.000000
  0
VERTEX
  8
0
 10
47.500000
 20
73.500000
 42
0.000000
  0
VERTEX
  8
0
 10
47.500000
 20
38.470931
 42
0.000000
  0
VERTEX
  8
0
 10
47.500000
 20
3.441863
 42
0.000000
  0
VERTEX
  8
0
 10
53.748534
 20
3.470931
 42
0.011266
  0
VERTEX
  8
0
 10
56.144306
 20
3.536071
 42
0.018577
  0
VERTEX
  8
0
 10
58.161992
 20
3.711774
 42
0.013028
  0
VERTEX
  8
0
 10
59.748044
 20
3.951589
 42
0.362968
  0
VERTEX
  8
0
 10
59.998534
 20
4.250000
 42
0.356918
  0
VERTEX
  8
0
 10
59.757319
 20
4.546046
 42
0.016474
  0
VERTEX
  8
0
 10
58.383944
 20
4.779687
 42
0.021088
  0
VERTEX
  8
0
 10
56.608515
 20
4.945985
 42
0.012807
  0
VERTEX
  8
0
 10
54.500000
 20
5.000000
 42
0.000000
  0
VERTEX
  8
0
 10
49.000000
 20
5.000000
 42
0.000000
  0
VERTEX
  8
0
 10
49.000000
 20
39.500000
 42
0.000000
  0
VERTEX
  8
0
 10
49.000000
 20
74.000000
 42
0.000000
  0
VERTEX
  8
0
 10
62.250000
 20
74.150576
 42
0.000647
  0
VERTEX
  8
0
 10
71.252993
 20
74.264548
 42
0.040597
  0
VERTEX
  8
0
 10
72.833734
 20
74.415336
 42
0.841005
  0
VERTEX
  8
0
 10
72.832779
 20
74.656799
 42
0.005059
  0
VERTEX
  8
0
 10
68.750000
 20
75.308238
 42
0.000000
  0
VERTEX
  8
0
 10
62.000000
 20
76.315323
 42
0.000000
  0
VERTEX
  8
0
 10
62.000000
 20
84.157662
 42
0.000000
  0
VERTEX
  8
0
 10
62.000000
 20
92.000000
 42
0.000000
  0
VERTEX
  8
0
 10
68.250000
 20
92.078947
 42
0.007776
  0
VERTEX
  8
0
 10
70.566469
 20
92.144248
 42
0.018104
  0
VERTEX
  8
0
 10
72.296875
 20
92.282867
 42
0.036991
  0
VERTEX
  8
0
 10
73.238138
 20
92.463978
 42
0.719217
  0
VERTEX
  8
0
 10
73.250000
 20
92.662281
 42
-0.172505
  0
VERTEX
  8
0
 10
72.768737
 20
93.088808
 42
-0.048881
  0
VERTEX
  8
0
 10
72.367188
 20
94.022149
 42
-0.043052
  0
VERTEX
  8
0
 10
72.091934
 20
95.238446
 42
-0.034139
  0
VERTEX
  8
0
 10
72.000000
 20
96.583333
 42
0.022060
  0
VERTEX
  8
0
 10
71.942197
 20
97.892811
 42
0.035403
  0
VERTEX
  8
0
 10
71.765235
 20
98.996354
 42
0.039868
  0
VERTEX
  8
0
 10
71.510808
 20
99.792067
 42
0.304311
  0
VERTEX
  8
0
 10
71.200801
 20
100.000000
 42
0.335283
  0
VERTEX
  8
0
 10
70.916097
 20
99.784908
 42
0.041434
  0
VERTEX
  8
0
 10
70.756394
 20
98.971875
 42
0.035585
  0
VERTEX
  8
0
 10
70.711167
 20
97.841769
 42
0.021273
  0
VERTEX
  8
0
 10
70.810207
 20
96.500000
 42
0.000000
  0
VERTEX
  8
0
 10
71.218812
 20
93.000000
 42
0.000000
  0
VERTEX
  8
0
 10
66.500000
 20
93.000000
 42
0.000000
  0
VERTEX
  8
0
 10
61.781188
 20
93.000000
 42
0.000000
  0
VERTEX
  8
0
 10
62.189793
 20
96.500000
 42
0.020442
  0
VERTEX
  8
0
 10
62.291075
 20
97.841805
 42
0.034240
  0
VERTEX
  8
0
 10
62.252647
 20
98.971875
 42
0.038960
  0
VERTEX
  8
0
 10
62.103639
 20
99.789231
 42
0.340456
  0
VERTEX
  8
0
 10
61.829978
 20
100.000000
 42
0.385066
  0
VERTEX
  8
0
 10
61.513702
 20
99.714021
 42
0.003772
  0
VERTEX
  8
0
 10
61.204802
 20
96.401562
 42
0.009754
  0
VERTEX
  8
0
 10
60.943693
 20
92.447035
 42
0.005877
  0
SEQEND
  0
POLYLINE
  8
0
 66
1
 70
1
  0
VERTEX
  8
0
 10
164.828610
 20
96.000000
 42
0.000000
  0
VERTEX
  8
0
 10
164.447148
 20
92.000000
 42
0.000000
  0
VERTEX
  8
0
 10
168.473574
 20
91.884846
 42
0.005012
  0
VERTEX
  8
0
 10
170.143456
 20
91.853836
 42
0.004856
  0
VERTEX
  8
0
 10
171.831300
 20
91.855809
 42
0.004802
  0
VERTEX
  8
0
 10
173.316079
 20
91.886228
 42
0.017823
  0
VERTEX
  8
0
 10
174.250000
 20
91.947704
 42
-0.209816
  0
VERTEX
  8
0
 10
175.158982
 20
91.654265
 42
-0.157016
  0
VERTEX
  8
0
 10
175.700465
 20
90.737293
 42
-0.049752
  0
VERTEX
  8
0
 10
175.947635
 20
88.729707
 42
-0.005770
  0
VERTEX
  8
0
 10
176.000000
 20
84.192025
 42
0.000000
  0
VERTEX
  8
0
 10
176.000000
 20
76.258333
 42
0.000000
  0
VERTEX
  8
0
 10
169.987198
 20
75.578061
 42
-0.010974
  0
VERTEX
  8
0
 10
167.612248
 20
75.362036
 42
-0.014686
  0
VERTEX
  8
0
 10
165.450667
 20
75.276843
 42
-0.011827
  0
VERTEX
  8
0
 10
163.666529
 20
75.301167
 42
-0.129794
  0
VERTEX
  8
0
 10
162.987198
 20
75.507912
 42
0.083977
  0
VERTEX
  8
0
 10
162.610056
 20
75.661183
 42
0.162719
  0
VERTEX
  8
0
 10
162.289989
 20
75.627724
 42
0.181280
  0
VERTEX
  8
0
 10
162.077078
 20
75.414798
 42
0.107081
  0
VERTEX
  8
0
 10
162.000000
 20
75.059017
 42
0.379113
  0
VERTEX
  8
0
 10
162.432457
 20
74.570638
 42
0.010777
  0
VERTEX
  8
0
 10
165.440281
 20
74.269591
 42
0.014285
  0
VERTEX
  8
0
 10
169.616514
 20
74.062130
 42
0.005267
  0
VERTEX
  8
0
 10
175.514247
 20
74.000000
 42
0.000000
  0
VERTEX
  8
0
 10
189.028493
 20
74.000000
 42
0.000000
  0
VERTEX
  8
0
 10
188.764247
 20
42.750000
 42
0.000000
  0
VERTEX
  8
0
 10
188.500000
 20
11.500000
 42
0.000000
  0
VERTEX
  8
0
 10
183.250000
 20
11.197740
 42
0.016432
  0
VERTEX
  8
0
 10
178.616426
 20
10.777856
 42
0.480807
  0
VERTEX
  8
0
 10
178.073649
 20
9.894969
 42
0.309522
  0
VERTEX
  8
0
 10
179.195485
 20
9.085038
 42
0.015264
  0
VERTEX
  8
0
 10
184.000000
 20
9.111682
 42
0.000000
  0
VERTEX
  8
0
 10
190.000000
 20
9.328200
 42
0.000000
  0
VERTEX
  8
0
 10
190.000000
 20
41.505490
 42
0.000000
  0
VERTEX
  8
0
 10
190.000000
 20
73.682781
 42
0.000000
  0
VERTEX
  8
0
 10
194.547535
 20
73.448784
 42
0.016495
  0
VERTEX
  8
0
 10
196.475000
 20
73.413271
 42
0.046254
  0
VERTEX
  8
0
 10
197.816114
 20
73.557330
 42
0.087970
  0
VERTEX
  8
0
 10
198.574935
 20
73.855969
 42
0.348715
  0
VERTEX
  8
0
 10
198.734928
 20
74.295215
 42
0.285035
  0
VERTEX
  8
0
 10
198.156620
 20
74.776125
 42
0.016187
  0
VERTEX
  8
0
 10
195.744261
 20
75.032771
 42
0.017728
  0
VERTEX
  8
0
 10
192.365705
 20
75.161774
 42
0.006891
  0
VERTEX
  8
0
 10
187.687393
 20
75.109979
 42
0.000000
  0
VERTEX
  8
0
 10
177.000000
 20
74.844315
 42
0.000000
  0
VERTEX
  8
0
 10
177.000000
 20
87.422158
 42
0.005957
  0
VERTEX
  8
0
 10
176.942542
 20
92.244960
 42
0.009907
  0
VERTEX
  8
0
 10
176.765235
 20
96.305259
 42
0.003890
  0
VERTEX
  8
0
 10
176.522828
 20
99.702463
 42
0.391256
  0
VERTEX
  8
0
 10
176.200801
 20
100.000000
 42
0.335283
  0
VERTEX
  8
0
 10
175.916097
 20
99.784908
 42
0.041434
  0
VERTEX
  8
0
 10
175.756394
 20
98.971875
 42
0.035585
  0
VERTEX
  8
0
 10
175.711167
 20
97.841769
 42
0.021273
  0
VERTEX
  8
0
 10
175.810207
 20
96.500000
 42
0.000000
  0
VERTEX
  8
0
 10
176.218812
 20
93.000000
 42
0.000000
  0
VERTEX
  8
0
 10
171.500000
 20
93.000000
 42
0.000000
  0
VERTEX
  8
0
 10
166.781188
 20
93.000000
 42
0.000000
  0
VERTEX
  8
0
 10
167.189793
 20
96.500000
 42
0.023358
  0
VERTEX
  8
0
 10
167.295400
 20
98.016853
 42
0.060972
  0
VERTEX
  8
0
 10
167.187546
 20
99.102812
 42
0.106122
  0
VERTEX
  8
0
 10
166.884368
 20
99.759990
 42
0.236018
  0
VERTEX
  8
0
 10
166.404235
 20
100.000000
 42
0.252612
  0
VERTEX
  8
0
 10
165.915479
 20
99.736237
 42
0.051498
  0
VERTEX
  8
0
 10
165.447231
 20
98.832734
 42
0.042552
  0
VERTEX
  8
0
 10
165.061869
 20
97.542258
 42
0.027522
  0
SEQEND
  0
POLYLINE
  8
0
 66
1
 70
1
  0
VERTEX
  8
0
 10
204.000000
 20
92.000000
 42
0.105053
  0
VERTEX
  8
0
 10
204.081062
 20
91.618444
 42
0.099167
  0
VERTEX
  8
0
 10
204.311086
 20
91.293750
 42
0.096420
  0
VERTEX
  8
0
 10
204.654762
 20
91.076123
 42
0.093332
  0
VERTEX
  8
0
 10
205.059017
 20
91.000000
 42
0.108972
  0
VERTEX
  8
0
 10
205.413961
 20
91.078288
 42
0.182303
  0
VERTEX
  8
0
 10
205.625400
 20
91.293750
 42
0.161196
  0
VERTEX
  8
0
 10
205.656512
 20
91.617900
 42
0.082592
  0
VERTEX
  8
0
 10
205.500000
 20
92.000000
 42
0.029505
  0
VERTEX
  8
0
 10
205.231006
 20
92.382774
 42
0.035638
  0
VERTEX
  8
0
 10
204.933975
 20
92.706250
 42
0.038439
  0
VERTEX
  8
0
 10
204.651710
 20
92.934461
 42
0.151918
  0
VERTEX
  8
0
 10
204.440983
 20
93.000000
 42
0.210953
  0
VERTEX
  8
0
 10
204.272352
 20
92.925540
 42
0.081139
  0
VERTEX
  8
0
 10
204.129539
 20
92.706250
 42
0.061769
  0
VERTEX
  8
0
 10
204.032345
 20
92.382849
 42
0.042167
  0
SEQEND
  0
POLYLINE
  8
0
 66
1
 70
1
  0
VERTEX
  8
0
 10
18.750000
 20
87.195209
 42
0.019814
  0
VERTEX
  8
0
 10
16.929545
 20
87.005745
 42
0.031406
  0
VERTEX
  8
0
 10
15.395312
 20
86.684959
 42
0.032617
  0
VERTEX
  8
0
 10
14.270977
 20
86.294663
 42
0.301537
  0
VERTEX
  8
0
 10
14.000000
 20
85.886192
 42
0.079960
  0
VERTEX
  8
0
 10
14.056156
 20
85.537287
 42
0.158757
  0
VERTEX
  8
0
 10
14.220313
 20
85.314045
 42
0.184714
  0
VERTEX
  8
0
 10
14.464479
 20
85.249991
 42
0.112435
  0
VERTEX
  8
0
 10
14.750000
 20
85.348646
 42
-0.538597
  0
VERTEX
  8
0
 10
15.027961
 20
85.220669
 42
-0.019652
  0
VERTEX
  8
0
 10
15.183135
 20
83.840035
 42
-0.020400
  0
VERTEX
  8
0
 10
15.244086
 20
81.925751
 42
-0.010878
  0
VERTEX
  8
0
 10
15.171311
 20
79.557611
 42
0.000000
  0
VERTEX
  8
0
 10
14.842622
 20
73.299897
 42
0.000000
  0
VERTEX
  8
0
 10
20.420297
 20
73.399948
 42
0.015511
  0
VERTEX
  8
0
 10
22.618912
 20
73.507667
 42
0.031724
  0
VERTEX
  8
0
 10
24.327094
 20
73.754316
 42
0.039838
  0
VERTEX
  8
0
 10
25.469991
 20
74.090973
 42
0.401738
  0
VERTEX
  8
0
 10
25.662898
 20
74.500000
 42
0.106166
  0
VERTEX
  8
0
 10
25.430301
 20
74.892597
 42
0.062307
  0
VERTEX
  8
0
 10
25.010916
 20
75.245804
 42
0.058110
  0
VERTEX
  8
0
 10
24.479536
 20
75.508682
 42
0.062173
  0
VERTEX
  8
0
 10
23.913912
 20
75.634650
 42
0.000209
  0
VERTEX
  8
0
 10
23.281655
 20
75.694595
 42
0.000134
  0
VERTEX
  8
0
 10
22.548149
 20
75.763631
 42
0.000135
  0
VERTEX
  8
0
 10
21.830188
 20
75.830814
 42
0.000253
  0
VERTEX
  8
0
 10
21.250000
 20
75.884650
 42
-0.335758
  0
VERTEX
  8
0
 10
20.345748
 20
76.710115
 42
-0.037880
  0
VERTEX
  8
0
 10
20.028951
 20
79.650413
 42
-0.040878
  0
VERTEX
  8
0
 10
20.188894
 20
82.839912
 42
-0.108443
  0
VERTEX
  8
0
 10
20.962643
 20
84.973795
 42
-0.102650
  0
VERTEX
  8
0
 10
21.577374
 20
85.609684
 42
-0.218331
  0
VERTEX
  8
0
 10
22.237418
 20
85.721500
 42
-0.101171
  0
VERTEX
  8
0
 10
23.127972
 20
85.276101
 42
-0.014752
  0
VERTEX
  8
0
 10
24.690176
 20
83.973795
 42
0.004887
  0
VERTEX
  8
0
 10
25.893779
 20
82.929504
 42
0.081172
  0
VERTEX
  8
0
 10
26.346199
 20
82.656534
 42
0.743821
  0
VERTEX
  8
0
 10
26.427856
 20
82.759050
 42
0.018014
  0
VERTEX
  8
0
 10
25.873334
 20
83.500000
 42
-0.011505
  0
VERTEX
  8
0
 10
25.228171
 20
84.339070
 42
-0.011533
  0
VERTEX
  8
0
 10
24.622837
 20
85.206250
 42
-0.011421
  0
VERTEX
  8
0
 10
24.130023
 20
85.986206
 42
-0.044303
  0
VERTEX
  8
0
 10
23.880488
 20
86.500000
 42
0.243447
  0
VERTEX
  8
0
 10
23.463976
 20
86.872458
 42
0.029341
  0
VERTEX
  8
0
 10
22.216456
 20
87.116718
 42
0.029580
  0
VERTEX
  8
0
 10
20.597410
 20
87.239258
 42
0.020122
  0
SEQEND
  0
POLYLINE
  8
0
 66
1
 70
1
  0
VERTEX
  8
0
 10
19.000000
 20
80.333333
 42
-0.010477
  0
VERTEX
  8
0
 10
18.963226
 20
78.578562
 42
-0.020703
  0
VERTEX
  8
0
 10
18.847296
 20
77.190204
 42
-0.023830
  0
VERTEX
  8
0
 10
18.682814
 20
76.245379
 42
-0.591365
  0
VERTEX
  8
0
 10
18.480155
 20
76.186512
 42
-0.168474
  0
VERTEX
  8
0
 10
17.841692
 20
77.502900
 42
-0.017751
  0
VERTEX
  8
0
 10
17.556583
 20
80.960501
 42
-0.014196
  0
VERTEX
  8
0
 10
17.492777
 20
84.430888
 42
-0.411286
  0
VERTEX
  8
0
 10
18.067613
 20
85.000000
 42
-0.322546
  0
VERTEX
  8
0
 10
18.431085
 20
84.738301
 42
-0.031398
  0
VERTEX
  8
0
 10
18.726111
 20
83.629167
 42
-0.030501
  0
VERTEX
  8
0
 10
18.932678
 20
82.122119
 42
-0.018811
  0
SEQEND
  0
POLYLINE
  8
0
 66
1
 70
1
  0
VERTEX
  8
0
 10
213.999378
 20
86.578741
 42
-0.109283
  0
VERTEX
  8
0
 10
213.892448
 20
86.093796
 42
-0.022856
  0
VERTEX
  8
0
 10
213.487856
 20
85.317471
 42
-0.022958
  0
VERTEX
  8
0
 10
212.924282
 20
84.442165
 42
-0.019946
  0
VERTEX
  8
0
 10
212.257154
 20
83.578741
 42
0.009403
  0
VERTEX
  8
0
 10
211.541228
 20
82.691466
 42
0.756242
  0
VERTEX
  8
0
 10
211.609570
 20
82.598682
 42
0.088344
  0
VERTEX
  8
0
 10
212.001707
 20
82.831218
 42
0.003233
  0
VERTEX
  8
0
 10
213.309824
 20
83.973795
 42
-0.014752
  0
VERTEX
  8
0
 10
214.872028
 20
85.276101
 42
-0.101171
  0
VERTEX
  8
0
 10
215.762582
 20
85.721500
 42
-0.218331
  0
VERTEX
  8
0
 10
216.422626
 20
85.609684
 42
-0.102650
  0
VERTEX
  8
0
 10
217.037357
 20
84.973795
 42
-0.108443
  0
VERTEX
  8
0
 10
217.811106
 20
82.839912
 42
-0.040878
  0
VERTEX
  8
0
 10
217.971049
 20
79.650413
 42
-0.037880
  0
VERTEX
  8
0
 10
217.654252
 20
76.710115
 42
-0.335758
  0
VERTEX
  8
0
 10
216.750000
 20
75.884650
 42
0.000253
  0
VERTEX
  8
0
 10
216.169812
 20
75.830814
 42
0.000135
  0
VERTEX
  8
0
 10
215.451851
 20
75.763631
 42
0.000134
  0
VERTEX
  8
0
 10
214.718345
 20
75.694595
 42
0.000209
  0
VERTEX
  8
0
 10
214.086088
 20
75.634650
 42
0.062157
  0
VERTEX
  8
0
 10
213.520388
 20
75.508683
 42
0.058059
  0
VERTEX
  8
0
 10
212.988786
 20
75.245804
 42
0.062242
  0
VERTEX
  8
0
 10
212.569066
 20
74.892598
 42
0.106068
  0
VERTEX
  8
0
 10
212.336088
 20
74.500000
 42
0.402375
  0
VERTEX
  8
0
 10
212.527312
 20
74.094736
 42
0.043062
  0
VERTEX
  8
0
 10
213.625685
 20
73.780388
 42
0.032722
  0
VERTEX
  8
0
 10
215.292971
 20
73.567073
 42
0.015459
  0
VERTEX
  8
0
 10
217.461889
 20
73.500000
 42
0.000000
  0
VERTEX
  8
0
 10
222.923778
 20
73.500000
 42
0.000000
  0
VERTEX
  8
0
 10
222.688808
 20
79.668773
 42
-0.011500
  0
VERTEX
  8
0
 10
222.653639
 20
82.001990
 42
-0.021590
  0
VERTEX
  8
0
 10
222.749953
 20
83.885118
 42
-0.021613
  0
VERTEX
  8
0
 10
222.936108
 20
85.230496
 42
-0.528152
  0
VERTEX
  8
0
 10
223.226919
 20
85.359756
 42
0.102250
  0
VERTEX
  8
0
 10
223.521585
 20
85.252268
 42
0.178361
  0
VERTEX
  8
0
 10
223.772907
 20
85.305052
 42
0.166646
  0
VERTEX
  8
0
 10
223.941380
 20
85.513170
 42
0.087788
  0
VERTEX
  8
0
 10
224.000000
 20
85.844470
 42
0.309960
  0
VERTEX
  8
0
 10
223.729292
 20
86.239197
 42
0.028131
  0
VERTEX
  8
0
 10
222.531067
 20
86.626026
 42
0.028708
  0
VERTEX
  8
0
 10
220.916013
 20
86.951103
 42
0.018012
  0
VERTEX
  8
0
 10
218.999378
 20
87.153487
 42
0.017263
  0
VERTEX
  8
0
 10
217.082301
 20
87.219963
 42
0.028655
  0
VERTEX
  8
0
 10
215.467872
 20
87.127592
 42
0.028646
  0
VERTEX
  8
0
 10
214.269919
 20
86.919830
 42
0.348814
  0
SEQEND
  0
POLYLINE
  8
0
 66
1
 70
1
  0
VERTEX
  8
0
 10
220.226724
 20
81.250000
 42
-0.003209
  0
VERTEX
  8
0
 10
219.804421
 20
77.250865
 42
-0.187778
  0
VERTEX
  8
0
 10
219.469649
 20
76.612294
 42
-0.631262
  0
VERTEX
  8
0
 10
219.169741
 20
76.742457
 42
-0.004630
  0
VERTEX
  8
0
 10
219.078947
 20
80.250000
 42
-0.015818
  0
VERTEX
  8
0
 10
219.106290
 20
82.070962
 42
-0.025965
  0
VERTEX
  8
0
 10
219.257956
 20
83.604687
 42
-0.023939
  0
VERTEX
  8
0
 10
219.489940
 20
84.758848
 42
-0.343802
  0
VERTEX
  8
0
 10
219.799199
 20
85.000000
 42
-0.339718
  0
VERTEX
  8
0
 10
220.087801
 20
84.778331
 42
-0.036851
  0
VERTEX
  8
0
 10
220.254454
 20
83.898438
 42
-0.033184
  0
VERTEX
  8
0
 10
220.311614
 20
82.687622
 42
-0.019908
  0
SEQEND
  0
POLYLINE
  8
0
 66
1
 70
1
  0
VERTEX
  8
0
 10
108.229167
 20
82.812500
 42
0.075625
  0
VERTEX
  8
0
 10
108.470470
 20
82.340637
 42
0.055579
  0
VERTEX
  8
0
 10
108.864896
 20
81.904062
 42
0.055731
  0
VERTEX
  8
0
 10
109.344332
 20
81.566338
 42
0.077382
  0
VERTEX
  8
0
 10
109.837500
 20
81.387500
 42
0.014876
  0
VERTEX
  8
0
 10
110.271833
 20
81.315768
 42
0.287128
  0
VERTEX
  8
0
 10
110.390904
 20
81.369699
 42
0.428970
  0
VERTEX
  8
0
 10
110.367891
 20
81.470639
 42
0.019147
  0
VERTEX
  8
0
 10
110.018769
 20
81.660410
 42
-0.093859
  0
VERTEX
  8
0
 10
109.668354
 20
81.925017
 42
-0.105592
  0
VERTEX
  8
0
 10
109.456504
 20
82.289548
 42
-0.109741
  0
VERTEX
  8
0
 10
109.416647
 20
82.697307
 42
-0.108525
  0
VERTEX
  8
0
 10
109.552786
 20
83.085410
 42
0.102694
  0
VERTEX
  8
0
 10
109.679597
 20
83.433994
 42
0.178648
  0
VERTEX
  8
0
 10
109.616427
 20
83.731339
 42
0.166283
  0
VERTEX
  8
0
 10
109.369071
 20
83.930690
 42
0.087420
  0
VERTEX
  8
0
 10
108.975684
 20
84.000000
 42
0.113122
  0
VERTEX
  8
0
 10
108.571382
 20
83.907343
 42
0.140669
  0
VERTEX
  8
0
 10
108.285175
 20
83.651172
 42
0.130598
  0
VERTEX
  8
0
 10
108.165304
 20
83.265698
 42
0.091129
  0
SEQEND
  0
POLYLINE
  8
0
 66
1
 70
1
  0
VERTEX
  8
0
 10
134.000000
 20
83.106989
 42
0.222706
  0
VERTEX
  8
0
 10
134.412031
 20
82.227816
 42
0.112589
  0
VERTEX
  8
0
 10
135.526986
 20
81.661400
 42
0.110024
  0
VERTEX
  8
0
 10
136.797062
 20
81.627556
 42
0.209146
  0
VERTEX
  8
0
 10
137.622483
 20
82.198182
 42
0.033384
  0
VERTEX
  8
0
 10
137.848708
 20
82.625566
 42
0.333325
  0
VERTEX
  8
0
 10
137.806555
 20
82.811108
 42
0.293058
  0
VERTEX
  8
0
 10
137.604347
 20
82.838317
 42
0.029304
  0
VERTEX
  8
0
 10
137.154508
 20
82.595492
 42
-0.068937
  0
VERTEX
  8
0
 10
136.712617
 20
82.400314
 42
-0.143226
  0
VERTEX
  8
0
 10
136.339137
 20
82.402650
 42
-0.190280
  0
VERTEX
  8
0
 10
136.093162
 20
82.596262
 42
-0.132745
  0
VERTEX
  8
0
 10
136.000000
 20
82.940983
 42
0.093332
  0
VERTEX
  8
0
 10
135.923877
 20
83.345238
 42
0.096420
  0
VERTEX
  8
0
 10
135.706250
 20
83.688914
 42
0.099167
  0
VERTEX
  8
0
 10
135.381556
 20
83.918938
 42
0.105053
  0
VERTEX
  8
0
 10
135.000000
 20
84.000000
 42
0.088070
  0
VERTEX
  8
0
 10
134.618183
 20
83.932221
 42
0.094674
  0
VERTEX
  8
0
 10
134.293750
 20
83.737678
 42
0.100043
  0
VERTEX
  8
0
 10
134.076720
 20
83.447660
 42
0.111208
  0
SEQEND
  0
POLYLINE
  8
0
 66
1
 70
1
  0
VERTEX
  8
0
 10
123.812500
 20
82.316886
 42
0.051402
  0
VERTEX
  8
0
 10
124.359369
 20
82.160852
 42
0.054150
  0
VERTEX
  8
0
 10
124.916927
 20
82.123424
 42
0.060344
  0
VERTEX
  8
0
 10
125.402231
 20
82.202593
 42
0.126455
  0
VERTEX
  8
0
 10
125.729167
 20
82.395833
 42
0.296942
  0
VERTEX
  8
0
 10
125.775380
 20
82.614691
 42
0.208169
  0
VERTEX
  8
0
 10
125.592839
 20
82.799335
 42
0.077125
  0
VERTEX
  8
0
 10
125.112848
 20
82.910055
 42
0.028489
  0
VERTEX
  8
0
 10
124.416667
 20
82.921053
 42
0.018894
  0
VERTEX
  8
0
 10
123.670344
 20
82.862007
 42
0.168741
  0
VERTEX
  8
0
 10
123.378580
 20
82.720685
 42
0.470617
  0
VERTEX
  8
0
 10
123.395823
 20
82.538436
 42
0.054073
  0
SEQEND
  0
POLYLINE
  8
0
 66
1
 70
1
  0
VERTEX
  8
0
 10
89.000000
 20
47.855265
 42
-0.192191
  0
VERTEX
  8
0
 10
88.878055
 20
47.549735
 42
-0.057462
  0
VERTEX
  8
0
 10
88.485938
 20
47.221801
 42
-0.048349
  0
VERTEX
  8
0
 10
87.919905
 20
46.923456
 42
-0.036270
  0
VERTEX
  8
0
 10
87.250000
 20
46.704467
 42
0.040677
  0
VERTEX
  8
0
 10
86.873693
 20
46.577777
 42
0.797917
  0
VERTEX
  8
0
 10
86.886133
 20
46.510257
 42
0.037342
  0
VERTEX
  8
0
 10
87.404326
 20
46.527359
 42
0.005234
  0
VERTEX
  8
0
 10
88.468750
 20
46.653666
 42
0.032785
  0
VERTEX
  8
0
 10
90.717079
 20
47.095690
 42
0.098169
  0
VERTEX
  8
0
 10
92.117260
 20
47.781377
 42
0.549384
  0
VERTEX
  8
0
 10
92.072636
 20
48.304855
 42
0.120837
  0
VERTEX
  8
0
 10
90.985714
 20
48.571429
 42
0.034283
  0
VERTEX
  8
0
 10
90.225131
 20
48.519216
 42
0.052312
  0
VERTEX
  8
0
 10
89.583304
 20
48.361056
 42
0.068083
  0
VERTEX
  8
0
 10
89.141772
 20
48.130013
 42
0.242795
  0
SEQEND
  0
POLYLINE
  8
0
 66
1
 70
1
  0
VERTEX
  8
0
 10
139.000000
 20
47.500000
 42
0.030528
  0
VERTEX
  8
0
 10
138.401556
 20
46.682119
 42
0.320711
  0
VERTEX
  8
0
 10
138.421161
 20
46.290727
 42
0.219798
  0
VERTEX
  8
0
 10
138.839110
 20
46.079822
 42
0.016973
  0
VERTEX
  8
0
 10
140.127555
 20
46.078947
 42
0.020005
  0
VERTEX
  8
0
 10
140.969663
 20
46.140759
 42
0.092702
  0
VERTEX
  8
0
 10
141.434077
 20
46.283477
 42
0.441435
  0
VERTEX
  8
0
 10
141.482353
 20
46.467653
 42
0.154335
  0
VERTEX
  8
0
 10
141.243769
 20
46.664358
 42
-0.078880
  0
VERTEX
  8
0
 10
140.806545
 20
46.926836
 42
-0.105417
  0
VERTEX
  8
0
 10
140.522598
 20
47.290708
 42
-0.121773
  0
VERTEX
  8
0
 10
140.435807
 20
47.697442
 42
-0.131107
  0
VERTEX
  8
0
 10
140.552786
 20
48.085410
 42
0.082583
  0
VERTEX
  8
0
 10
140.835426
 20
48.775394
 42
0.597839
  0
VERTEX
  8
0
 10
140.626511
 20
48.957568
 42
0.104535
  0
VERTEX
  8
0
 10
139.930510
 20
48.512589
 42
0.025234
  0
SEQEND
  0
POLYLINE
  8
0
 66
1
 70
1
  0
VERTEX
  8
0
 10
158.000000
 20
47.785714
 42
0.177669
  0
VERTEX
  8
0
 10
158.110023
 20
47.485859
 42
0.092326
  0
VERTEX
  8
0
 10
158.423289
 20
47.230804
 42
0.072414
  0
VERTEX
  8
0
 10
158.889664
 20
47.058116
 42
0.052560
  0
VERTEX
  8
0
 10
159.440983
 20
47.000000
 42
0.049465
  0
VERTEX
  8
0
 10
160.028204
 20
47.058236
 42
0.047420
  0
VERTEX
  8
0
 10
160.601322
 20
47.230804
 42
0.051141
  0
VERTEX
  8
0
 10
161.077588
 20
47.484489
 42
0.106803
  0
VERTEX
  8
0
 10
161.367564
 20
47.785714
 42
0.251349
  0
VERTEX
  8
0
 10
161.385718
 20
48.082567
 42
0.161426
  0
VERTEX
  8
0
 10
161.144585
 20
48.340625
 42
0.085489
  0
VERTEX
  8
0
 10
160.631456
 20
48.515602
 42
0.039538
  0
VERTEX
  8
0
 10
159.926581
 20
48.571429
 42
0.038900
  0
VERTEX
  8
0
 10
159.188845
 20
48.513946
 42
0.057994
  0
VERTEX
  8
0
 10
158.565933
 20
48.340625
 42
0.076248
  0
VERTEX
  8
0
 10
158.141450
 20
48.086501
 42
0.223398
  0
SEQEND
  0
POLYLINE
  8
0
 66
1
 70
1
  0
VERTEX
  8
0
 10
74.000000
 20
47.606989
 42
0.225200
  0
VERTEX
  8
0
 10
74.088769
 20
47.419896
 42
0.029412
  0
VERTEX
  8
0
 10
74.455882
 20
47.154486
 42
0.029555
  0
VERTEX
  8
0
 10
74.957462
 20
46.875192
 42
0.020646
  0
VERTEX
  8
0
 10
75.551938
 20
46.618443
 42
0.036408
  0
VERTEX
  8
0
 10
76.131719
 20
46.443138
 42
0.155351
  0
VERTEX
  8
0
 10
76.487528
 20
46.474315
 42
0.329480
  0
VERTEX
  8
0
 10
76.606889
 20
46.674071
 42
0.114400
  0
VERTEX
  8
0
 10
76.492921
 20
47.011454
 42
0.115814
  0
VERTEX
  8
0
 10
75.901891
 20
47.603931
 42
0.080554
  0
VERTEX
  8
0
 10
75.026239
 20
47.969265
 42
0.115534
  0
VERTEX
  8
0
 10
74.291154
 20
47.972535
 42
0.349578
  0
SEQEND
  0
POLYLINE
  8
0
 66
1
 70
1
  0
VERTEX
  8
0
 10
143.000000
 20
47.606989
 42
0.225200
  0
VERTEX
  8
0
 10
143.088769
 20
47.419896
 42
0.029412
  0
VERTEX
  8
0
 10
143.455882
 20
47.154486
 42
0.029555
  0
VERTEX
  8
0
 10
143.957462
 20
46.875192
 42
0.020646
  0
VERTEX
  8
0
 10
144.551938
 20
46.618443
 42
0.036408
  0
VERTEX
  8
0
 10
145.131719
 20
46.443138
 42
0.155351
  0
VERTEX
  8
0
 10
145.487528
 20
46.474315
 42
0.329480
  0
VERTEX
  8
0
 10
145.606889
 20
46.674071
 42
0.114400
  0
VERTEX
  8
0
 10
145.492921
 20
47.011454
 42
0.115814
  0
VERTEX
  8
0
 10
144.901891
 20
47.603931
 42
0.080554
  0
VERTEX
  8
0
 10
144.026239
 20
47.969265
 42
0.115534
  0
VERTEX
  8
0
 10
143.291154
 20
47.972535
 42
0.349578
  0
SEQEND
  0
POLYLINE
  8
0
 66
1
 70
1
  0
VERTEX
  8
0
 10
70.812500
 20
46.316886
 42
0.051402
  0
VERTEX
  8
0
 10
71.359369
 20
46.160852
 42
0.054150
  0
VERTEX
  8
0
 10
71.916927
 20
46.123424
 42
0.060344
  0
VERTEX
  8
0
 10
72.402231
 20
46.202593
 42
0.126455
  0
VERTEX
  8
0
 10
72.729167
 20
46.395833
 42
0.296942
  0
VERTEX
  8
0
 10
72.775380
 20
46.614691
 42
0.208169
  0
VERTEX
  8
0
 10
72.592839
 20
46.799335
 42
0.077125
  0
VERTEX
  8
0
 10
72.112848
 20
46.910055
 42
0.028489
  0
VERTEX
  8
0
 10
71.416667
 20
46.921053
 42
0.018894
  0
VERTEX
  8
0
 10
70.670344
 20
46.862007
 42
0.168741
  0
VERTEX
  8
0
 10
70.378580
 20
46.720685
 42
0.470617
  0
VERTEX
  8
0
 10
70.395823
 20
46.538436
 42
0.054073
  0
SEQEND
  0
POLYLINE
  8
0
 66
1
 70
1
  0
VERTEX
  8
0
 10
94.812500
 20
46.316886
 42
0.051402
  0
VERTEX
  8
0
 10
95.359369
 20
46.160852
 42
0.054150
  0
VERTEX
  8
0
 10
95.916927
 20
46.123424
 42
0.060344
  0
VERTEX
  8
0
 10
96.402231
 20
46.202593
 42
0.126455
  0
VERTEX
  8
0
 10
96.729167
 20
46.395833
 42
0.296942
  0
VERTEX
  8
0
 10
96.775380
 20
46.614691
 42
0.208169
  0
VERTEX
  8
0
 10
96.592839
 20
46.799335
 42
0.077125
  0
VERTEX
  8
0
 10
96.112848
 20
46.910055
 42
0.028489
  0
VERTEX
  8
0
 10
95.416667
 20
46.921053
 42
0.018894
  0
VERTEX
  8
0
 10
94.670344
 20
46.862007
 42
0.168741
  0
VERTEX
  8
0
 10
94.378580
 20
46.720685
 42
0.470617
  0
VERTEX
  8
0
 10
94.395823
 20
46.538436
 42
0.054073
  0
SEQEND
  0
POLYLINE
  8
0
 66
1
 70
1
  0
VERTEX
  8
0
 10
154.812500
 20
46.316886
 42
0.051402
  0
VERTEX
  8
0
 10
155.359369
 20
46.160852
 42
0.054150
  0
VERTEX
  8
0
 10
155.916927
 20
46.123424
 42
0.060344
  0
VERTEX
  8
0
 10
156.402231
 20
46.202593
 42
0.126455
  0
VERTEX
  8
0
 10
156.729167
 20
46.395833
 42
0.296942
  0
VERTEX
  8
0
 10
156.775380
 20
46.614691
 42
0.208169
  0
VERTEX
  8
0
 10
156.592839
 20
46.799335
 42
0.077125
  0
VERTEX
  8
0
 10
156.112848
 20
46.910055
 42
0.028489
  0
VERTEX
  8
0
 10
155.416667
 20
46.921053
 42
0.018894
  0
VERTEX
  8
0
 10
154.670344
 20
46.862007
 42
0.168741
  0
VERTEX
  8
0
 10
154.378580
 20
46.720685
 42
0.470617
  0
VERTEX
  8
0
 10
154.395823
 20
46.538436
 42
0.054073
  0
SEQEND
  0
POLYLINE
  8
0
 66
1
 70
1
  0
VERTEX
  8
0
 10
163.812500
 20
46.316886
 42
0.051402
  0
VERTEX
  8
0
 10
164.359369
 20
46.160852
 42
0.054150
  0
VERTEX
  8
0
 10
164.916927
 20
46.123424
 42
0.060344
  0
VERTEX
  8
0
 10
165.402231
 20
46.202593
 42
0.126455
  0
VERTEX
  8
0
 10
165.729167
 20
46.395833
 42
0.296942
  0
VERTEX
  8
0
 10
165.775380
 20
46.614691
 42
0.208169
  0
VERTEX
  8
0
 10
165.592839
 20
46.799335
 42
0.077125
  0
VERTEX
  8
0
 10
165.112848
 20
46.910055
 42
0.028489
  0
VERTEX
  8
0
 10
164.416667
 20
46.921053
 42
0.018894
  0
VERTEX
  8
0
 10
163.670344
 20
46.862007
 42
0.168741
  0
VERTEX
  8
0
 10
163.378580
 20
46.720685
 42
0.470617
  0
VERTEX
  8
0
 10
163.395823
 20
46.538436
 42
0.054073
  0
SEQEND
  0
POLYLINE
  8
0
 66
1
 70
1
  0
VERTEX
  8
0
 10
143.500000
 20
42.000000
 42
0.082592
  0
VERTEX
  8
0
 10
143.343488
 20
41.617900
 42
0.161196
  0
VERTEX
  8
0
 10
143.374600
 20
41.293750
 42
0.182303
  0
VERTEX
  8
0
 10
143.586039
 20
41.078288
 42
0.108972
  0
VERTEX
  8
0
 10
143.940983
 20
41.000000
 42
0.093332
  0
VERTEX
  8
0
 10
144.345238
 20
41.076123
 42
0.096420
  0
VERTEX
  8
0
 10
144.688914
 20
41.293750
 42
0.099167
  0
VERTEX
  8
0
 10
144.918938
 20
41.618444
 42
0.105053
  0
VERTEX
  8
0
 10
145.000000
 20
42.000000
 42
0.042167
  0
VERTEX
  8
0
 10
144.967655
 20
42.382849
 42
0.061769
  0
VERTEX
  8
0
 10
144.870461
 20
42.706250
 42
0.081139
  0
VERTEX
  8
0
 10
144.727648
 20
42.925540
 42
0.210953
  0
VERTEX
  8
0
 10
144.559017
 20
43.000000
 42
0.151918
  0
VERTEX
  8
0
 10
144.348290
 20
42.934461
 42
0.038439
  0
VERTEX
  8
0
 10
144.066025
 20
42.706250
 42
0.035638
  0
VERTEX
  8
0
 10
143.768994
 20
42.382774
 42
0.029505
  0
SEQEND
  0
POLYLINE
  8
0
 66
1
 70
1
  0
VERTEX
  8
0
 10
159.000000
 20
28.833333
 42
0.174820
  0
VERTEX
  8
0
 10
159.114688
 20
28.515341
 42
0.093122
  0
VERTEX
  8
0
 10
159.440625
 20
28.244792
 42
0.073362
  0
VERTEX
  8
0
 10
159.926139
 20
28.061690
 42
0.053595
  0
VERTEX
  8
0
 10
160.500000
 20
28.000000
 42
0.053595
  0
VERTEX
  8
0
 10
161.073861
 20
28.061690
 42
0.073362
  0
VERTEX
  8
0
 10
161.559375
 20
28.244792
 42
0.093122
  0
VERTEX
  8
0
 10
161.885312
 20
28.515341
 42
0.174820
  0
VERTEX
  8
0
 10
162.000000
 20
28.833333
 42
0.174820
  0
VERTEX
  8
0
 10
161.885312
 20
29.151326
 42
0.093122
  0
VERTEX
  8
0
 10
161.559375
 20
29.421875
 42
0.073362
  0
VERTEX
  8
0
 10
161.073861
 20
29.604977
 42
0.053595
  0
VERTEX
  8
0
 10
160.500000
 20
29.666667
 42
0.053595
  0
VERTEX
  8
0
 10
159.926139
 20
29.604977
 42
0.073362
  0
VERTEX
  8
0
 10
159.440625
 20
29.421875
 42
0.093122
  0
VERTEX
  8
0
 10
159.114688
 20
29.151326
 42
0.174820
  0
SEQEND
  0
POLYLINE
  8
0
 66
1
 70
1
  0
VERTEX
  8
0
 10
89.666667
 20
25.333333
 42
0.091757
  0
VERTEX
  8
0
 10
89.075290
 20
24.473348
 42
0.220303
  0
VERTEX
  8
0
 10
89.086081
 20
23.717959
 42
0.210357
  0
VERTEX
  8
0
 10
89.675660
 20
23.213078
 42
0.084847
  0
VERTEX
  8
0
 10
90.750000
 20
23.078947
 42
0.020483
  0
VERTEX
  8
0
 10
91.423747
 20
23.137062
 42
0.187944
  0
VERTEX
  8
0
 10
91.676989
 20
23.274935
 42
0.449603
  0
VERTEX
  8
0
 10
91.651402
 20
23.450943
 42
0.049580
  0
VERTEX
  8
0
 10
91.243769
 20
23.664358
 42
-0.078880
  0
VERTEX
  8
0
 10
90.806545
 20
23.926836
 42
-0.105417
  0
VERTEX
  8
0
 10
90.522598
 20
24.290708
 42
-0.121773
  0
VERTEX
  8
0
 10
90.435807
 20
24.697442
 42
-0.131107
  0
VERTEX
  8
0
 10
90.552786
 20
25.085410
 42
0.054158
  0
VERTEX
  8
0
 10
90.854341
 20
25.717137
 42
0.433187
  0
VERTEX
  8
0
 10
90.721063
 20
25.972878
 42
0.233764
  0
VERTEX
  8
0
 10
90.314060
 20
25.896092
 42
0.034926
  0
SEQEND
  0
ENDSEC
  0
EOF
